SplineFontDB: 3.0
FontName: Sansita-Regular
FullName: Sansita-Regular
FamilyName: Sansita
Weight: Regular
Copyright: Copyright (c) 2011-2013, Omnibus-Type (www.omnibus-type.com omnibus.type@gmail.com) with Reserved Font Name 'Sansita'
Version: 001.004
ItalicAngle: 0
UnderlinePosition: -49.8047
UnderlineWidth: 49.8047
Ascent: 800
Descent: 200
sfntRevision: 0x00010106
LayerCount: 2
Layer: 0 1 "Back"  1
Layer: 1 1 "Fore"  0
XUID: [1021 809 -2065993493 3615214]
FSType: 8
OS2Version: 3
OS2_WeightWidthSlopeOnly: 0
OS2_UseTypoMetrics: 1
CreationTime: 1387883357
ModificationTime: 1388331976
PfmFamily: 81
TTFWeight: 400
TTFWidth: 5
LineGap: 0
VLineGap: 0
Panose: 0 0 5 0 0 0 0 0 0 0
OS2TypoAscent: 700
OS2TypoAOffset: 0
OS2TypoDescent: -180
OS2TypoDOffset: 0
OS2TypoLinegap: 320
OS2WinAscent: 1020
OS2WinAOffset: 0
OS2WinDescent: 180
OS2WinDOffset: 0
HheadAscent: 1020
HheadAOffset: 0
HheadDescent: -180
HheadDOffset: 0
OS2SubXSize: 650
OS2SubYSize: 600
OS2SubXOff: 0
OS2SubYOff: 75
OS2SupXSize: 650
OS2SupYSize: 600
OS2SupXOff: 0
OS2SupYOff: 350
OS2StrikeYSize: 50
OS2StrikeYPos: 306
OS2Vendor: 'UKWN'
OS2CodePages: 20000093.00000000
OS2UnicodeRanges: 00000007.00000000.00000000.00000000
Lookup: 1 0 0 "'aalt' Access All Alternates lookup 0"  {"'aalt' Access All Alternates lookup 0 subtable"  } ['aalt' ('DFLT' <'dflt' > 'grek' <'dflt' > 'latn' <'AZE ' 'CAT ' 'CRT ' 'ESP ' 'KAZ ' 'MOL ' 'NLD ' 'PLK ' 'ROM ' 'TAT ' 'TRK ' 'dflt' > ) ]
Lookup: 3 0 0 "'aalt' Access All Alternates lookup 1"  {"'aalt' Access All Alternates lookup 1 subtable"  } ['aalt' ('DFLT' <'dflt' > 'grek' <'dflt' > 'latn' <'AZE ' 'CAT ' 'CRT ' 'ESP ' 'KAZ ' 'MOL ' 'NLD ' 'PLK ' 'ROM ' 'TAT ' 'TRK ' 'dflt' > ) ]

StartChar: .notdef
Encoding: 65536 -1 0
Width: 513
Flags: MW
LayerCount: 2
UndoRedoHistory
Layer: 0
Undoes
EndUndoes
Redoes
EndRedoes
EndUndoRedoHistory
UndoRedoHistory
Layer: 1
Undoes
EndUndoes
Redoes
EndRedoes
EndUndoRedoHistory
Fore
SplineSet
7 700 m 1,0,-1
 507 700 l 1,1,-1
 507 0 l 1,2,-1
 7 0 l 1,3,-1
 7 700 l 1,0,-1
426 650 m 1,4,-1
 86 650 l 1,5,-1
 257 395 l 1,6,-1
 426 650 l 1,4,-1
56 95 m 1,7,-1
 227 350 l 1,8,-1
 56 605 l 1,9,-1
 56 95 l 1,7,-1
456 95 m 1,10,-1
 456 605 l 1,11,-1
 287 350 l 1,12,-1
 456 95 l 1,10,-1
427 50 m 1,13,-1
 256 305 l 1,14,-1
 87 50 l 1,15,-1
 427 50 l 1,13,-1
EndSplineSet
Validated: 1
EndChar

StartChar: A
Encoding: 65 65 1
Width: 502
Flags: MW
LayerCount: 2
UndoRedoHistory
Layer: 0
Undoes
EndUndoes
Redoes
EndRedoes
EndUndoRedoHistory
UndoRedoHistory
Layer: 1
Undoes
EndUndoes
Redoes
EndRedoes
EndUndoRedoHistory
Fore
SplineSet
503 0 m 1,0,-1
 385 0 l 1,1,-1
 345 168 l 1,2,-1
 149 168 l 1,3,-1
 110 0 l 1,4,-1
 0 0 l 1,5,-1
 183 660 l 1,6,-1
 332 660 l 1,7,-1
 503 0 l 1,0,-1
328 242 m 1,8,-1
 247 585 l 1,9,-1
 167 242 l 1,10,-1
 328 242 l 1,8,-1
EndSplineSet
Validated: 1
Substitution2: "Single Substitution lookup 21 subtable" ordfeminine
Substitution2: "'aalt' Access All Alternates lookup 0 subtable" ordfeminine
Position2: "'cpsp' Capital Spacing lookup 3 subtable" dx=5 dy=0 dh=10 dv=0
EndChar

StartChar: Aacute
Encoding: 193 193 2
Width: 502
Flags: MW
LayerCount: 2
UndoRedoHistory
Layer: 0
Undoes
EndUndoes
Redoes
EndRedoes
EndUndoRedoHistory
UndoRedoHistory
Layer: 1
Undoes
EndUndoes
Redoes
EndRedoes
EndUndoRedoHistory
Fore
SplineSet
387 837 m 1,0,1
 416 816 416 816 416 786 c 0,2,3
 416 767 416 767 406.5 754 c 128,-1,4
 397 741 397 741 379.5 734.5 c 128,-1,5
 362 728 362 728 345.5 725 c 128,-1,6
 329 722 329 722 305 720 c 2,7,-1
 186 711 l 1,8,-1
 175 753 l 1,9,-1
 387 837 l 1,0,1
385 0 m 1,10,-1
 345 168 l 1,11,-1
 149 168 l 1,12,-1
 110 0 l 1,13,-1
 0 0 l 1,14,-1
 183 660 l 1,15,-1
 332 660 l 1,16,-1
 503 0 l 1,17,-1
 385 0 l 1,10,-1
247 585 m 1,18,-1
 167 242 l 1,19,-1
 328 242 l 1,20,-1
 247 585 l 1,18,-1
EndSplineSet
Validated: 1
Position2: "'cpsp' Capital Spacing lookup 3 subtable" dx=5 dy=0 dh=10 dv=0
EndChar

StartChar: Abreve
Encoding: 258 258 3
Width: 502
Flags: MW
LayerCount: 2
UndoRedoHistory
Layer: 0
Undoes
EndUndoes
Redoes
EndRedoes
EndUndoRedoHistory
UndoRedoHistory
Layer: 1
Undoes
EndUndoes
Redoes
EndRedoes
EndUndoRedoHistory
Fore
SplineSet
404 823 m 1,0,1
 404 758 404 758 362.5 721.5 c 128,-1,2
 321 685 321 685 253 685 c 128,-1,3
 185 685 185 685 144 721.5 c 128,-1,4
 103 758 103 758 103 823 c 1,5,-1
 194 823 l 1,6,7
 194 737 194 737 253 737 c 128,-1,8
 312 737 312 737 312 823 c 1,9,-1
 404 823 l 1,0,1
385 0 m 1,10,-1
 345 168 l 1,11,-1
 149 168 l 1,12,-1
 110 0 l 1,13,-1
 0 0 l 1,14,-1
 183 660 l 1,15,-1
 332 660 l 1,16,-1
 503 0 l 1,17,-1
 385 0 l 1,10,-1
247 585 m 1,18,-1
 167 242 l 1,19,-1
 328 242 l 1,20,-1
 247 585 l 1,18,-1
EndSplineSet
Validated: 1
Position2: "'cpsp' Capital Spacing lookup 3 subtable" dx=5 dy=0 dh=10 dv=0
EndChar

StartChar: Acircumflex
Encoding: 194 194 4
Width: 502
Flags: MW
LayerCount: 2
UndoRedoHistory
Layer: 0
Undoes
EndUndoes
Redoes
EndRedoes
EndUndoRedoHistory
UndoRedoHistory
Layer: 1
Undoes
EndUndoes
Redoes
EndRedoes
EndUndoRedoHistory
Fore
SplineSet
107 704 m 1,0,-1
 252 836 l 1,1,-1
 256 836 l 1,2,-1
 405 704 l 1,3,-1
 375 669 l 1,4,-1
 255 742 l 1,5,-1
 136 669 l 1,6,-1
 107 704 l 1,0,-1
385 0 m 1,7,-1
 345 168 l 1,8,-1
 149 168 l 1,9,-1
 110 0 l 1,10,-1
 0 0 l 1,11,-1
 183 660 l 1,12,-1
 332 660 l 1,13,-1
 503 0 l 1,14,-1
 385 0 l 1,7,-1
247 585 m 1,15,-1
 167 242 l 1,16,-1
 328 242 l 1,17,-1
 247 585 l 1,15,-1
EndSplineSet
Validated: 1
Position2: "'cpsp' Capital Spacing lookup 3 subtable" dx=5 dy=0 dh=10 dv=0
EndChar

StartChar: Adieresis
Encoding: 196 196 5
Width: 502
Flags: MW
LayerCount: 2
UndoRedoHistory
Layer: 0
Undoes
EndUndoes
Redoes
EndRedoes
EndUndoRedoHistory
UndoRedoHistory
Layer: 1
Undoes
EndUndoes
Redoes
EndRedoes
EndUndoRedoHistory
Fore
SplineSet
155 836 m 128,-1,1
 188 836 188 836 208.5 820 c 128,-1,2
 229 804 229 804 229 774 c 0,3,4
 229 743 229 743 207.5 726.5 c 128,-1,5
 186 710 186 710 152 710 c 0,6,7
 119 710 119 710 99 726 c 128,-1,8
 79 742 79 742 79 772 c 0,9,10
 79 803 79 803 100.5 819.5 c 128,-1,0
 122 836 122 836 155 836 c 128,-1,1
354 836 m 128,-1,12
 387 836 387 836 407.5 820 c 128,-1,13
 428 804 428 804 428 774 c 0,14,15
 428 743 428 743 406.5 726.5 c 128,-1,16
 385 710 385 710 351 710 c 0,17,18
 318 710 318 710 298 726 c 128,-1,19
 278 742 278 742 278 772 c 0,20,21
 278 803 278 803 299.5 819.5 c 128,-1,11
 321 836 321 836 354 836 c 128,-1,12
385 0 m 1,22,-1
 345 168 l 1,23,-1
 149 168 l 1,24,-1
 110 0 l 1,25,-1
 0 0 l 1,26,-1
 183 660 l 1,27,-1
 332 660 l 1,28,-1
 503 0 l 1,29,-1
 385 0 l 1,22,-1
247 585 m 1,30,-1
 167 242 l 1,31,-1
 328 242 l 1,32,-1
 247 585 l 1,30,-1
EndSplineSet
Validated: 1
Position2: "'cpsp' Capital Spacing lookup 3 subtable" dx=5 dy=0 dh=10 dv=0
EndChar

StartChar: Agrave
Encoding: 192 192 6
Width: 502
Flags: MW
LayerCount: 2
UndoRedoHistory
Layer: 0
Undoes
EndUndoes
Redoes
EndRedoes
EndUndoRedoHistory
UndoRedoHistory
Layer: 1
Undoes
EndUndoes
Redoes
EndRedoes
EndUndoRedoHistory
Fore
SplineSet
200 720 m 2,0,1
 181 721 181 721 167.5 723 c 128,-1,2
 154 725 154 725 138.5 729.5 c 128,-1,3
 123 734 123 734 113 741 c 128,-1,4
 103 748 103 748 96.5 759.5 c 128,-1,5
 90 771 90 771 90 786 c 0,6,7
 90 817 90 817 118 837 c 1,8,-1
 331 753 l 1,9,-1
 320 711 l 1,10,-1
 200 720 l 2,0,1
385 0 m 1,11,-1
 345 168 l 1,12,-1
 149 168 l 1,13,-1
 110 0 l 1,14,-1
 0 0 l 1,15,-1
 183 660 l 1,16,-1
 332 660 l 1,17,-1
 503 0 l 1,18,-1
 385 0 l 1,11,-1
247 585 m 1,19,-1
 167 242 l 1,20,-1
 328 242 l 1,21,-1
 247 585 l 1,19,-1
EndSplineSet
Validated: 1
Position2: "'cpsp' Capital Spacing lookup 3 subtable" dx=5 dy=0 dh=10 dv=0
EndChar

StartChar: Amacron
Encoding: 256 256 7
Width: 502
Flags: MW
LayerCount: 2
UndoRedoHistory
Layer: 0
Undoes
EndUndoes
Redoes
EndRedoes
EndUndoRedoHistory
UndoRedoHistory
Layer: 1
Undoes
EndUndoes
Redoes
EndRedoes
EndUndoRedoHistory
Fore
SplineSet
383 824 m 1,0,1
 391 803 391 803 391 786 c 0,2,3
 391 742 391 742 333 742 c 2,4,-1
 123 742 l 1,5,6
 116 758 116 758 116 778 c 0,7,8
 116 799 116 799 129.5 811.5 c 128,-1,9
 143 824 143 824 167 824 c 2,10,-1
 383 824 l 1,0,1
385 0 m 1,11,-1
 345 168 l 1,12,-1
 149 168 l 1,13,-1
 110 0 l 1,14,-1
 0 0 l 1,15,-1
 183 660 l 1,16,-1
 332 660 l 1,17,-1
 503 0 l 1,18,-1
 385 0 l 1,11,-1
247 585 m 1,19,-1
 167 242 l 1,20,-1
 328 242 l 1,21,-1
 247 585 l 1,19,-1
EndSplineSet
Validated: 1
Position2: "'cpsp' Capital Spacing lookup 3 subtable" dx=5 dy=0 dh=10 dv=0
EndChar

StartChar: Aogonek
Encoding: 260 260 8
Width: 502
Flags: MW
LayerCount: 2
UndoRedoHistory
Layer: 0
Undoes
EndUndoes
Redoes
EndRedoes
EndUndoRedoHistory
UndoRedoHistory
Layer: 1
Undoes
EndUndoes
Redoes
EndRedoes
EndUndoRedoHistory
Fore
SplineSet
490 0 m 1,0,1
 459 -27 459 -27 441 -61 c 128,-1,2
 423 -95 423 -95 423 -130 c 0,3,4
 423 -160 423 -160 435.5 -174 c 128,-1,5
 448 -188 448 -188 479 -188 c 0,6,7
 508 -188 508 -188 526 -167 c 1,8,9
 537 -177 537 -177 537 -192 c 0,10,11
 537 -220 537 -220 513 -233 c 128,-1,12
 489 -246 489 -246 455 -246 c 0,13,14
 405 -246 405 -246 377 -219 c 128,-1,15
 349 -192 349 -192 349 -143 c 0,16,17
 349 -101 349 -101 371 -64.5 c 128,-1,18
 393 -28 393 -28 429 0 c 1,19,-1
 385 0 l 1,20,-1
 345 168 l 1,21,-1
 149 168 l 1,22,-1
 110 0 l 1,23,-1
 0 0 l 1,24,-1
 183 660 l 1,25,-1
 332 660 l 1,26,-1
 500 12 l 1,27,-1
 503 10 l 1,28,-1
 501 8 l 1,29,-1
 503 0 l 1,30,-1
 490 0 l 1,0,1
328 242 m 1,31,-1
 247 585 l 1,32,-1
 167 242 l 1,33,-1
 328 242 l 1,31,-1
EndSplineSet
Validated: 1
Position2: "'cpsp' Capital Spacing lookup 3 subtable" dx=5 dy=0 dh=10 dv=0
EndChar

StartChar: Aring
Encoding: 197 197 9
Width: 502
Flags: MW
LayerCount: 2
UndoRedoHistory
Layer: 0
Undoes
EndUndoes
Redoes
EndRedoes
EndUndoRedoHistory
UndoRedoHistory
Layer: 1
Undoes
EndUndoes
Redoes
EndRedoes
EndUndoRedoHistory
Fore
SplineSet
253 702 m 0,0,1
 211 702 211 702 182 725 c 128,-1,2
 153 748 153 748 153 786 c 0,3,4
 153 824 153 824 181 845.5 c 128,-1,5
 209 867 209 867 253 867 c 0,6,7
 297 867 297 867 325.5 845.5 c 128,-1,8
 354 824 354 824 354 786 c 0,9,10
 354 748 354 748 325 725 c 128,-1,11
 296 702 296 702 253 702 c 0,0,1
253 736 m 0,12,13
 274 736 274 736 285 750 c 128,-1,14
 296 764 296 764 296 786 c 0,15,16
 296 807 296 807 284.5 820 c 128,-1,17
 273 833 273 833 253 833 c 0,18,19
 233 833 233 833 222 820 c 128,-1,20
 211 807 211 807 211 786 c 0,21,22
 211 764 211 764 221.5 750 c 128,-1,23
 232 736 232 736 253 736 c 0,12,13
385 0 m 1,24,-1
 345 168 l 1,25,-1
 149 168 l 1,26,-1
 110 0 l 1,27,-1
 0 0 l 1,28,-1
 183 660 l 1,29,-1
 332 660 l 1,30,-1
 503 0 l 1,31,-1
 385 0 l 1,24,-1
247 585 m 1,32,-1
 167 242 l 1,33,-1
 328 242 l 1,34,-1
 247 585 l 1,32,-1
EndSplineSet
Validated: 1
Position2: "'cpsp' Capital Spacing lookup 3 subtable" dx=5 dy=0 dh=10 dv=0
EndChar

StartChar: Aringacute
Encoding: 506 506 10
Width: 502
Flags: MW
LayerCount: 2
UndoRedoHistory
Layer: 0
Undoes
EndUndoes
Redoes
EndRedoes
EndUndoRedoHistory
UndoRedoHistory
Layer: 1
Undoes
EndUndoes
Redoes
EndRedoes
EndUndoRedoHistory
Fore
SplineSet
188 794 m 1,0,-1
 177 836 l 1,1,-1
 389 920 l 1,2,3
 418 899 418 899 418 869 c 0,4,5
 418 850 418 850 408.5 837 c 128,-1,6
 399 824 399 824 381.5 817.5 c 128,-1,7
 364 811 364 811 347.5 808 c 128,-1,8
 331 805 331 805 307 803 c 2,9,-1
 188 794 l 1,0,-1
503 0 m 1,10,-1
 385 0 l 1,11,-1
 345 168 l 1,12,-1
 149 168 l 1,13,-1
 110 0 l 1,14,-1
 0 0 l 1,15,-1
 181 653 l 1,16,17
 157 675 157 675 157 710 c 0,18,19
 157 748 157 748 185 769.5 c 128,-1,20
 213 791 213 791 257 791 c 0,21,22
 302 791 302 791 330.5 769.5 c 128,-1,23
 359 748 359 748 359 710 c 0,24,25
 359 675 359 675 334 652 c 1,26,-1
 503 0 l 1,10,-1
257 757 m 0,27,28
 237 757 237 757 226 743.5 c 128,-1,29
 215 730 215 730 215 710 c 0,30,31
 215 688 215 688 225.5 674 c 128,-1,32
 236 660 236 660 257 660 c 0,33,34
 278 660 278 660 289 674 c 128,-1,35
 300 688 300 688 300 710 c 0,36,37
 300 731 300 731 289 744 c 128,-1,38
 278 757 278 757 257 757 c 0,27,28
328 242 m 1,39,-1
 247 585 l 1,40,-1
 167 242 l 1,41,-1
 328 242 l 1,39,-1
EndSplineSet
Validated: 1
Position2: "'cpsp' Capital Spacing lookup 3 subtable" dx=5 dy=0 dh=10 dv=0
EndChar

StartChar: Atilde
Encoding: 195 195 11
Width: 502
Flags: MW
LayerCount: 2
UndoRedoHistory
Layer: 0
Undoes
EndUndoes
Redoes
EndRedoes
EndUndoRedoHistory
UndoRedoHistory
Layer: 1
Undoes
EndUndoes
Redoes
EndRedoes
EndUndoRedoHistory
Fore
SplineSet
378 820 m 1,0,1
 405 802 405 802 405 769 c 0,2,3
 405 745 405 745 388.5 732.5 c 128,-1,4
 372 720 372 720 344 720 c 0,5,6
 322 720 322 720 262 732 c 128,-1,7
 202 744 202 744 182 744 c 0,8,9
 145 744 145 744 129 729 c 1,10,11
 102 747 102 747 102 780 c 0,12,13
 102 804 102 804 119 816.5 c 128,-1,14
 136 829 136 829 163 829 c 0,15,16
 186 829 186 829 246 817 c 128,-1,17
 306 805 306 805 325 805 c 0,18,19
 362 805 362 805 378 820 c 1,0,1
385 0 m 1,20,-1
 345 168 l 1,21,-1
 149 168 l 1,22,-1
 110 0 l 1,23,-1
 0 0 l 1,24,-1
 183 660 l 1,25,-1
 332 660 l 1,26,-1
 503 0 l 1,27,-1
 385 0 l 1,20,-1
247 585 m 1,28,-1
 167 242 l 1,29,-1
 328 242 l 1,30,-1
 247 585 l 1,28,-1
EndSplineSet
Validated: 1
Position2: "'cpsp' Capital Spacing lookup 3 subtable" dx=5 dy=0 dh=10 dv=0
EndChar

StartChar: AE
Encoding: 198 198 12
Width: 674
Flags: MW
LayerCount: 2
UndoRedoHistory
Layer: 0
Undoes
EndUndoes
Redoes
EndRedoes
EndUndoRedoHistory
UndoRedoHistory
Layer: 1
Undoes
EndUndoes
Redoes
EndRedoes
EndUndoRedoHistory
Fore
SplineSet
631 586 m 1,0,-1
 428 586 l 1,1,-1
 428 376 l 1,2,-1
 601 376 l 1,3,-1
 601 302 l 1,4,-1
 428 302 l 1,5,-1
 428 74 l 1,6,-1
 645 74 l 1,7,-1
 638 0 l 1,8,-1
 310 0 l 1,9,-1
 310 168 l 1,10,-1
 135 168 l 1,11,-1
 65 0 l 1,12,-1
 -46 0 l 1,13,-1
 255 660 l 1,14,-1
 631 660 l 1,15,-1
 631 586 l 1,0,-1
166 242 m 1,16,-1
 310 242 l 1,17,-1
 310 586 l 1,18,-1
 166 242 l 1,16,-1
EndSplineSet
Validated: 1
Position2: "'cpsp' Capital Spacing lookup 3 subtable" dx=5 dy=0 dh=10 dv=0
EndChar

StartChar: AEacute
Encoding: 508 508 13
Width: 674
Flags: MW
LayerCount: 2
UndoRedoHistory
Layer: 0
Undoes
EndUndoes
Redoes
EndRedoes
EndUndoRedoHistory
UndoRedoHistory
Layer: 1
Undoes
EndUndoes
Redoes
EndRedoes
EndUndoRedoHistory
Fore
SplineSet
468 837 m 1,0,1
 497 816 497 816 497 786 c 0,2,3
 497 767 497 767 488 754 c 128,-1,4
 479 741 479 741 461 734.5 c 128,-1,5
 443 728 443 728 426.5 725 c 128,-1,6
 410 722 410 722 386 720 c 2,7,-1
 267 711 l 1,8,-1
 256 753 l 1,9,-1
 468 837 l 1,0,1
428 586 m 1,10,-1
 428 376 l 1,11,-1
 601 376 l 1,12,-1
 601 302 l 1,13,-1
 428 302 l 1,14,-1
 428 74 l 1,15,-1
 645 74 l 1,16,-1
 638 0 l 1,17,-1
 310 0 l 1,18,-1
 310 168 l 1,19,-1
 135 168 l 1,20,-1
 65 0 l 1,21,-1
 -46 0 l 1,22,-1
 255 660 l 1,23,-1
 631 660 l 1,24,-1
 631 586 l 1,25,-1
 428 586 l 1,10,-1
310 242 m 1,26,-1
 310 586 l 1,27,-1
 166 242 l 1,28,-1
 310 242 l 1,26,-1
EndSplineSet
Validated: 1
Position2: "'cpsp' Capital Spacing lookup 3 subtable" dx=5 dy=0 dh=10 dv=0
EndChar

StartChar: B
Encoding: 66 66 14
Width: 539
Flags: MW
LayerCount: 2
UndoRedoHistory
Layer: 0
Undoes
EndUndoes
Redoes
EndRedoes
EndUndoRedoHistory
UndoRedoHistory
Layer: 1
Undoes
EndUndoes
Redoes
EndRedoes
EndUndoRedoHistory
Fore
SplineSet
60 656 m 1,0,1
 185 664 185 664 248 664 c 0,2,3
 297 664 297 664 334.5 656.5 c 128,-1,4
 372 649 372 649 402.5 632 c 128,-1,5
 433 615 433 615 449 584 c 128,-1,6
 465 553 465 553 465 508 c 0,7,8
 465 466 465 466 440.5 428.5 c 128,-1,9
 416 391 416 391 376 369 c 1,10,11
 442 356 442 356 477.5 309 c 128,-1,12
 513 262 513 262 513 193 c 0,13,14
 513 152 513 152 498.5 118 c 128,-1,15
 484 84 484 84 458.5 61 c 128,-1,16
 433 38 433 38 399 21.5 c 128,-1,17
 365 5 365 5 326 -2.5 c 128,-1,18
 287 -10 287 -10 244 -10 c 0,19,20
 160 -10 160 -10 60 5 c 1,21,-1
 60 656 l 1,0,1
177 389 m 1,22,23
 200 386 200 386 228 386 c 0,24,25
 287 386 287 386 316 413 c 128,-1,26
 345 440 345 440 345 498 c 0,27,28
 345 594 345 594 241 594 c 0,29,30
 213 594 213 594 177 589 c 1,31,-1
 177 389 l 1,22,23
177 66 m 1,32,33
 213 60 213 60 244 60 c 0,34,35
 314 60 314 60 351.5 92 c 128,-1,36
 389 124 389 124 389 190 c 0,37,38
 389 229 389 229 378.5 254.5 c 128,-1,39
 368 280 368 280 345 294 c 128,-1,40
 322 308 322 308 293.5 313 c 128,-1,41
 265 318 265 318 222 318 c 0,42,43
 195 318 195 318 177 315 c 1,44,-1
 177 66 l 1,32,33
EndSplineSet
Validated: 1
Position2: "'cpsp' Capital Spacing lookup 3 subtable" dx=5 dy=0 dh=10 dv=0
EndChar

StartChar: C
Encoding: 67 67 15
Width: 511
Flags: MW
LayerCount: 2
UndoRedoHistory
Layer: 0
Undoes
EndUndoes
Redoes
EndRedoes
EndUndoRedoHistory
UndoRedoHistory
Layer: 1
Undoes
EndUndoes
Redoes
EndRedoes
EndUndoRedoHistory
Fore
SplineSet
285 610 m 0,0,1
 261 610 261 610 242 600 c 128,-1,2
 223 590 223 590 210 575 c 128,-1,3
 197 560 197 560 187.5 536.5 c 128,-1,4
 178 513 178 513 173 490 c 128,-1,5
 168 467 168 467 165 437 c 128,-1,6
 162 407 162 407 161 384 c 128,-1,7
 160 361 160 361 160 332 c 0,8,9
 160 302 160 302 161 278.5 c 128,-1,10
 162 255 162 255 165.5 226.5 c 128,-1,11
 169 198 169 198 174.5 177 c 128,-1,12
 180 156 180 156 190.5 134.5 c 128,-1,13
 201 113 201 113 214.5 99.5 c 128,-1,14
 228 86 228 86 248.5 78 c 128,-1,15
 269 70 269 70 295 70 c 0,16,17
 347 70 347 70 384 99 c 128,-1,18
 421 128 421 128 437 179 c 1,19,20
 476 167 476 167 476 120 c 0,21,22
 476 75 476 75 447.5 42 c 128,-1,23
 419 9 419 9 376.5 -6.5 c 128,-1,24
 334 -22 334 -22 285 -22 c 0,25,26
 34 -22 34 -22 34 327 c 0,27,28
 34 387 34 387 42 438.5 c 128,-1,29
 50 490 50 490 69.5 535 c 128,-1,30
 89 580 89 580 118 612 c 128,-1,31
 147 644 147 644 192 662 c 128,-1,32
 237 680 237 680 294 680 c 0,33,34
 336 680 336 680 370 672.5 c 128,-1,35
 404 665 404 665 431 648 c 128,-1,36
 458 631 458 631 472.5 602 c 128,-1,37
 487 573 487 573 487 534 c 0,38,39
 487 498 487 498 465.5 475.5 c 128,-1,40
 444 453 444 453 409 453 c 0,41,42
 374 453 374 453 357 469 c 1,43,44
 365 493 365 493 365 519 c 0,45,46
 365 610 365 610 285 610 c 0,0,1
EndSplineSet
Validated: 1
Position2: "'cpsp' Capital Spacing lookup 3 subtable" dx=5 dy=0 dh=10 dv=0
EndChar

StartChar: Cacute
Encoding: 262 262 16
Width: 511
Flags: MW
LayerCount: 2
UndoRedoHistory
Layer: 0
Undoes
EndUndoes
Redoes
EndRedoes
EndUndoRedoHistory
UndoRedoHistory
Layer: 1
Undoes
EndUndoes
Redoes
EndRedoes
EndUndoRedoHistory
Fore
SplineSet
420 837 m 1,0,1
 449 816 449 816 449 786 c 0,2,3
 449 767 449 767 440 754 c 128,-1,4
 431 741 431 741 413 734.5 c 128,-1,5
 395 728 395 728 378.5 725 c 128,-1,6
 362 722 362 722 338 720 c 2,7,-1
 219 711 l 1,8,-1
 208 753 l 1,9,-1
 420 837 l 1,0,1
285 610 m 0,10,11
 261 610 261 610 242 600 c 128,-1,12
 223 590 223 590 210 575 c 128,-1,13
 197 560 197 560 187.5 536.5 c 128,-1,14
 178 513 178 513 173 490 c 128,-1,15
 168 467 168 467 165 437 c 128,-1,16
 162 407 162 407 161 384 c 128,-1,17
 160 361 160 361 160 332 c 0,18,19
 160 302 160 302 161 278.5 c 128,-1,20
 162 255 162 255 165.5 226.5 c 128,-1,21
 169 198 169 198 174.5 177 c 128,-1,22
 180 156 180 156 190.5 134.5 c 128,-1,23
 201 113 201 113 214.5 99.5 c 128,-1,24
 228 86 228 86 248.5 78 c 128,-1,25
 269 70 269 70 295 70 c 0,26,27
 347 70 347 70 384 99 c 128,-1,28
 421 128 421 128 437 179 c 1,29,30
 476 167 476 167 476 120 c 0,31,32
 476 75 476 75 447.5 42 c 128,-1,33
 419 9 419 9 376.5 -6.5 c 128,-1,34
 334 -22 334 -22 285 -22 c 0,35,36
 34 -22 34 -22 34 327 c 0,37,38
 34 387 34 387 42 438.5 c 128,-1,39
 50 490 50 490 69.5 535 c 128,-1,40
 89 580 89 580 118 612 c 128,-1,41
 147 644 147 644 192 662 c 128,-1,42
 237 680 237 680 294 680 c 0,43,44
 336 680 336 680 370 672.5 c 128,-1,45
 404 665 404 665 431 648 c 128,-1,46
 458 631 458 631 472.5 602 c 128,-1,47
 487 573 487 573 487 534 c 0,48,49
 487 498 487 498 465.5 475.5 c 128,-1,50
 444 453 444 453 409 453 c 0,51,52
 374 453 374 453 357 469 c 1,53,54
 365 493 365 493 365 519 c 0,55,56
 365 610 365 610 285 610 c 0,10,11
EndSplineSet
Validated: 1
Substitution2: "'locl' Localized Forms in Latin lookup 13 subtable" Cacute.loclPLK
Substitution2: "'aalt' Access All Alternates lookup 0 subtable" Cacute.loclPLK
Position2: "'cpsp' Capital Spacing lookup 3 subtable" dx=5 dy=0 dh=10 dv=0
EndChar

StartChar: Ccaron
Encoding: 268 268 17
Width: 511
Flags: MW
LayerCount: 2
UndoRedoHistory
Layer: 0
Undoes
EndUndoes
Redoes
EndRedoes
EndUndoRedoHistory
UndoRedoHistory
Layer: 1
Undoes
EndUndoes
Redoes
EndRedoes
EndUndoRedoHistory
Fore
SplineSet
431 799 m 1,0,-1
 286 687 l 1,1,-1
 283 687 l 1,2,-1
 134 799 l 1,3,-1
 163 834 l 1,4,-1
 283 771 l 1,5,-1
 402 834 l 1,6,-1
 431 799 l 1,0,-1
285 610 m 0,7,8
 261 610 261 610 242 600 c 128,-1,9
 223 590 223 590 210 575 c 128,-1,10
 197 560 197 560 187.5 536.5 c 128,-1,11
 178 513 178 513 173 490 c 128,-1,12
 168 467 168 467 165 437 c 128,-1,13
 162 407 162 407 161 384 c 128,-1,14
 160 361 160 361 160 332 c 0,15,16
 160 302 160 302 161 278.5 c 128,-1,17
 162 255 162 255 165.5 226.5 c 128,-1,18
 169 198 169 198 174.5 177 c 128,-1,19
 180 156 180 156 190.5 134.5 c 128,-1,20
 201 113 201 113 214.5 99.5 c 128,-1,21
 228 86 228 86 248.5 78 c 128,-1,22
 269 70 269 70 295 70 c 0,23,24
 347 70 347 70 384 99 c 128,-1,25
 421 128 421 128 437 179 c 1,26,27
 476 167 476 167 476 120 c 0,28,29
 476 75 476 75 447.5 42 c 128,-1,30
 419 9 419 9 376.5 -6.5 c 128,-1,31
 334 -22 334 -22 285 -22 c 0,32,33
 34 -22 34 -22 34 327 c 0,34,35
 34 387 34 387 42 438.5 c 128,-1,36
 50 490 50 490 69.5 535 c 128,-1,37
 89 580 89 580 118 612 c 128,-1,38
 147 644 147 644 192 662 c 128,-1,39
 237 680 237 680 294 680 c 0,40,41
 336 680 336 680 370 672.5 c 128,-1,42
 404 665 404 665 431 648 c 128,-1,43
 458 631 458 631 472.5 602 c 128,-1,44
 487 573 487 573 487 534 c 0,45,46
 487 498 487 498 465.5 475.5 c 128,-1,47
 444 453 444 453 409 453 c 0,48,49
 374 453 374 453 357 469 c 1,50,51
 365 493 365 493 365 519 c 0,52,53
 365 610 365 610 285 610 c 0,7,8
EndSplineSet
Validated: 1
Position2: "'cpsp' Capital Spacing lookup 3 subtable" dx=5 dy=0 dh=10 dv=0
EndChar

StartChar: Ccedilla
Encoding: 199 199 18
Width: 511
Flags: MW
LayerCount: 2
UndoRedoHistory
Layer: 0
Undoes
EndUndoes
Redoes
EndRedoes
EndUndoRedoHistory
UndoRedoHistory
Layer: 1
Undoes
EndUndoes
Redoes
EndRedoes
EndUndoRedoHistory
Fore
SplineSet
241 -19 m 1,0,1
 34 10 34 10 34 327 c 0,2,3
 34 387 34 387 42 438.5 c 128,-1,4
 50 490 50 490 69.5 535 c 128,-1,5
 89 580 89 580 118 612 c 128,-1,6
 147 644 147 644 192 662 c 128,-1,7
 237 680 237 680 294 680 c 0,8,9
 336 680 336 680 370 672.5 c 128,-1,10
 404 665 404 665 431 648 c 128,-1,11
 458 631 458 631 472.5 602 c 128,-1,12
 487 573 487 573 487 534 c 0,13,14
 487 498 487 498 465.5 475.5 c 128,-1,15
 444 453 444 453 409 453 c 0,16,17
 374 453 374 453 357 469 c 1,18,19
 365 493 365 493 365 519 c 0,20,21
 365 610 365 610 285 610 c 0,22,23
 261 610 261 610 242 600 c 128,-1,24
 223 590 223 590 210 575 c 128,-1,25
 197 560 197 560 187.5 536.5 c 128,-1,26
 178 513 178 513 173 490 c 128,-1,27
 168 467 168 467 165 437 c 128,-1,28
 162 407 162 407 161 384 c 128,-1,29
 160 361 160 361 160 332 c 0,30,31
 160 302 160 302 161 278.5 c 128,-1,32
 162 255 162 255 165.5 226.5 c 128,-1,33
 169 198 169 198 174.5 177 c 128,-1,34
 180 156 180 156 190.5 134.5 c 128,-1,35
 201 113 201 113 214.5 99.5 c 128,-1,36
 228 86 228 86 248.5 78 c 128,-1,37
 269 70 269 70 295 70 c 0,38,39
 347 70 347 70 384 99 c 128,-1,40
 421 128 421 128 437 179 c 1,41,42
 476 167 476 167 476 120 c 0,43,44
 476 75 476 75 447.5 42 c 128,-1,45
 419 9 419 9 377 -6.5 c 128,-1,46
 335 -22 335 -22 286 -22 c 1,47,-1
 270 -65 l 1,48,49
 279 -64 279 -64 298 -64 c 0,50,51
 349 -64 349 -64 379 -86.5 c 128,-1,52
 409 -109 409 -109 409 -154 c 0,53,54
 409 -198 409 -198 370 -225.5 c 128,-1,55
 331 -253 331 -253 278 -253 c 0,56,57
 255 -253 255 -253 234.5 -248 c 128,-1,58
 214 -243 214 -243 198.5 -229.5 c 128,-1,59
 183 -216 183 -216 183 -197 c 0,60,61
 183 -180 183 -180 193 -172 c 1,62,63
 218 -200 218 -200 263 -200 c 0,64,65
 291 -200 291 -200 309.5 -190 c 128,-1,66
 328 -180 328 -180 328 -157 c 0,67,68
 328 -111 328 -111 247 -111 c 0,69,70
 225 -111 225 -111 205 -114 c 1,71,-1
 241 -19 l 1,0,1
EndSplineSet
Validated: 1
Position2: "'cpsp' Capital Spacing lookup 3 subtable" dx=5 dy=0 dh=10 dv=0
EndChar

StartChar: Ccircumflex
Encoding: 264 264 19
Width: 511
Flags: MW
LayerCount: 2
UndoRedoHistory
Layer: 0
Undoes
EndUndoes
Redoes
EndRedoes
EndUndoRedoHistory
UndoRedoHistory
Layer: 1
Undoes
EndUndoes
Redoes
EndRedoes
EndUndoRedoHistory
Fore
SplineSet
137 704 m 1,0,-1
 282 836 l 1,1,-1
 286 836 l 1,2,-1
 435 704 l 1,3,-1
 405 669 l 1,4,-1
 285 742 l 1,5,-1
 166 669 l 1,6,-1
 137 704 l 1,0,-1
285 610 m 0,7,8
 261 610 261 610 242 600 c 128,-1,9
 223 590 223 590 210 575 c 128,-1,10
 197 560 197 560 187.5 536.5 c 128,-1,11
 178 513 178 513 173 490 c 128,-1,12
 168 467 168 467 165 437 c 128,-1,13
 162 407 162 407 161 384 c 128,-1,14
 160 361 160 361 160 332 c 0,15,16
 160 302 160 302 161 278.5 c 128,-1,17
 162 255 162 255 165.5 226.5 c 128,-1,18
 169 198 169 198 174.5 177 c 128,-1,19
 180 156 180 156 190.5 134.5 c 128,-1,20
 201 113 201 113 214.5 99.5 c 128,-1,21
 228 86 228 86 248.5 78 c 128,-1,22
 269 70 269 70 295 70 c 0,23,24
 347 70 347 70 384 99 c 128,-1,25
 421 128 421 128 437 179 c 1,26,27
 476 167 476 167 476 120 c 0,28,29
 476 75 476 75 447.5 42 c 128,-1,30
 419 9 419 9 376.5 -6.5 c 128,-1,31
 334 -22 334 -22 285 -22 c 0,32,33
 34 -22 34 -22 34 327 c 0,34,35
 34 387 34 387 42 438.5 c 128,-1,36
 50 490 50 490 69.5 535 c 128,-1,37
 89 580 89 580 118 612 c 128,-1,38
 147 644 147 644 192 662 c 128,-1,39
 237 680 237 680 294 680 c 0,40,41
 336 680 336 680 370 672.5 c 128,-1,42
 404 665 404 665 431 648 c 128,-1,43
 458 631 458 631 472.5 602 c 128,-1,44
 487 573 487 573 487 534 c 0,45,46
 487 498 487 498 465.5 475.5 c 128,-1,47
 444 453 444 453 409 453 c 0,48,49
 374 453 374 453 357 469 c 1,50,51
 365 493 365 493 365 519 c 0,52,53
 365 610 365 610 285 610 c 0,7,8
EndSplineSet
Validated: 1
Position2: "'cpsp' Capital Spacing lookup 3 subtable" dx=5 dy=0 dh=10 dv=0
EndChar

StartChar: Cdotaccent
Encoding: 266 266 20
Width: 511
Flags: MW
LayerCount: 2
UndoRedoHistory
Layer: 0
Undoes
EndUndoes
Redoes
EndRedoes
EndUndoRedoHistory
UndoRedoHistory
Layer: 1
Undoes
EndUndoes
Redoes
EndRedoes
EndUndoRedoHistory
Fore
SplineSet
288 850 m 128,-1,1
 321 850 321 850 341.5 834 c 128,-1,2
 362 818 362 818 362 788 c 0,3,4
 362 757 362 757 340.5 740.5 c 128,-1,5
 319 724 319 724 285 724 c 0,6,7
 252 724 252 724 232 740 c 128,-1,8
 212 756 212 756 212 786 c 0,9,10
 212 817 212 817 233.5 833.5 c 128,-1,0
 255 850 255 850 288 850 c 128,-1,1
285 610 m 0,11,12
 261 610 261 610 242 600 c 128,-1,13
 223 590 223 590 210 575 c 128,-1,14
 197 560 197 560 187.5 536.5 c 128,-1,15
 178 513 178 513 173 490 c 128,-1,16
 168 467 168 467 165 437 c 128,-1,17
 162 407 162 407 161 384 c 128,-1,18
 160 361 160 361 160 332 c 0,19,20
 160 302 160 302 161 278.5 c 128,-1,21
 162 255 162 255 165.5 226.5 c 128,-1,22
 169 198 169 198 174.5 177 c 128,-1,23
 180 156 180 156 190.5 134.5 c 128,-1,24
 201 113 201 113 214.5 99.5 c 128,-1,25
 228 86 228 86 248.5 78 c 128,-1,26
 269 70 269 70 295 70 c 0,27,28
 347 70 347 70 384 99 c 128,-1,29
 421 128 421 128 437 179 c 1,30,31
 476 167 476 167 476 120 c 0,32,33
 476 75 476 75 447.5 42 c 128,-1,34
 419 9 419 9 376.5 -6.5 c 128,-1,35
 334 -22 334 -22 285 -22 c 0,36,37
 34 -22 34 -22 34 327 c 0,38,39
 34 387 34 387 42 438.5 c 128,-1,40
 50 490 50 490 69.5 535 c 128,-1,41
 89 580 89 580 118 612 c 128,-1,42
 147 644 147 644 192 662 c 128,-1,43
 237 680 237 680 294 680 c 0,44,45
 336 680 336 680 370 672.5 c 128,-1,46
 404 665 404 665 431 648 c 128,-1,47
 458 631 458 631 472.5 602 c 128,-1,48
 487 573 487 573 487 534 c 0,49,50
 487 498 487 498 465.5 475.5 c 128,-1,51
 444 453 444 453 409 453 c 0,52,53
 374 453 374 453 357 469 c 1,54,55
 365 493 365 493 365 519 c 0,56,57
 365 610 365 610 285 610 c 0,11,12
EndSplineSet
Validated: 1
Position2: "'cpsp' Capital Spacing lookup 3 subtable" dx=5 dy=0 dh=10 dv=0
EndChar

StartChar: D
Encoding: 68 68 21
Width: 563
Flags: MW
LayerCount: 2
UndoRedoHistory
Layer: 0
Undoes
EndUndoes
Redoes
EndRedoes
EndUndoRedoHistory
UndoRedoHistory
Layer: 1
Undoes
EndUndoes
Redoes
EndRedoes
EndUndoRedoHistory
Fore
SplineSet
60 656 m 1,0,1
 185 664 185 664 268 664 c 0,2,3
 530 664 530 664 530 346 c 0,4,5
 530 -10 530 -10 244 -10 c 0,6,7
 160 -10 160 -10 60 5 c 1,8,-1
 60 656 l 1,0,1
177 66 m 1,9,10
 213 60 213 60 244 60 c 128,-1,11
 275 60 275 60 299.5 67.5 c 128,-1,12
 324 75 324 75 341 87.5 c 128,-1,13
 358 100 358 100 370.5 120.5 c 128,-1,14
 383 141 383 141 390 162.5 c 128,-1,15
 397 184 397 184 401.5 213.5 c 128,-1,16
 406 243 406 243 407 269.5 c 128,-1,17
 408 296 408 296 408 332 c 0,18,19
 408 374 408 374 405 408 c 128,-1,20
 402 442 402 442 392.5 478 c 128,-1,21
 383 514 383 514 367.5 538.5 c 128,-1,22
 352 563 352 563 324.5 578.5 c 128,-1,23
 297 594 297 594 261 594 c 0,24,25
 227 594 227 594 177 589 c 1,26,-1
 177 66 l 1,9,10
EndSplineSet
Validated: 1
Position2: "'cpsp' Capital Spacing lookup 3 subtable" dx=5 dy=0 dh=10 dv=0
EndChar

StartChar: DZ
Encoding: 497 497 22
Width: 983
Flags: MW
LayerCount: 2
UndoRedoHistory
Layer: 0
Undoes
EndUndoes
Redoes
EndRedoes
EndUndoRedoHistory
UndoRedoHistory
Layer: 1
Undoes
EndUndoes
Redoes
EndRedoes
EndUndoRedoHistory
Fore
SplineSet
60 656 m 1,0,1
 185 664 185 664 268 664 c 0,2,3
 530 664 530 664 530 346 c 0,4,5
 530 -10 530 -10 244 -10 c 0,6,7
 160 -10 160 -10 60 5 c 1,8,-1
 60 656 l 1,0,1
971 587 m 1,9,-1
 693 74 l 1,10,-1
 980 74 l 1,11,-1
 973 0 l 1,12,-1
 575 0 l 1,13,-1
 568 73 l 1,14,-1
 846 586 l 1,15,-1
 586 586 l 1,16,-1
 593 660 l 1,17,-1
 964 660 l 1,18,-1
 971 587 l 1,9,-1
177 66 m 1,19,20
 213 60 213 60 244 60 c 128,-1,21
 275 60 275 60 299.5 67.5 c 128,-1,22
 324 75 324 75 341 87.5 c 128,-1,23
 358 100 358 100 370.5 120.5 c 128,-1,24
 383 141 383 141 390 162.5 c 128,-1,25
 397 184 397 184 401.5 213.5 c 128,-1,26
 406 243 406 243 407 269.5 c 128,-1,27
 408 296 408 296 408 332 c 0,28,29
 408 374 408 374 405 408 c 128,-1,30
 402 442 402 442 392.5 478 c 128,-1,31
 383 514 383 514 367.5 538.5 c 128,-1,32
 352 563 352 563 324.5 578.5 c 128,-1,33
 297 594 297 594 261 594 c 0,34,35
 227 594 227 594 177 589 c 1,36,-1
 177 66 l 1,19,20
EndSplineSet
Validated: 1
Position2: "'cpsp' Capital Spacing lookup 3 subtable" dx=5 dy=0 dh=10 dv=0
EndChar

StartChar: DZcaron
Encoding: 452 452 23
Width: 983
Flags: MW
LayerCount: 2
UndoRedoHistory
Layer: 0
Undoes
EndUndoes
Redoes
EndRedoes
EndUndoRedoHistory
UndoRedoHistory
Layer: 1
Undoes
EndUndoes
Redoes
EndRedoes
EndUndoRedoHistory
Fore
SplineSet
923 800 m 1,0,-1
 778 688 l 1,1,-1
 775 688 l 1,2,-1
 626 800 l 1,3,-1
 655 835 l 1,4,-1
 775 772 l 1,5,-1
 894 835 l 1,6,-1
 923 800 l 1,0,-1
60 656 m 1,7,8
 185 664 185 664 268 664 c 0,9,10
 530 664 530 664 530 346 c 0,11,12
 530 -10 530 -10 244 -10 c 0,13,14
 160 -10 160 -10 60 5 c 1,15,-1
 60 656 l 1,7,8
971 587 m 1,16,-1
 693 74 l 1,17,-1
 980 74 l 1,18,-1
 973 0 l 1,19,-1
 575 0 l 1,20,-1
 568 73 l 1,21,-1
 846 586 l 1,22,-1
 586 586 l 1,23,-1
 593 660 l 1,24,-1
 964 660 l 1,25,-1
 971 587 l 1,16,-1
177 66 m 1,26,27
 213 60 213 60 244 60 c 128,-1,28
 275 60 275 60 299.5 67.5 c 128,-1,29
 324 75 324 75 341 87.5 c 128,-1,30
 358 100 358 100 370.5 120.5 c 128,-1,31
 383 141 383 141 390 162.5 c 128,-1,32
 397 184 397 184 401.5 213.5 c 128,-1,33
 406 243 406 243 407 269.5 c 128,-1,34
 408 296 408 296 408 332 c 0,35,36
 408 374 408 374 405 408 c 128,-1,37
 402 442 402 442 392.5 478 c 128,-1,38
 383 514 383 514 367.5 538.5 c 128,-1,39
 352 563 352 563 324.5 578.5 c 128,-1,40
 297 594 297 594 261 594 c 0,41,42
 227 594 227 594 177 589 c 1,43,-1
 177 66 l 1,26,27
EndSplineSet
Validated: 1
Position2: "'cpsp' Capital Spacing lookup 3 subtable" dx=5 dy=0 dh=10 dv=0
EndChar

StartChar: Eth
Encoding: 208 208 24
Width: 573
Flags: MW
LayerCount: 2
UndoRedoHistory
Layer: 0
Undoes
EndUndoes
Redoes
EndRedoes
EndUndoRedoHistory
UndoRedoHistory
Layer: 1
Undoes
EndUndoes
Redoes
EndRedoes
EndUndoRedoHistory
Fore
SplineSet
70 656 m 1,0,1
 195 664 195 664 278 664 c 0,2,3
 540 664 540 664 540 346 c 0,4,5
 540 -10 540 -10 254 -10 c 0,6,7
 170 -10 170 -10 70 5 c 1,8,-1
 70 297 l 1,9,-1
 -6 297 l 1,10,11
 -14 311 -14 311 -14 334 c 0,12,13
 -14 377 -14 377 39 377 c 2,14,-1
 70 377 l 1,15,-1
 70 656 l 1,0,1
187 66 m 1,16,17
 223 60 223 60 254 60 c 128,-1,18
 285 60 285 60 309.5 67.5 c 128,-1,19
 334 75 334 75 351 87.5 c 128,-1,20
 368 100 368 100 380.5 120.5 c 128,-1,21
 393 141 393 141 400 162.5 c 128,-1,22
 407 184 407 184 411.5 213.5 c 128,-1,23
 416 243 416 243 417 269.5 c 128,-1,24
 418 296 418 296 418 332 c 0,25,26
 418 374 418 374 415 408 c 128,-1,27
 412 442 412 442 402.5 478 c 128,-1,28
 393 514 393 514 377 538.5 c 128,-1,29
 361 563 361 563 334 578.5 c 128,-1,30
 307 594 307 594 271 594 c 0,31,32
 238 594 238 594 187 589 c 1,33,-1
 187 377 l 1,34,-1
 320 377 l 1,35,36
 328 363 328 363 328 340 c 0,37,38
 328 297 328 297 275 297 c 2,39,-1
 187 297 l 1,40,-1
 187 66 l 1,16,17
EndSplineSet
Validated: 1
Position2: "'cpsp' Capital Spacing lookup 3 subtable" dx=5 dy=0 dh=10 dv=0
EndChar

StartChar: Dcaron
Encoding: 270 270 25
Width: 563
Flags: MW
LayerCount: 2
UndoRedoHistory
Layer: 0
Undoes
EndUndoes
Redoes
EndRedoes
EndUndoRedoHistory
UndoRedoHistory
Layer: 1
Undoes
EndUndoes
Redoes
EndRedoes
EndUndoRedoHistory
Fore
SplineSet
414 799 m 1,0,-1
 269 687 l 1,1,-1
 266 687 l 1,2,-1
 117 799 l 1,3,-1
 146 834 l 1,4,-1
 266 771 l 1,5,-1
 385 834 l 1,6,-1
 414 799 l 1,0,-1
60 656 m 1,7,8
 185 664 185 664 268 664 c 0,9,10
 530 664 530 664 530 346 c 0,11,12
 530 -10 530 -10 244 -10 c 0,13,14
 160 -10 160 -10 60 5 c 1,15,-1
 60 656 l 1,7,8
177 66 m 1,16,17
 213 60 213 60 244 60 c 128,-1,18
 275 60 275 60 299.5 67.5 c 128,-1,19
 324 75 324 75 341 87.5 c 128,-1,20
 358 100 358 100 370.5 120.5 c 128,-1,21
 383 141 383 141 390 162.5 c 128,-1,22
 397 184 397 184 401.5 213.5 c 128,-1,23
 406 243 406 243 407 269.5 c 128,-1,24
 408 296 408 296 408 332 c 0,25,26
 408 374 408 374 405 408 c 128,-1,27
 402 442 402 442 392.5 478 c 128,-1,28
 383 514 383 514 367.5 538.5 c 128,-1,29
 352 563 352 563 324.5 578.5 c 128,-1,30
 297 594 297 594 261 594 c 0,31,32
 227 594 227 594 177 589 c 1,33,-1
 177 66 l 1,16,17
EndSplineSet
Validated: 1
Position2: "'cpsp' Capital Spacing lookup 3 subtable" dx=5 dy=0 dh=10 dv=0
EndChar

StartChar: Dcroat
Encoding: 272 272 26
Width: 573
Flags: MW
LayerCount: 2
UndoRedoHistory
Layer: 0
Undoes
EndUndoes
Redoes
EndRedoes
EndUndoRedoHistory
UndoRedoHistory
Layer: 1
Undoes
EndUndoes
Redoes
EndRedoes
EndUndoRedoHistory
Fore
SplineSet
70 656 m 1,0,1
 195 664 195 664 278 664 c 0,2,3
 540 664 540 664 540 346 c 0,4,5
 540 -10 540 -10 254 -10 c 0,6,7
 170 -10 170 -10 70 5 c 1,8,-1
 70 297 l 1,9,-1
 -6 297 l 1,10,11
 -14 311 -14 311 -14 334 c 0,12,13
 -14 377 -14 377 39 377 c 2,14,-1
 70 377 l 1,15,-1
 70 656 l 1,0,1
187 66 m 1,16,17
 223 60 223 60 254 60 c 128,-1,18
 285 60 285 60 309.5 67.5 c 128,-1,19
 334 75 334 75 351 87.5 c 128,-1,20
 368 100 368 100 380.5 120.5 c 128,-1,21
 393 141 393 141 400 162.5 c 128,-1,22
 407 184 407 184 411.5 213.5 c 128,-1,23
 416 243 416 243 417 269.5 c 128,-1,24
 418 296 418 296 418 332 c 0,25,26
 418 374 418 374 415 408 c 128,-1,27
 412 442 412 442 402.5 478 c 128,-1,28
 393 514 393 514 377 538.5 c 128,-1,29
 361 563 361 563 334 578.5 c 128,-1,30
 307 594 307 594 271 594 c 0,31,32
 238 594 238 594 187 589 c 1,33,-1
 187 377 l 1,34,-1
 320 377 l 1,35,36
 328 363 328 363 328 340 c 0,37,38
 328 297 328 297 275 297 c 2,39,-1
 187 297 l 1,40,-1
 187 66 l 1,16,17
EndSplineSet
Validated: 1
Position2: "'cpsp' Capital Spacing lookup 3 subtable" dx=5 dy=0 dh=10 dv=0
EndChar

StartChar: Ddotbelow
Encoding: 7692 7692 27
Width: 563
Flags: MW
LayerCount: 2
UndoRedoHistory
Layer: 0
Undoes
EndUndoes
Redoes
EndRedoes
EndUndoRedoHistory
UndoRedoHistory
Layer: 1
Undoes
EndUndoes
Redoes
EndRedoes
EndUndoRedoHistory
Fore
SplineSet
60 656 m 1,0,1
 185 664 185 664 268 664 c 0,2,3
 530 664 530 664 530 346 c 0,4,5
 530 -10 530 -10 244 -10 c 0,6,7
 160 -10 160 -10 60 5 c 1,8,-1
 60 656 l 1,0,1
177 66 m 1,9,10
 213 60 213 60 244 60 c 128,-1,11
 275 60 275 60 299.5 67.5 c 128,-1,12
 324 75 324 75 341 87.5 c 128,-1,13
 358 100 358 100 370.5 120.5 c 128,-1,14
 383 141 383 141 390 162.5 c 128,-1,15
 397 184 397 184 401.5 213.5 c 128,-1,16
 406 243 406 243 407 269.5 c 128,-1,17
 408 296 408 296 408 332 c 0,18,19
 408 374 408 374 405 408 c 128,-1,20
 402 442 402 442 392.5 478 c 128,-1,21
 383 514 383 514 367.5 538.5 c 128,-1,22
 352 563 352 563 324.5 578.5 c 128,-1,23
 297 594 297 594 261 594 c 0,24,25
 227 594 227 594 177 589 c 1,26,-1
 177 66 l 1,9,10
267 -54 m 128,-1,28
 300 -54 300 -54 320.5 -70 c 128,-1,29
 341 -86 341 -86 341 -116 c 0,30,31
 341 -147 341 -147 319.5 -163.5 c 128,-1,32
 298 -180 298 -180 264 -180 c 0,33,34
 231 -180 231 -180 211 -164 c 128,-1,35
 191 -148 191 -148 191 -118 c 0,36,37
 191 -87 191 -87 212.5 -70.5 c 128,-1,27
 234 -54 234 -54 267 -54 c 128,-1,28
EndSplineSet
Validated: 1
Position2: "'cpsp' Capital Spacing lookup 3 subtable" dx=5 dy=0 dh=10 dv=0
EndChar

StartChar: Dz
Encoding: 498 498 28
Width: 943
Flags: MW
LayerCount: 2
UndoRedoHistory
Layer: 0
Undoes
EndUndoes
Redoes
EndRedoes
EndUndoRedoHistory
UndoRedoHistory
Layer: 1
Undoes
EndUndoes
Redoes
EndRedoes
EndUndoRedoHistory
Fore
SplineSet
60 656 m 1,0,1
 185 664 185 664 268 664 c 0,2,3
 530 664 530 664 530 346 c 0,4,5
 530 -10 530 -10 244 -10 c 0,6,7
 160 -10 160 -10 60 5 c 1,8,-1
 60 656 l 1,0,1
177 66 m 1,9,10
 213 60 213 60 244 60 c 128,-1,11
 275 60 275 60 299.5 67.5 c 128,-1,12
 324 75 324 75 341 87.5 c 128,-1,13
 358 100 358 100 370.5 120.5 c 128,-1,14
 383 141 383 141 390 162.5 c 128,-1,15
 397 184 397 184 401.5 213.5 c 128,-1,16
 406 243 406 243 407 269.5 c 128,-1,17
 408 296 408 296 408 332 c 0,18,19
 408 374 408 374 405 408 c 128,-1,20
 402 442 402 442 392.5 478 c 128,-1,21
 383 514 383 514 367.5 538.5 c 128,-1,22
 352 563 352 563 324.5 578.5 c 128,-1,23
 297 594 297 594 261 594 c 0,24,25
 227 594 227 594 177 589 c 1,26,-1
 177 66 l 1,9,10
927 451 m 1,27,-1
 693 67 l 1,28,-1
 934 75 l 1,29,-1
 927 0 l 1,30,-1
 581 0 l 1,31,-1
 574 61 l 1,32,-1
 805 442 l 1,33,-1
 583 429 l 1,34,-1
 591 510 l 1,35,-1
 920 510 l 1,36,-1
 927 451 l 1,27,-1
EndSplineSet
Validated: 1
Position2: "'cpsp' Capital Spacing lookup 3 subtable" dx=5 dy=0 dh=10 dv=0
EndChar

StartChar: Dzcaron
Encoding: 453 453 29
Width: 943
Flags: MW
LayerCount: 2
UndoRedoHistory
Layer: 0
Undoes
EndUndoes
Redoes
EndRedoes
EndUndoRedoHistory
UndoRedoHistory
Layer: 1
Undoes
EndUndoes
Redoes
EndRedoes
EndUndoRedoHistory
Fore
SplineSet
899 669 m 1,0,-1
 754 557 l 1,1,-1
 751 557 l 1,2,-1
 602 669 l 1,3,-1
 631 704 l 1,4,-1
 751 641 l 1,5,-1
 870 704 l 1,6,-1
 899 669 l 1,0,-1
60 656 m 1,7,8
 185 664 185 664 268 664 c 0,9,10
 530 664 530 664 530 346 c 0,11,12
 530 -10 530 -10 244 -10 c 0,13,14
 160 -10 160 -10 60 5 c 1,15,-1
 60 656 l 1,7,8
177 66 m 1,16,17
 213 60 213 60 244 60 c 128,-1,18
 275 60 275 60 299.5 67.5 c 128,-1,19
 324 75 324 75 341 87.5 c 128,-1,20
 358 100 358 100 370.5 120.5 c 128,-1,21
 383 141 383 141 390 162.5 c 128,-1,22
 397 184 397 184 401.5 213.5 c 128,-1,23
 406 243 406 243 407 269.5 c 128,-1,24
 408 296 408 296 408 332 c 0,25,26
 408 374 408 374 405 408 c 128,-1,27
 402 442 402 442 392.5 478 c 128,-1,28
 383 514 383 514 367.5 538.5 c 128,-1,29
 352 563 352 563 324.5 578.5 c 128,-1,30
 297 594 297 594 261 594 c 0,31,32
 227 594 227 594 177 589 c 1,33,-1
 177 66 l 1,16,17
927 451 m 1,34,-1
 693 67 l 1,35,-1
 934 75 l 1,36,-1
 927 0 l 1,37,-1
 581 0 l 1,38,-1
 574 61 l 1,39,-1
 805 442 l 1,40,-1
 583 429 l 1,41,-1
 591 510 l 1,42,-1
 920 510 l 1,43,-1
 927 451 l 1,34,-1
EndSplineSet
Validated: 1
Position2: "'cpsp' Capital Spacing lookup 3 subtable" dx=5 dy=0 dh=10 dv=0
EndChar

StartChar: E
Encoding: 69 69 30
Width: 437
Flags: MW
LayerCount: 2
UndoRedoHistory
Layer: 0
Undoes
EndUndoes
Redoes
EndRedoes
EndUndoRedoHistory
UndoRedoHistory
Layer: 1
Undoes
EndUndoes
Redoes
EndRedoes
EndUndoRedoHistory
Fore
SplineSet
395 586 m 1,0,-1
 177 586 l 1,1,-1
 177 376 l 1,2,-1
 365 376 l 1,3,-1
 365 302 l 1,4,-1
 177 302 l 1,5,-1
 177 74 l 1,6,-1
 409 74 l 1,7,-1
 402 0 l 1,8,-1
 60 0 l 1,9,-1
 60 660 l 1,10,-1
 395 660 l 1,11,-1
 395 586 l 1,0,-1
EndSplineSet
Validated: 1
Position2: "'cpsp' Capital Spacing lookup 3 subtable" dx=5 dy=0 dh=10 dv=0
EndChar

StartChar: Eacute
Encoding: 201 201 31
Width: 437
Flags: MW
LayerCount: 2
UndoRedoHistory
Layer: 0
Undoes
EndUndoes
Redoes
EndRedoes
EndUndoRedoHistory
UndoRedoHistory
Layer: 1
Undoes
EndUndoes
Redoes
EndRedoes
EndUndoRedoHistory
Fore
SplineSet
363 837 m 1,0,1
 392 816 392 816 392 786 c 0,2,3
 392 767 392 767 383 754 c 128,-1,4
 374 741 374 741 356 734.5 c 128,-1,5
 338 728 338 728 321.5 725 c 128,-1,6
 305 722 305 722 281 720 c 2,7,-1
 162 711 l 1,8,-1
 151 753 l 1,9,-1
 363 837 l 1,0,1
177 586 m 1,10,-1
 177 376 l 1,11,-1
 365 376 l 1,12,-1
 365 302 l 1,13,-1
 177 302 l 1,14,-1
 177 74 l 1,15,-1
 409 74 l 1,16,-1
 402 0 l 1,17,-1
 60 0 l 1,18,-1
 60 660 l 1,19,-1
 395 660 l 1,20,-1
 395 586 l 1,21,-1
 177 586 l 1,10,-1
EndSplineSet
Validated: 1
Position2: "'cpsp' Capital Spacing lookup 3 subtable" dx=5 dy=0 dh=10 dv=0
EndChar

StartChar: Ebreve
Encoding: 276 276 32
Width: 437
Flags: MW
LayerCount: 2
UndoRedoHistory
Layer: 0
Undoes
EndUndoes
Redoes
EndRedoes
EndUndoRedoHistory
UndoRedoHistory
Layer: 1
Undoes
EndUndoes
Redoes
EndRedoes
EndUndoRedoHistory
Fore
SplineSet
378 823 m 1,0,1
 378 758 378 758 336.5 721.5 c 128,-1,2
 295 685 295 685 227 685 c 128,-1,3
 159 685 159 685 118 721.5 c 128,-1,4
 77 758 77 758 77 823 c 1,5,-1
 168 823 l 1,6,7
 168 737 168 737 227 737 c 128,-1,8
 286 737 286 737 286 823 c 1,9,-1
 378 823 l 1,0,1
177 586 m 1,10,-1
 177 376 l 1,11,-1
 365 376 l 1,12,-1
 365 302 l 1,13,-1
 177 302 l 1,14,-1
 177 74 l 1,15,-1
 409 74 l 1,16,-1
 402 0 l 1,17,-1
 60 0 l 1,18,-1
 60 660 l 1,19,-1
 395 660 l 1,20,-1
 395 586 l 1,21,-1
 177 586 l 1,10,-1
EndSplineSet
Validated: 1
Position2: "'cpsp' Capital Spacing lookup 3 subtable" dx=5 dy=0 dh=10 dv=0
EndChar

StartChar: Ecaron
Encoding: 282 282 33
Width: 437
Flags: MW
LayerCount: 2
UndoRedoHistory
Layer: 0
Undoes
EndUndoes
Redoes
EndRedoes
EndUndoRedoHistory
UndoRedoHistory
Layer: 1
Undoes
EndUndoes
Redoes
EndRedoes
EndUndoRedoHistory
Fore
SplineSet
374 799 m 1,0,-1
 229 687 l 1,1,-1
 226 687 l 1,2,-1
 77 799 l 1,3,-1
 106 834 l 1,4,-1
 226 771 l 1,5,-1
 345 834 l 1,6,-1
 374 799 l 1,0,-1
177 586 m 1,7,-1
 177 376 l 1,8,-1
 365 376 l 1,9,-1
 365 302 l 1,10,-1
 177 302 l 1,11,-1
 177 74 l 1,12,-1
 409 74 l 1,13,-1
 402 0 l 1,14,-1
 60 0 l 1,15,-1
 60 660 l 1,16,-1
 395 660 l 1,17,-1
 395 586 l 1,18,-1
 177 586 l 1,7,-1
EndSplineSet
Validated: 1
Position2: "'cpsp' Capital Spacing lookup 3 subtable" dx=5 dy=0 dh=10 dv=0
EndChar

StartChar: Ecircumflex
Encoding: 202 202 34
Width: 437
Flags: MW
LayerCount: 2
UndoRedoHistory
Layer: 0
Undoes
EndUndoes
Redoes
EndRedoes
EndUndoRedoHistory
UndoRedoHistory
Layer: 1
Undoes
EndUndoes
Redoes
EndRedoes
EndUndoRedoHistory
Fore
SplineSet
80 704 m 1,0,-1
 225 836 l 1,1,-1
 229 836 l 1,2,-1
 378 704 l 1,3,-1
 348 669 l 1,4,-1
 228 742 l 1,5,-1
 109 669 l 1,6,-1
 80 704 l 1,0,-1
177 586 m 1,7,-1
 177 376 l 1,8,-1
 365 376 l 1,9,-1
 365 302 l 1,10,-1
 177 302 l 1,11,-1
 177 74 l 1,12,-1
 409 74 l 1,13,-1
 402 0 l 1,14,-1
 60 0 l 1,15,-1
 60 660 l 1,16,-1
 395 660 l 1,17,-1
 395 586 l 1,18,-1
 177 586 l 1,7,-1
EndSplineSet
Validated: 1
Position2: "'cpsp' Capital Spacing lookup 3 subtable" dx=5 dy=0 dh=10 dv=0
EndChar

StartChar: Edieresis
Encoding: 203 203 35
Width: 437
Flags: MW
LayerCount: 2
UndoRedoHistory
Layer: 0
Undoes
EndUndoes
Redoes
EndRedoes
EndUndoRedoHistory
UndoRedoHistory
Layer: 1
Undoes
EndUndoes
Redoes
EndRedoes
EndUndoRedoHistory
Fore
SplineSet
129 836 m 128,-1,1
 162 836 162 836 182.5 820 c 128,-1,2
 203 804 203 804 203 774 c 0,3,4
 203 743 203 743 181.5 726.5 c 128,-1,5
 160 710 160 710 126 710 c 0,6,7
 93 710 93 710 73 726 c 128,-1,8
 53 742 53 742 53 772 c 0,9,10
 53 803 53 803 74.5 819.5 c 128,-1,0
 96 836 96 836 129 836 c 128,-1,1
328 836 m 128,-1,12
 361 836 361 836 381.5 820 c 128,-1,13
 402 804 402 804 402 774 c 0,14,15
 402 743 402 743 380.5 726.5 c 128,-1,16
 359 710 359 710 325 710 c 0,17,18
 292 710 292 710 272 726 c 128,-1,19
 252 742 252 742 252 772 c 0,20,21
 252 803 252 803 273.5 819.5 c 128,-1,11
 295 836 295 836 328 836 c 128,-1,12
177 586 m 1,22,-1
 177 376 l 1,23,-1
 365 376 l 1,24,-1
 365 302 l 1,25,-1
 177 302 l 1,26,-1
 177 74 l 1,27,-1
 409 74 l 1,28,-1
 402 0 l 1,29,-1
 60 0 l 1,30,-1
 60 660 l 1,31,-1
 395 660 l 1,32,-1
 395 586 l 1,33,-1
 177 586 l 1,22,-1
EndSplineSet
Validated: 1
Position2: "'cpsp' Capital Spacing lookup 3 subtable" dx=5 dy=0 dh=10 dv=0
EndChar

StartChar: Edotaccent
Encoding: 278 278 36
Width: 437
Flags: MW
LayerCount: 2
UndoRedoHistory
Layer: 0
Undoes
EndUndoes
Redoes
EndRedoes
EndUndoRedoHistory
UndoRedoHistory
Layer: 1
Undoes
EndUndoes
Redoes
EndRedoes
EndUndoRedoHistory
Fore
SplineSet
235 836 m 128,-1,1
 268 836 268 836 288.5 820 c 128,-1,2
 309 804 309 804 309 774 c 0,3,4
 309 743 309 743 287.5 726.5 c 128,-1,5
 266 710 266 710 232 710 c 0,6,7
 199 710 199 710 179 726 c 128,-1,8
 159 742 159 742 159 772 c 0,9,10
 159 803 159 803 180.5 819.5 c 128,-1,0
 202 836 202 836 235 836 c 128,-1,1
177 586 m 1,11,-1
 177 376 l 1,12,-1
 365 376 l 1,13,-1
 365 302 l 1,14,-1
 177 302 l 1,15,-1
 177 74 l 1,16,-1
 409 74 l 1,17,-1
 402 0 l 1,18,-1
 60 0 l 1,19,-1
 60 660 l 1,20,-1
 395 660 l 1,21,-1
 395 586 l 1,22,-1
 177 586 l 1,11,-1
EndSplineSet
Validated: 1
Position2: "'cpsp' Capital Spacing lookup 3 subtable" dx=5 dy=0 dh=10 dv=0
EndChar

StartChar: Edotbelow
Encoding: 7864 7864 37
Width: 437
Flags: MW
LayerCount: 2
UndoRedoHistory
Layer: 0
Undoes
EndUndoes
Redoes
EndRedoes
EndUndoRedoHistory
UndoRedoHistory
Layer: 1
Undoes
EndUndoes
Redoes
EndRedoes
EndUndoRedoHistory
Fore
SplineSet
177 586 m 1,0,-1
 177 376 l 1,1,-1
 365 376 l 1,2,-1
 365 302 l 1,3,-1
 177 302 l 1,4,-1
 177 74 l 1,5,-1
 409 74 l 1,6,-1
 402 0 l 1,7,-1
 60 0 l 1,8,-1
 60 660 l 1,9,-1
 395 660 l 1,10,-1
 395 586 l 1,11,-1
 177 586 l 1,0,-1
206 -54 m 128,-1,13
 239 -54 239 -54 259.5 -70 c 128,-1,14
 280 -86 280 -86 280 -116 c 0,15,16
 280 -147 280 -147 258.5 -163.5 c 128,-1,17
 237 -180 237 -180 203 -180 c 0,18,19
 170 -180 170 -180 150 -164 c 128,-1,20
 130 -148 130 -148 130 -118 c 0,21,22
 130 -87 130 -87 151.5 -70.5 c 128,-1,12
 173 -54 173 -54 206 -54 c 128,-1,13
EndSplineSet
Validated: 1
Position2: "'cpsp' Capital Spacing lookup 3 subtable" dx=5 dy=0 dh=10 dv=0
EndChar

StartChar: Egrave
Encoding: 200 200 38
Width: 437
Flags: MW
LayerCount: 2
UndoRedoHistory
Layer: 0
Undoes
EndUndoes
Redoes
EndRedoes
EndUndoRedoHistory
UndoRedoHistory
Layer: 1
Undoes
EndUndoes
Redoes
EndRedoes
EndUndoRedoHistory
Fore
SplineSet
173 720 m 2,0,1
 149 722 149 722 132.5 725 c 128,-1,2
 116 728 116 728 98.5 734.5 c 128,-1,3
 81 741 81 741 72 754 c 128,-1,4
 63 767 63 767 63 786 c 0,5,6
 63 817 63 817 91 837 c 1,7,-1
 304 753 l 1,8,-1
 293 711 l 1,9,-1
 173 720 l 2,0,1
177 586 m 1,10,-1
 177 376 l 1,11,-1
 365 376 l 1,12,-1
 365 302 l 1,13,-1
 177 302 l 1,14,-1
 177 74 l 1,15,-1
 409 74 l 1,16,-1
 402 0 l 1,17,-1
 60 0 l 1,18,-1
 60 660 l 1,19,-1
 395 660 l 1,20,-1
 395 586 l 1,21,-1
 177 586 l 1,10,-1
EndSplineSet
Validated: 1
Position2: "'cpsp' Capital Spacing lookup 3 subtable" dx=5 dy=0 dh=10 dv=0
EndChar

StartChar: Emacron
Encoding: 274 274 39
Width: 437
Flags: MW
LayerCount: 2
UndoRedoHistory
Layer: 0
Undoes
EndUndoes
Redoes
EndRedoes
EndUndoRedoHistory
UndoRedoHistory
Layer: 1
Undoes
EndUndoes
Redoes
EndRedoes
EndUndoRedoHistory
Fore
SplineSet
367 778 m 1,0,1
 375 758 375 758 375 740 c 0,2,3
 375 719 375 719 360.5 707.5 c 128,-1,4
 346 696 346 696 317 696 c 2,5,-1
 107 696 l 1,6,7
 100 711 100 711 100 732 c 0,8,9
 100 753 100 753 113.5 765.5 c 128,-1,10
 127 778 127 778 151 778 c 2,11,-1
 367 778 l 1,0,1
177 586 m 1,12,-1
 177 376 l 1,13,-1
 365 376 l 1,14,-1
 365 302 l 1,15,-1
 177 302 l 1,16,-1
 177 74 l 1,17,-1
 409 74 l 1,18,-1
 402 0 l 1,19,-1
 60 0 l 1,20,-1
 60 660 l 1,21,-1
 395 660 l 1,22,-1
 395 586 l 1,23,-1
 177 586 l 1,12,-1
EndSplineSet
Validated: 1
Position2: "'cpsp' Capital Spacing lookup 3 subtable" dx=5 dy=0 dh=10 dv=0
EndChar

StartChar: Eogonek
Encoding: 280 280 40
Width: 437
Flags: MW
LayerCount: 2
UndoRedoHistory
Layer: 0
Undoes
EndUndoes
Redoes
EndRedoes
EndUndoRedoHistory
UndoRedoHistory
Layer: 1
Undoes
EndUndoes
Redoes
EndRedoes
EndUndoRedoHistory
Fore
SplineSet
391 0 m 1,0,1
 360 -27 360 -27 342 -61 c 128,-1,2
 324 -95 324 -95 324 -130 c 0,3,4
 324 -160 324 -160 336.5 -174 c 128,-1,5
 349 -188 349 -188 380 -188 c 0,6,7
 409 -188 409 -188 427 -167 c 1,8,9
 438 -177 438 -177 438 -192 c 0,10,11
 438 -220 438 -220 414 -233 c 128,-1,12
 390 -246 390 -246 356 -246 c 0,13,14
 306 -246 306 -246 278 -219 c 128,-1,15
 250 -192 250 -192 250 -143 c 0,16,17
 250 -101 250 -101 271.5 -64.5 c 128,-1,18
 293 -28 293 -28 330 0 c 1,19,-1
 60 0 l 1,20,-1
 60 660 l 1,21,-1
 395 660 l 1,22,-1
 395 586 l 1,23,-1
 177 586 l 1,24,-1
 177 376 l 1,25,-1
 365 376 l 1,26,-1
 365 302 l 1,27,-1
 177 302 l 1,28,-1
 177 74 l 1,29,-1
 409 74 l 1,30,-1
 403 11 l 1,31,-1
 404 10 l 1,32,-1
 403 9 l 1,33,-1
 402 0 l 1,34,-1
 391 0 l 1,0,1
EndSplineSet
Validated: 1
Position2: "'cpsp' Capital Spacing lookup 3 subtable" dx=5 dy=0 dh=10 dv=0
EndChar

StartChar: Etilde
Encoding: 7868 7868 41
Width: 437
Flags: MW
LayerCount: 2
UndoRedoHistory
Layer: 0
Undoes
EndUndoes
Redoes
EndRedoes
EndUndoRedoHistory
UndoRedoHistory
Layer: 1
Undoes
EndUndoes
Redoes
EndRedoes
EndUndoRedoHistory
Fore
SplineSet
352 820 m 1,0,1
 379 802 379 802 379 769 c 0,2,3
 379 745 379 745 362 732.5 c 128,-1,4
 345 720 345 720 318 720 c 0,5,6
 296 720 296 720 235.5 732 c 128,-1,7
 175 744 175 744 156 744 c 0,8,9
 119 744 119 744 103 729 c 1,10,11
 76 747 76 747 76 780 c 0,12,13
 76 804 76 804 93 816.5 c 128,-1,14
 110 829 110 829 137 829 c 0,15,16
 160 829 160 829 219.5 817 c 128,-1,17
 279 805 279 805 299 805 c 0,18,19
 336 805 336 805 352 820 c 1,0,1
177 586 m 1,20,-1
 177 376 l 1,21,-1
 365 376 l 1,22,-1
 365 302 l 1,23,-1
 177 302 l 1,24,-1
 177 74 l 1,25,-1
 409 74 l 1,26,-1
 402 0 l 1,27,-1
 60 0 l 1,28,-1
 60 660 l 1,29,-1
 395 660 l 1,30,-1
 395 586 l 1,31,-1
 177 586 l 1,20,-1
EndSplineSet
Validated: 1
Position2: "'cpsp' Capital Spacing lookup 3 subtable" dx=5 dy=0 dh=10 dv=0
EndChar

StartChar: F
Encoding: 70 70 42
Width: 416
Flags: MW
LayerCount: 2
UndoRedoHistory
Layer: 0
Undoes
EndUndoes
Redoes
EndRedoes
EndUndoRedoHistory
UndoRedoHistory
Layer: 1
Undoes
EndUndoes
Redoes
EndRedoes
EndUndoRedoHistory
Fore
SplineSet
395 586 m 1,0,-1
 177 586 l 1,1,-1
 177 362 l 1,2,-1
 365 362 l 1,3,-1
 365 288 l 1,4,-1
 177 288 l 1,5,-1
 177 0 l 1,6,-1
 60 0 l 1,7,-1
 60 660 l 1,8,-1
 395 660 l 1,9,-1
 395 586 l 1,0,-1
EndSplineSet
Validated: 1
Position2: "'cpsp' Capital Spacing lookup 3 subtable" dx=5 dy=0 dh=10 dv=0
EndChar

StartChar: G
Encoding: 71 71 43
Width: 545
Flags: MW
LayerCount: 2
UndoRedoHistory
Layer: 0
Undoes
EndUndoes
Redoes
EndRedoes
EndUndoRedoHistory
UndoRedoHistory
Layer: 1
Undoes
EndUndoes
Redoes
EndRedoes
EndUndoRedoHistory
Fore
SplineSet
492 19 m 1,0,1
 456 0 456 0 400 -11 c 128,-1,2
 344 -22 344 -22 298 -22 c 0,3,4
 239 -22 239 -22 193.5 -5 c 128,-1,5
 148 12 148 12 118 42.5 c 128,-1,6
 88 73 88 73 69 117.5 c 128,-1,7
 50 162 50 162 42 213 c 128,-1,8
 34 264 34 264 34 327 c 0,9,10
 34 405 34 405 48.5 467 c 128,-1,11
 63 529 63 529 94 578 c 128,-1,12
 125 627 125 627 178.5 653.5 c 128,-1,13
 232 680 232 680 305 680 c 0,14,15
 347 680 347 680 382 672.5 c 128,-1,16
 417 665 417 665 445 648 c 128,-1,17
 473 631 473 631 488.5 602 c 128,-1,18
 504 573 504 573 504 534 c 0,19,20
 504 498 504 498 482.5 475.5 c 128,-1,21
 461 453 461 453 426 453 c 0,22,23
 393 453 393 453 374 469 c 1,24,25
 382 491 382 491 382 519 c 0,26,27
 382 562 382 562 360 586 c 128,-1,28
 338 610 338 610 296 610 c 0,29,30
 267 610 267 610 244.5 598 c 128,-1,31
 222 586 222 586 207.5 564 c 128,-1,32
 193 542 193 542 183 516.5 c 128,-1,33
 173 491 173 491 168.5 457.5 c 128,-1,34
 164 424 164 424 162 395 c 128,-1,35
 160 366 160 366 160 332 c 0,36,37
 160 302 160 302 161.5 277 c 128,-1,38
 163 252 163 252 166.5 222.5 c 128,-1,39
 170 193 170 193 176 170 c 128,-1,40
 182 147 182 147 192.5 125 c 128,-1,41
 203 103 203 103 217.5 88.5 c 128,-1,42
 232 74 232 74 253 65 c 128,-1,43
 274 56 274 56 301 56 c 0,44,45
 349 56 349 56 387 69 c 1,46,-1
 383 303 l 1,47,-1
 492 317 l 1,48,-1
 492 19 l 1,0,1
EndSplineSet
Validated: 1
Position2: "'cpsp' Capital Spacing lookup 3 subtable" dx=5 dy=0 dh=10 dv=0
EndChar

StartChar: Gbreve
Encoding: 286 286 44
Width: 545
Flags: MW
LayerCount: 2
UndoRedoHistory
Layer: 0
Undoes
EndUndoes
Redoes
EndRedoes
EndUndoRedoHistory
UndoRedoHistory
Layer: 1
Undoes
EndUndoes
Redoes
EndRedoes
EndUndoRedoHistory
Fore
SplineSet
447 823 m 1,0,1
 447 758 447 758 405.5 721.5 c 128,-1,2
 364 685 364 685 296 685 c 128,-1,3
 228 685 228 685 187 721.5 c 128,-1,4
 146 758 146 758 146 823 c 1,5,-1
 237 823 l 1,6,7
 237 737 237 737 296 737 c 128,-1,8
 355 737 355 737 355 823 c 1,9,-1
 447 823 l 1,0,1
492 19 m 1,10,11
 456 0 456 0 400 -11 c 128,-1,12
 344 -22 344 -22 298 -22 c 0,13,14
 239 -22 239 -22 193.5 -5 c 128,-1,15
 148 12 148 12 118 42.5 c 128,-1,16
 88 73 88 73 69 117.5 c 128,-1,17
 50 162 50 162 42 213 c 128,-1,18
 34 264 34 264 34 327 c 0,19,20
 34 405 34 405 48.5 467 c 128,-1,21
 63 529 63 529 94 578 c 128,-1,22
 125 627 125 627 178.5 653.5 c 128,-1,23
 232 680 232 680 305 680 c 0,24,25
 347 680 347 680 382 672.5 c 128,-1,26
 417 665 417 665 445 648 c 128,-1,27
 473 631 473 631 488.5 602 c 128,-1,28
 504 573 504 573 504 534 c 0,29,30
 504 498 504 498 482.5 475.5 c 128,-1,31
 461 453 461 453 426 453 c 0,32,33
 393 453 393 453 374 469 c 1,34,35
 382 491 382 491 382 519 c 0,36,37
 382 562 382 562 360 586 c 128,-1,38
 338 610 338 610 296 610 c 0,39,40
 267 610 267 610 244.5 598 c 128,-1,41
 222 586 222 586 207.5 564 c 128,-1,42
 193 542 193 542 183 516.5 c 128,-1,43
 173 491 173 491 168.5 457.5 c 128,-1,44
 164 424 164 424 162 395 c 128,-1,45
 160 366 160 366 160 332 c 0,46,47
 160 302 160 302 161.5 277 c 128,-1,48
 163 252 163 252 166.5 222.5 c 128,-1,49
 170 193 170 193 176 170 c 128,-1,50
 182 147 182 147 192.5 125 c 128,-1,51
 203 103 203 103 217.5 88.5 c 128,-1,52
 232 74 232 74 253 65 c 128,-1,53
 274 56 274 56 301 56 c 0,54,55
 349 56 349 56 387 69 c 1,56,-1
 383 303 l 1,57,-1
 492 317 l 1,58,-1
 492 19 l 1,10,11
EndSplineSet
Validated: 1
Position2: "'cpsp' Capital Spacing lookup 3 subtable" dx=5 dy=0 dh=10 dv=0
EndChar

StartChar: Gcircumflex
Encoding: 284 284 45
Width: 545
Flags: MW
LayerCount: 2
UndoRedoHistory
Layer: 0
Undoes
EndUndoes
Redoes
EndRedoes
EndUndoRedoHistory
UndoRedoHistory
Layer: 1
Undoes
EndUndoes
Redoes
EndRedoes
EndUndoRedoHistory
Fore
SplineSet
148 704 m 1,0,-1
 293 836 l 1,1,-1
 297 836 l 1,2,-1
 446 704 l 1,3,-1
 416 669 l 1,4,-1
 296 742 l 1,5,-1
 177 669 l 1,6,-1
 148 704 l 1,0,-1
492 19 m 1,7,8
 456 0 456 0 400 -11 c 128,-1,9
 344 -22 344 -22 298 -22 c 0,10,11
 239 -22 239 -22 193.5 -5 c 128,-1,12
 148 12 148 12 118 42.5 c 128,-1,13
 88 73 88 73 69 117.5 c 128,-1,14
 50 162 50 162 42 213 c 128,-1,15
 34 264 34 264 34 327 c 0,16,17
 34 405 34 405 48.5 467 c 128,-1,18
 63 529 63 529 94 578 c 128,-1,19
 125 627 125 627 178.5 653.5 c 128,-1,20
 232 680 232 680 305 680 c 0,21,22
 347 680 347 680 382 672.5 c 128,-1,23
 417 665 417 665 445 648 c 128,-1,24
 473 631 473 631 488.5 602 c 128,-1,25
 504 573 504 573 504 534 c 0,26,27
 504 498 504 498 482.5 475.5 c 128,-1,28
 461 453 461 453 426 453 c 0,29,30
 393 453 393 453 374 469 c 1,31,32
 382 491 382 491 382 519 c 0,33,34
 382 562 382 562 360 586 c 128,-1,35
 338 610 338 610 296 610 c 0,36,37
 267 610 267 610 244.5 598 c 128,-1,38
 222 586 222 586 207.5 564 c 128,-1,39
 193 542 193 542 183 516.5 c 128,-1,40
 173 491 173 491 168.5 457.5 c 128,-1,41
 164 424 164 424 162 395 c 128,-1,42
 160 366 160 366 160 332 c 0,43,44
 160 302 160 302 161.5 277 c 128,-1,45
 163 252 163 252 166.5 222.5 c 128,-1,46
 170 193 170 193 176 170 c 128,-1,47
 182 147 182 147 192.5 125 c 128,-1,48
 203 103 203 103 217.5 88.5 c 128,-1,49
 232 74 232 74 253 65 c 128,-1,50
 274 56 274 56 301 56 c 0,51,52
 349 56 349 56 387 69 c 1,53,-1
 383 303 l 1,54,-1
 492 317 l 1,55,-1
 492 19 l 1,7,8
EndSplineSet
Validated: 1
Position2: "'cpsp' Capital Spacing lookup 3 subtable" dx=5 dy=0 dh=10 dv=0
EndChar

StartChar: Gcommaaccent
Encoding: 290 290 46
Width: 545
Flags: MW
LayerCount: 2
UndoRedoHistory
Layer: 0
Undoes
EndUndoes
Redoes
EndRedoes
EndUndoRedoHistory
UndoRedoHistory
Layer: 1
Undoes
EndUndoes
Redoes
EndRedoes
EndUndoRedoHistory
Fore
SplineSet
492 19 m 1,0,1
 456 0 456 0 400 -11 c 128,-1,2
 344 -22 344 -22 298 -22 c 0,3,4
 239 -22 239 -22 193.5 -5 c 128,-1,5
 148 12 148 12 118 42.5 c 128,-1,6
 88 73 88 73 69 117.5 c 128,-1,7
 50 162 50 162 42 213 c 128,-1,8
 34 264 34 264 34 327 c 0,9,10
 34 405 34 405 48.5 467 c 128,-1,11
 63 529 63 529 94 578 c 128,-1,12
 125 627 125 627 178.5 653.5 c 128,-1,13
 232 680 232 680 305 680 c 0,14,15
 347 680 347 680 382 672.5 c 128,-1,16
 417 665 417 665 445 648 c 128,-1,17
 473 631 473 631 488.5 602 c 128,-1,18
 504 573 504 573 504 534 c 0,19,20
 504 498 504 498 482.5 475.5 c 128,-1,21
 461 453 461 453 426 453 c 0,22,23
 393 453 393 453 374 469 c 1,24,25
 382 491 382 491 382 519 c 0,26,27
 382 562 382 562 360 586 c 128,-1,28
 338 610 338 610 296 610 c 0,29,30
 267 610 267 610 244.5 598 c 128,-1,31
 222 586 222 586 207.5 564 c 128,-1,32
 193 542 193 542 183 516.5 c 128,-1,33
 173 491 173 491 168.5 457.5 c 128,-1,34
 164 424 164 424 162 395 c 128,-1,35
 160 366 160 366 160 332 c 0,36,37
 160 302 160 302 161.5 277 c 128,-1,38
 163 252 163 252 166.5 222.5 c 128,-1,39
 170 193 170 193 176 170 c 128,-1,40
 182 147 182 147 192.5 125 c 128,-1,41
 203 103 203 103 217.5 88.5 c 128,-1,42
 232 74 232 74 253 65 c 128,-1,43
 274 56 274 56 301 56 c 0,44,45
 349 56 349 56 387 69 c 1,46,-1
 383 303 l 1,47,-1
 492 317 l 1,48,-1
 492 19 l 1,0,1
317 -50 m 0,49,50
 352 -50 352 -50 369.5 -69.5 c 128,-1,51
 387 -89 387 -89 387 -124 c 0,52,53
 387 -166 387 -166 357 -201.5 c 128,-1,54
 327 -237 327 -237 286 -237 c 0,55,56
 270 -237 270 -237 252 -231 c 1,57,58
 285 -182 285 -182 285 -127 c 0,59,60
 285 -90 285 -90 266 -62 c 1,61,62
 290 -50 290 -50 317 -50 c 0,49,50
EndSplineSet
Validated: 1
Position2: "'cpsp' Capital Spacing lookup 3 subtable" dx=5 dy=0 dh=10 dv=0
EndChar

StartChar: Gdotaccent
Encoding: 288 288 47
Width: 545
Flags: MW
LayerCount: 2
UndoRedoHistory
Layer: 0
Undoes
EndUndoes
Redoes
EndRedoes
EndUndoRedoHistory
UndoRedoHistory
Layer: 1
Undoes
EndUndoes
Redoes
EndRedoes
EndUndoRedoHistory
Fore
SplineSet
293 850 m 128,-1,1
 326 850 326 850 346.5 834 c 128,-1,2
 367 818 367 818 367 788 c 0,3,4
 367 757 367 757 345.5 740.5 c 128,-1,5
 324 724 324 724 290 724 c 0,6,7
 257 724 257 724 237 740 c 128,-1,8
 217 756 217 756 217 786 c 0,9,10
 217 817 217 817 238.5 833.5 c 128,-1,0
 260 850 260 850 293 850 c 128,-1,1
492 19 m 1,11,12
 456 0 456 0 400 -11 c 128,-1,13
 344 -22 344 -22 298 -22 c 0,14,15
 239 -22 239 -22 193.5 -5 c 128,-1,16
 148 12 148 12 118 42.5 c 128,-1,17
 88 73 88 73 69 117.5 c 128,-1,18
 50 162 50 162 42 213 c 128,-1,19
 34 264 34 264 34 327 c 0,20,21
 34 405 34 405 48.5 467 c 128,-1,22
 63 529 63 529 94 578 c 128,-1,23
 125 627 125 627 178.5 653.5 c 128,-1,24
 232 680 232 680 305 680 c 0,25,26
 347 680 347 680 382 672.5 c 128,-1,27
 417 665 417 665 445 648 c 128,-1,28
 473 631 473 631 488.5 602 c 128,-1,29
 504 573 504 573 504 534 c 0,30,31
 504 498 504 498 482.5 475.5 c 128,-1,32
 461 453 461 453 426 453 c 0,33,34
 393 453 393 453 374 469 c 1,35,36
 382 491 382 491 382 519 c 0,37,38
 382 562 382 562 360 586 c 128,-1,39
 338 610 338 610 296 610 c 0,40,41
 267 610 267 610 244.5 598 c 128,-1,42
 222 586 222 586 207.5 564 c 128,-1,43
 193 542 193 542 183 516.5 c 128,-1,44
 173 491 173 491 168.5 457.5 c 128,-1,45
 164 424 164 424 162 395 c 128,-1,46
 160 366 160 366 160 332 c 0,47,48
 160 302 160 302 161.5 277 c 128,-1,49
 163 252 163 252 166.5 222.5 c 128,-1,50
 170 193 170 193 176 170 c 128,-1,51
 182 147 182 147 192.5 125 c 128,-1,52
 203 103 203 103 217.5 88.5 c 128,-1,53
 232 74 232 74 253 65 c 128,-1,54
 274 56 274 56 301 56 c 0,55,56
 349 56 349 56 387 69 c 1,57,-1
 383 303 l 1,58,-1
 492 317 l 1,59,-1
 492 19 l 1,11,12
EndSplineSet
Validated: 1
Position2: "'cpsp' Capital Spacing lookup 3 subtable" dx=5 dy=0 dh=10 dv=0
EndChar

StartChar: H
Encoding: 72 72 48
Width: 577
Flags: MW
LayerCount: 2
UndoRedoHistory
Layer: 0
Undoes
EndUndoes
Redoes
EndRedoes
EndUndoRedoHistory
UndoRedoHistory
Layer: 1
Undoes
EndUndoes
Redoes
EndRedoes
EndUndoRedoHistory
Fore
SplineSet
518 0 m 1,0,-1
 401 0 l 1,1,-1
 401 297 l 1,2,-1
 177 297 l 1,3,-1
 177 0 l 1,4,-1
 60 0 l 1,5,-1
 60 660 l 1,6,-1
 177 660 l 1,7,-1
 177 371 l 1,8,-1
 401 371 l 1,9,-1
 401 660 l 1,10,-1
 518 660 l 1,11,-1
 518 0 l 1,0,-1
EndSplineSet
Validated: 1
Position2: "'cpsp' Capital Spacing lookup 3 subtable" dx=5 dy=0 dh=10 dv=0
EndChar

StartChar: Hbar
Encoding: 294 294 49
Width: 587
Flags: MW
LayerCount: 2
UndoRedoHistory
Layer: 0
Undoes
EndUndoes
Redoes
EndRedoes
EndUndoRedoHistory
UndoRedoHistory
Layer: 1
Undoes
EndUndoes
Redoes
EndRedoes
EndUndoRedoHistory
Fore
SplineSet
585 520 m 1,0,1
 594 499 594 499 594 485 c 0,2,3
 594 447 594 447 539 447 c 2,4,-1
 523 447 l 1,5,-1
 523 0 l 1,6,-1
 406 0 l 1,7,-1
 406 297 l 1,8,-1
 182 297 l 1,9,-1
 182 0 l 1,10,-1
 65 0 l 1,11,-1
 65 447 l 1,12,-1
 4 447 l 1,13,14
 -4 465 -4 465 -4 481 c 0,15,16
 -4 520 -4 520 44 520 c 2,17,-1
 65 520 l 1,18,-1
 65 660 l 1,19,-1
 182 660 l 1,20,-1
 182 520 l 1,21,-1
 406 520 l 1,22,-1
 406 660 l 1,23,-1
 523 660 l 1,24,-1
 523 520 l 1,25,-1
 585 520 l 1,0,1
406 447 m 1,26,-1
 182 447 l 1,27,-1
 182 371 l 1,28,-1
 406 371 l 1,29,-1
 406 447 l 1,26,-1
EndSplineSet
Validated: 1
Position2: "'cpsp' Capital Spacing lookup 3 subtable" dx=5 dy=0 dh=10 dv=0
EndChar

StartChar: Hcircumflex
Encoding: 292 292 50
Width: 577
Flags: MW
LayerCount: 2
UndoRedoHistory
Layer: 0
Undoes
EndUndoes
Redoes
EndRedoes
EndUndoRedoHistory
UndoRedoHistory
Layer: 1
Undoes
EndUndoes
Redoes
EndRedoes
EndUndoRedoHistory
Fore
SplineSet
143 704 m 1,0,-1
 288 836 l 1,1,-1
 292 836 l 1,2,-1
 441 704 l 1,3,-1
 411 669 l 1,4,-1
 291 742 l 1,5,-1
 172 669 l 1,6,-1
 143 704 l 1,0,-1
401 0 m 1,7,-1
 401 297 l 1,8,-1
 177 297 l 1,9,-1
 177 0 l 1,10,-1
 60 0 l 1,11,-1
 60 660 l 1,12,-1
 177 660 l 1,13,-1
 177 371 l 1,14,-1
 401 371 l 1,15,-1
 401 660 l 1,16,-1
 518 660 l 1,17,-1
 518 0 l 1,18,-1
 401 0 l 1,7,-1
EndSplineSet
Validated: 1
Position2: "'cpsp' Capital Spacing lookup 3 subtable" dx=5 dy=0 dh=10 dv=0
EndChar

StartChar: Hdotbelow
Encoding: 7716 7716 51
Width: 577
Flags: MW
LayerCount: 2
UndoRedoHistory
Layer: 0
Undoes
EndUndoes
Redoes
EndRedoes
EndUndoRedoHistory
UndoRedoHistory
Layer: 1
Undoes
EndUndoes
Redoes
EndRedoes
EndUndoRedoHistory
Fore
SplineSet
401 0 m 1,0,-1
 401 297 l 1,1,-1
 177 297 l 1,2,-1
 177 0 l 1,3,-1
 60 0 l 1,4,-1
 60 660 l 1,5,-1
 177 660 l 1,6,-1
 177 371 l 1,7,-1
 401 371 l 1,8,-1
 401 660 l 1,9,-1
 518 660 l 1,10,-1
 518 0 l 1,11,-1
 401 0 l 1,0,-1
300 -54 m 128,-1,13
 333 -54 333 -54 353.5 -70 c 128,-1,14
 374 -86 374 -86 374 -116 c 0,15,16
 374 -147 374 -147 352.5 -163.5 c 128,-1,17
 331 -180 331 -180 297 -180 c 0,18,19
 264 -180 264 -180 244 -164 c 128,-1,20
 224 -148 224 -148 224 -118 c 0,21,22
 224 -87 224 -87 245.5 -70.5 c 128,-1,12
 267 -54 267 -54 300 -54 c 128,-1,13
EndSplineSet
Validated: 1
Position2: "'cpsp' Capital Spacing lookup 3 subtable" dx=5 dy=0 dh=10 dv=0
EndChar

StartChar: I
Encoding: 73 73 52
Width: 236
Flags: MW
LayerCount: 2
UndoRedoHistory
Layer: 0
Undoes
EndUndoes
Redoes
EndRedoes
EndUndoRedoHistory
UndoRedoHistory
Layer: 1
Undoes
EndUndoes
Redoes
EndRedoes
EndUndoRedoHistory
Fore
SplineSet
177 0 m 1,0,-1
 60 0 l 1,1,-1
 60 660 l 1,2,-1
 177 660 l 1,3,-1
 177 0 l 1,0,-1
EndSplineSet
Validated: 1
Position2: "'cpsp' Capital Spacing lookup 3 subtable" dx=5 dy=0 dh=10 dv=0
EndChar

StartChar: IJ
Encoding: 306 306 53
Width: 473
Flags: MW
LayerCount: 2
UndoRedoHistory
Layer: 0
Undoes
EndUndoes
Redoes
EndRedoes
EndUndoRedoHistory
UndoRedoHistory
Layer: 1
Undoes
EndUndoes
Redoes
EndRedoes
EndUndoRedoHistory
Fore
SplineSet
60 0 m 1,0,-1
 60 660 l 1,1,-1
 177 660 l 1,2,-1
 177 0 l 1,3,-1
 60 0 l 1,0,-1
414 95 m 2,4,5
 414 62 414 62 412 34 c 128,-1,6
 410 6 410 6 404.5 -24.5 c 128,-1,7
 399 -55 399 -55 389 -78.5 c 128,-1,8
 379 -102 379 -102 364 -121 c 128,-1,9
 349 -140 349 -140 326 -150 c 128,-1,10
 303 -160 303 -160 273 -160 c 0,11,12
 244 -160 244 -160 221.5 -148 c 128,-1,13
 199 -136 199 -136 199 -113 c 1,14,15
 223 -113 223 -113 241.5 -103 c 128,-1,16
 260 -93 260 -93 270.5 -77.5 c 128,-1,17
 281 -62 281 -62 287 -38 c 128,-1,18
 293 -14 293 -14 295 8.5 c 128,-1,19
 297 31 297 31 297 59 c 2,20,-1
 297 660 l 1,21,-1
 414 660 l 1,22,-1
 414 95 l 2,4,5
EndSplineSet
Validated: 1
Position2: "'cpsp' Capital Spacing lookup 3 subtable" dx=5 dy=0 dh=10 dv=0
EndChar

StartChar: Iacute
Encoding: 205 205 54
Width: 236
Flags: MW
LayerCount: 2
UndoRedoHistory
Layer: 0
Undoes
EndUndoes
Redoes
EndRedoes
EndUndoRedoHistory
UndoRedoHistory
Layer: 1
Undoes
EndUndoes
Redoes
EndRedoes
EndUndoRedoHistory
Fore
SplineSet
254 837 m 1,0,1
 283 816 283 816 283 786 c 0,2,3
 283 767 283 767 274 754 c 128,-1,4
 265 741 265 741 247 734.5 c 128,-1,5
 229 728 229 728 212.5 725 c 128,-1,6
 196 722 196 722 172 720 c 2,7,-1
 53 711 l 1,8,-1
 42 753 l 1,9,-1
 254 837 l 1,0,1
60 0 m 1,10,-1
 60 660 l 1,11,-1
 177 660 l 1,12,-1
 177 0 l 1,13,-1
 60 0 l 1,10,-1
EndSplineSet
Validated: 1
Position2: "'cpsp' Capital Spacing lookup 3 subtable" dx=5 dy=0 dh=10 dv=0
EndChar

StartChar: Ibreve
Encoding: 300 300 55
Width: 236
Flags: MW
LayerCount: 2
UndoRedoHistory
Layer: 0
Undoes
EndUndoes
Redoes
EndRedoes
EndUndoRedoHistory
UndoRedoHistory
Layer: 1
Undoes
EndUndoes
Redoes
EndRedoes
EndUndoRedoHistory
Fore
SplineSet
269 823 m 1,0,1
 269 758 269 758 227.5 721.5 c 128,-1,2
 186 685 186 685 118 685 c 128,-1,3
 50 685 50 685 9 721.5 c 128,-1,4
 -32 758 -32 758 -32 823 c 1,5,-1
 59 823 l 1,6,7
 59 737 59 737 118 737 c 0,8,9
 177 737 177 737 177 823 c 1,10,-1
 269 823 l 1,0,1
60 0 m 1,11,-1
 60 660 l 1,12,-1
 177 660 l 1,13,-1
 177 0 l 1,14,-1
 60 0 l 1,11,-1
EndSplineSet
Validated: 1
Position2: "'cpsp' Capital Spacing lookup 3 subtable" dx=5 dy=0 dh=10 dv=0
EndChar

StartChar: Icircumflex
Encoding: 206 206 56
Width: 236
Flags: MW
LayerCount: 2
UndoRedoHistory
Layer: 0
Undoes
EndUndoes
Redoes
EndRedoes
EndUndoRedoHistory
UndoRedoHistory
Layer: 1
Undoes
EndUndoes
Redoes
EndRedoes
EndUndoRedoHistory
Fore
SplineSet
-29 704 m 1,0,-1
 116 836 l 1,1,-1
 120 836 l 1,2,-1
 269 704 l 1,3,-1
 239 669 l 1,4,-1
 119 742 l 1,5,-1
 0 669 l 1,6,-1
 -29 704 l 1,0,-1
60 0 m 1,7,-1
 60 660 l 1,8,-1
 177 660 l 1,9,-1
 177 0 l 1,10,-1
 60 0 l 1,7,-1
EndSplineSet
Validated: 1
Position2: "'cpsp' Capital Spacing lookup 3 subtable" dx=5 dy=0 dh=10 dv=0
EndChar

StartChar: Idieresis
Encoding: 207 207 57
Width: 236
Flags: MW
LayerCount: 2
UndoRedoHistory
Layer: 0
Undoes
EndUndoes
Redoes
EndRedoes
EndUndoRedoHistory
UndoRedoHistory
Layer: 1
Undoes
EndUndoes
Redoes
EndRedoes
EndUndoRedoHistory
Fore
SplineSet
20 836 m 128,-1,1
 53 836 53 836 73.5 820 c 128,-1,2
 94 804 94 804 94 774 c 0,3,4
 94 743 94 743 72.5 726.5 c 128,-1,5
 51 710 51 710 17 710 c 0,6,7
 -16 710 -16 710 -36 726 c 128,-1,8
 -56 742 -56 742 -56 772 c 0,9,10
 -56 803 -56 803 -34.5 819.5 c 128,-1,0
 -13 836 -13 836 20 836 c 128,-1,1
219 836 m 128,-1,12
 252 836 252 836 272.5 820 c 128,-1,13
 293 804 293 804 293 774 c 0,14,15
 293 743 293 743 271.5 726.5 c 128,-1,16
 250 710 250 710 216 710 c 0,17,18
 183 710 183 710 163 726 c 128,-1,19
 143 742 143 742 143 772 c 0,20,21
 143 803 143 803 164.5 819.5 c 128,-1,11
 186 836 186 836 219 836 c 128,-1,12
60 0 m 1,22,-1
 60 660 l 1,23,-1
 177 660 l 1,24,-1
 177 0 l 1,25,-1
 60 0 l 1,22,-1
EndSplineSet
Validated: 1
Position2: "'cpsp' Capital Spacing lookup 3 subtable" dx=5 dy=0 dh=10 dv=0
EndChar

StartChar: Idotaccent
Encoding: 304 304 58
Width: 236
Flags: MW
LayerCount: 2
UndoRedoHistory
Layer: 0
Undoes
EndUndoes
Redoes
EndRedoes
EndUndoRedoHistory
UndoRedoHistory
Layer: 1
Undoes
EndUndoes
Redoes
EndRedoes
EndUndoRedoHistory
Fore
SplineSet
118 850 m 128,-1,1
 151 850 151 850 171.5 834 c 128,-1,2
 192 818 192 818 192 788 c 0,3,4
 192 757 192 757 170.5 740.5 c 128,-1,5
 149 724 149 724 115 724 c 0,6,7
 82 724 82 724 62 740 c 128,-1,8
 42 756 42 756 42 786 c 0,9,10
 42 817 42 817 63.5 833.5 c 128,-1,0
 85 850 85 850 118 850 c 128,-1,1
60 0 m 1,11,-1
 60 660 l 1,12,-1
 177 660 l 1,13,-1
 177 0 l 1,14,-1
 60 0 l 1,11,-1
EndSplineSet
Validated: 1
Position2: "'cpsp' Capital Spacing lookup 3 subtable" dx=5 dy=0 dh=10 dv=0
EndChar

StartChar: Idotbelow
Encoding: 7882 7882 59
Width: 236
Flags: MW
LayerCount: 2
UndoRedoHistory
Layer: 0
Undoes
EndUndoes
Redoes
EndRedoes
EndUndoRedoHistory
UndoRedoHistory
Layer: 1
Undoes
EndUndoes
Redoes
EndRedoes
EndUndoRedoHistory
Fore
SplineSet
60 0 m 1,0,-1
 60 660 l 1,1,-1
 177 660 l 1,2,-1
 177 0 l 1,3,-1
 60 0 l 1,0,-1
116 -54 m 128,-1,5
 149 -54 149 -54 169.5 -70 c 128,-1,6
 190 -86 190 -86 190 -116 c 0,7,8
 190 -147 190 -147 168 -163.5 c 128,-1,9
 146 -180 146 -180 113 -180 c 0,10,11
 80 -180 80 -180 60 -164 c 128,-1,12
 40 -148 40 -148 40 -118 c 0,13,14
 40 -87 40 -87 61.5 -70.5 c 128,-1,4
 83 -54 83 -54 116 -54 c 128,-1,5
EndSplineSet
Validated: 1
Position2: "'cpsp' Capital Spacing lookup 3 subtable" dx=5 dy=0 dh=10 dv=0
EndChar

StartChar: Igrave
Encoding: 204 204 60
Width: 236
Flags: MW
LayerCount: 2
UndoRedoHistory
Layer: 0
Undoes
EndUndoes
Redoes
EndRedoes
EndUndoRedoHistory
UndoRedoHistory
Layer: 1
Undoes
EndUndoes
Redoes
EndRedoes
EndUndoRedoHistory
Fore
SplineSet
64 720 m 2,0,1
 40 722 40 722 23.5 725 c 128,-1,2
 7 728 7 728 -10.5 734.5 c 128,-1,3
 -28 741 -28 741 -37 754 c 128,-1,4
 -46 767 -46 767 -46 786 c 0,5,6
 -46 817 -46 817 -18 837 c 1,7,-1
 195 753 l 1,8,-1
 184 711 l 1,9,-1
 64 720 l 2,0,1
60 0 m 1,10,-1
 60 660 l 1,11,-1
 177 660 l 1,12,-1
 177 0 l 1,13,-1
 60 0 l 1,10,-1
EndSplineSet
Validated: 1
Position2: "'cpsp' Capital Spacing lookup 3 subtable" dx=5 dy=0 dh=10 dv=0
EndChar

StartChar: Imacron
Encoding: 298 298 61
Width: 236
Flags: MW
LayerCount: 2
UndoRedoHistory
Layer: 0
Undoes
EndUndoes
Redoes
EndRedoes
EndUndoRedoHistory
UndoRedoHistory
Layer: 1
Undoes
EndUndoes
Redoes
EndRedoes
EndUndoRedoHistory
Fore
SplineSet
248 824 m 1,0,1
 256 804 256 804 256 786 c 0,2,3
 256 742 256 742 198 742 c 2,4,-1
 -12 742 l 1,5,6
 -19 758 -19 758 -19 778 c 0,7,8
 -19 799 -19 799 -5.5 811.5 c 128,-1,9
 8 824 8 824 32 824 c 2,10,-1
 248 824 l 1,0,1
60 0 m 1,11,-1
 60 660 l 1,12,-1
 177 660 l 1,13,-1
 177 0 l 1,14,-1
 60 0 l 1,11,-1
EndSplineSet
Validated: 1
Position2: "'cpsp' Capital Spacing lookup 3 subtable" dx=5 dy=0 dh=10 dv=0
EndChar

StartChar: Iogonek
Encoding: 302 302 62
Width: 236
Flags: MW
LayerCount: 2
UndoRedoHistory
Layer: 0
Undoes
EndUndoes
Redoes
EndRedoes
EndUndoRedoHistory
UndoRedoHistory
Layer: 1
Undoes
EndUndoes
Redoes
EndRedoes
EndUndoRedoHistory
Fore
SplineSet
172 0 m 1,0,1
 141 -27 141 -27 123 -61 c 128,-1,2
 105 -95 105 -95 105 -130 c 0,3,4
 105 -160 105 -160 117.5 -174 c 128,-1,5
 130 -188 130 -188 161 -188 c 0,6,7
 190 -188 190 -188 208 -167 c 1,8,9
 219 -177 219 -177 219 -192 c 0,10,11
 219 -220 219 -220 195 -233 c 128,-1,12
 171 -246 171 -246 137 -246 c 0,13,14
 87 -246 87 -246 59 -219 c 128,-1,15
 31 -192 31 -192 31 -143 c 0,16,17
 31 -101 31 -101 52.5 -64.5 c 128,-1,18
 74 -28 74 -28 111 0 c 1,19,-1
 60 0 l 1,20,-1
 60 660 l 1,21,-1
 177 660 l 1,22,-1
 177 16 l 1,23,-1
 185 10 l 1,24,-1
 177 4 l 1,25,-1
 177 0 l 1,26,-1
 172 0 l 1,0,1
EndSplineSet
Validated: 1
Position2: "'cpsp' Capital Spacing lookup 3 subtable" dx=5 dy=0 dh=10 dv=0
EndChar

StartChar: Itilde
Encoding: 296 296 63
Width: 236
Flags: MW
LayerCount: 2
UndoRedoHistory
Layer: 0
Undoes
EndUndoes
Redoes
EndRedoes
EndUndoRedoHistory
UndoRedoHistory
Layer: 1
Undoes
EndUndoes
Redoes
EndRedoes
EndUndoRedoHistory
Fore
SplineSet
243 820 m 1,0,1
 270 802 270 802 270 769 c 0,2,3
 270 745 270 745 253 732.5 c 128,-1,4
 236 720 236 720 209 720 c 0,5,6
 187 720 187 720 126.5 732 c 128,-1,7
 66 744 66 744 47 744 c 0,8,9
 10 744 10 744 -6 729 c 1,10,11
 -33 747 -33 747 -33 780 c 0,12,13
 -33 804 -33 804 -16.5 816.5 c 128,-1,14
 0 829 0 829 28 829 c 0,15,16
 51 829 51 829 110.5 817 c 128,-1,17
 170 805 170 805 190 805 c 0,18,19
 227 805 227 805 243 820 c 1,0,1
60 0 m 1,20,-1
 60 660 l 1,21,-1
 177 660 l 1,22,-1
 177 0 l 1,23,-1
 60 0 l 1,20,-1
EndSplineSet
Validated: 1
Position2: "'cpsp' Capital Spacing lookup 3 subtable" dx=5 dy=0 dh=10 dv=0
EndChar

StartChar: J
Encoding: 74 74 64
Width: 236
Flags: MW
LayerCount: 2
UndoRedoHistory
Layer: 0
Undoes
EndUndoes
Redoes
EndRedoes
EndUndoRedoHistory
UndoRedoHistory
Layer: 1
Undoes
EndUndoes
Redoes
EndRedoes
EndUndoRedoHistory
Fore
SplineSet
177 95 m 2,0,1
 177 54 177 54 174 21.5 c 128,-1,2
 171 -11 171 -11 162 -46.5 c 128,-1,3
 153 -82 153 -82 138.5 -105.5 c 128,-1,4
 124 -129 124 -129 97.5 -144.5 c 128,-1,5
 71 -160 71 -160 36 -160 c 0,6,7
 7 -160 7 -160 -15.5 -148 c 128,-1,8
 -38 -136 -38 -136 -38 -113 c 1,9,10
 -8 -113 -8 -113 12.5 -98.5 c 128,-1,11
 33 -84 33 -84 43 -58 c 128,-1,12
 53 -32 53 -32 56.5 -4.5 c 128,-1,13
 60 23 60 23 60 59 c 2,14,-1
 60 660 l 1,15,-1
 177 660 l 1,16,-1
 177 95 l 2,0,1
EndSplineSet
Validated: 1
Position2: "'cpsp' Capital Spacing lookup 3 subtable" dx=5 dy=0 dh=10 dv=0
EndChar

StartChar: Jcircumflex
Encoding: 308 308 65
Width: 236
Flags: MW
LayerCount: 2
UndoRedoHistory
Layer: 0
Undoes
EndUndoes
Redoes
EndRedoes
EndUndoRedoHistory
UndoRedoHistory
Layer: 1
Undoes
EndUndoes
Redoes
EndRedoes
EndUndoRedoHistory
Fore
SplineSet
-29 704 m 1,0,-1
 116 836 l 1,1,-1
 120 836 l 1,2,-1
 269 704 l 1,3,-1
 239 669 l 1,4,-1
 119 742 l 1,5,-1
 0 669 l 1,6,-1
 -29 704 l 1,0,-1
177 95 m 2,7,8
 177 54 177 54 174 21.5 c 128,-1,9
 171 -11 171 -11 162 -46.5 c 128,-1,10
 153 -82 153 -82 138.5 -105.5 c 128,-1,11
 124 -129 124 -129 97.5 -144.5 c 128,-1,12
 71 -160 71 -160 36 -160 c 0,13,14
 7 -160 7 -160 -15.5 -148 c 128,-1,15
 -38 -136 -38 -136 -38 -113 c 1,16,17
 -8 -113 -8 -113 12.5 -98.5 c 128,-1,18
 33 -84 33 -84 43 -58 c 128,-1,19
 53 -32 53 -32 56.5 -4.5 c 128,-1,20
 60 23 60 23 60 59 c 2,21,-1
 60 660 l 1,22,-1
 177 660 l 1,23,-1
 177 95 l 2,7,8
EndSplineSet
Validated: 1
Position2: "'cpsp' Capital Spacing lookup 3 subtable" dx=5 dy=0 dh=10 dv=0
EndChar

StartChar: K
Encoding: 75 75 66
Width: 494
Flags: MW
LayerCount: 2
UndoRedoHistory
Layer: 0
Undoes
EndUndoes
Redoes
EndRedoes
EndUndoRedoHistory
UndoRedoHistory
Layer: 1
Undoes
EndUndoes
Redoes
EndRedoes
EndUndoRedoHistory
Fore
SplineSet
60 0 m 1,0,-1
 60 660 l 1,1,-1
 177 660 l 1,2,-1
 177 0 l 1,3,-1
 60 0 l 1,0,-1
502 660 m 1,4,-1
 310 353 l 1,5,-1
 516 0 l 1,6,-1
 388 0 l 1,7,-1
 198 334 l 1,8,-1
 381 660 l 1,9,-1
 502 660 l 1,4,-1
EndSplineSet
Validated: 1
Position2: "'cpsp' Capital Spacing lookup 3 subtable" dx=5 dy=0 dh=10 dv=0
EndChar

StartChar: Kcommaaccent
Encoding: 310 310 67
Width: 494
Flags: MW
LayerCount: 2
UndoRedoHistory
Layer: 0
Undoes
EndUndoes
Redoes
EndRedoes
EndUndoRedoHistory
UndoRedoHistory
Layer: 1
Undoes
EndUndoes
Redoes
EndRedoes
EndUndoRedoHistory
Fore
SplineSet
60 660 m 1,0,-1
 177 660 l 1,1,-1
 177 0 l 1,2,-1
 60 0 l 1,3,-1
 60 660 l 1,0,-1
310 353 m 1,4,-1
 516 0 l 1,5,-1
 388 0 l 1,6,-1
 198 334 l 1,7,-1
 381 660 l 1,8,-1
 502 660 l 1,9,-1
 310 353 l 1,4,-1
281 -50 m 0,10,11
 316 -50 316 -50 333.5 -69.5 c 128,-1,12
 351 -89 351 -89 351 -124 c 0,13,14
 351 -166 351 -166 321 -201.5 c 128,-1,15
 291 -237 291 -237 250 -237 c 0,16,17
 234 -237 234 -237 216 -231 c 1,18,19
 249 -182 249 -182 249 -127 c 0,20,21
 249 -90 249 -90 230 -62 c 1,22,23
 254 -50 254 -50 281 -50 c 0,10,11
EndSplineSet
Validated: 1
Position2: "'cpsp' Capital Spacing lookup 3 subtable" dx=5 dy=0 dh=10 dv=0
EndChar

StartChar: L
Encoding: 76 76 68
Width: 399
Flags: MW
LayerCount: 2
UndoRedoHistory
Layer: 0
Undoes
EndUndoes
Redoes
EndRedoes
EndUndoRedoHistory
UndoRedoHistory
Layer: 1
Undoes
EndUndoes
Redoes
EndRedoes
EndUndoRedoHistory
Fore
SplineSet
177 660 m 1,0,-1
 177 74 l 1,1,-1
 395 74 l 1,2,-1
 388 0 l 1,3,-1
 60 0 l 1,4,-1
 60 660 l 1,5,-1
 177 660 l 1,0,-1
EndSplineSet
Validated: 1
Position2: "'cpsp' Capital Spacing lookup 3 subtable" dx=5 dy=0 dh=10 dv=0
EndChar

StartChar: LJ
Encoding: 455 455 69
Width: 635
Flags: MW
LayerCount: 2
UndoRedoHistory
Layer: 0
Undoes
EndUndoes
Redoes
EndRedoes
EndUndoRedoHistory
UndoRedoHistory
Layer: 1
Undoes
EndUndoes
Redoes
EndRedoes
EndUndoRedoHistory
Fore
SplineSet
177 74 m 1,0,-1
 395 74 l 1,1,-1
 388 0 l 1,2,-1
 60 0 l 1,3,-1
 60 660 l 1,4,-1
 177 660 l 1,5,-1
 177 74 l 1,0,-1
577 95 m 2,6,7
 577 62 577 62 575 34 c 128,-1,8
 573 6 573 6 567.5 -24.5 c 128,-1,9
 562 -55 562 -55 552 -78.5 c 128,-1,10
 542 -102 542 -102 527 -121 c 128,-1,11
 512 -140 512 -140 489 -150 c 128,-1,12
 466 -160 466 -160 436 -160 c 0,13,14
 407 -160 407 -160 384.5 -148 c 128,-1,15
 362 -136 362 -136 362 -113 c 1,16,17
 392 -113 392 -113 412.5 -98.5 c 128,-1,18
 433 -84 433 -84 443 -58 c 128,-1,19
 453 -32 453 -32 456.5 -4.5 c 128,-1,20
 460 23 460 23 460 59 c 2,21,-1
 460 660 l 1,22,-1
 577 660 l 1,23,-1
 577 95 l 2,6,7
EndSplineSet
Validated: 1
Position2: "'cpsp' Capital Spacing lookup 3 subtable" dx=5 dy=0 dh=10 dv=0
EndChar

StartChar: Lacute
Encoding: 313 313 70
Width: 399
Flags: MW
LayerCount: 2
UndoRedoHistory
Layer: 0
Undoes
EndUndoes
Redoes
EndRedoes
EndUndoRedoHistory
UndoRedoHistory
Layer: 1
Undoes
EndUndoes
Redoes
EndRedoes
EndUndoRedoHistory
Fore
SplineSet
255 837 m 1,0,1
 284 816 284 816 284 786 c 0,2,3
 284 767 284 767 275 754 c 128,-1,4
 266 741 266 741 248 734.5 c 128,-1,5
 230 728 230 728 213.5 725 c 128,-1,6
 197 722 197 722 173 720 c 2,7,-1
 54 711 l 1,8,-1
 43 753 l 1,9,-1
 255 837 l 1,0,1
177 74 m 1,10,-1
 395 74 l 1,11,-1
 388 0 l 1,12,-1
 60 0 l 1,13,-1
 60 660 l 1,14,-1
 177 660 l 1,15,-1
 177 74 l 1,10,-1
EndSplineSet
Validated: 1
Position2: "'cpsp' Capital Spacing lookup 3 subtable" dx=5 dy=0 dh=10 dv=0
EndChar

StartChar: Lcaron
Encoding: 317 317 71
Width: 399
Flags: MW
LayerCount: 2
UndoRedoHistory
Layer: 0
Undoes
EndUndoes
Redoes
EndRedoes
EndUndoRedoHistory
UndoRedoHistory
Layer: 1
Undoes
EndUndoes
Redoes
EndRedoes
EndUndoRedoHistory
Fore
SplineSet
244 708 m 1,0,1
 265 720 265 720 290 720 c 0,2,3
 358 720 358 720 358 642 c 0,4,5
 358 602 358 602 330 568 c 128,-1,6
 302 534 302 534 264 534 c 0,7,8
 245 534 245 534 231 540 c 1,9,10
 263 588 263 588 263 640 c 0,11,12
 263 676 263 676 244 708 c 1,0,1
177 74 m 1,13,-1
 395 74 l 1,14,-1
 388 0 l 1,15,-1
 60 0 l 1,16,-1
 60 660 l 1,17,-1
 177 660 l 1,18,-1
 177 74 l 1,13,-1
EndSplineSet
Validated: 1
Position2: "'cpsp' Capital Spacing lookup 3 subtable" dx=5 dy=0 dh=10 dv=0
EndChar

StartChar: Lcommaaccent
Encoding: 315 315 72
Width: 399
Flags: MW
LayerCount: 2
UndoRedoHistory
Layer: 0
Undoes
EndUndoes
Redoes
EndRedoes
EndUndoRedoHistory
UndoRedoHistory
Layer: 1
Undoes
EndUndoes
Redoes
EndRedoes
EndUndoRedoHistory
Fore
SplineSet
177 74 m 1,0,-1
 395 74 l 1,1,-1
 388 0 l 1,2,-1
 60 0 l 1,3,-1
 60 660 l 1,4,-1
 177 660 l 1,5,-1
 177 74 l 1,0,-1
225 -50 m 0,6,7
 260 -50 260 -50 277.5 -69.5 c 128,-1,8
 295 -89 295 -89 295 -124 c 0,9,10
 295 -166 295 -166 265 -201.5 c 128,-1,11
 235 -237 235 -237 194 -237 c 0,12,13
 179 -237 179 -237 160 -231 c 1,14,15
 193 -183 193 -183 193 -127 c 0,16,17
 193 -90 193 -90 174 -62 c 1,18,19
 197 -50 197 -50 225 -50 c 0,6,7
EndSplineSet
Validated: 1
Position2: "'cpsp' Capital Spacing lookup 3 subtable" dx=5 dy=0 dh=10 dv=0
EndChar

StartChar: Ldot
Encoding: 319 319 73
Width: 399
Flags: MW
LayerCount: 2
UndoRedoHistory
Layer: 0
Undoes
EndUndoes
Redoes
EndRedoes
EndUndoRedoHistory
UndoRedoHistory
Layer: 1
Undoes
EndUndoes
Redoes
EndRedoes
EndUndoRedoHistory
Fore
SplineSet
177 74 m 1,0,-1
 395 74 l 1,1,-1
 388 0 l 1,2,-1
 60 0 l 1,3,-1
 60 660 l 1,4,-1
 177 660 l 1,5,-1
 177 74 l 1,0,-1
307 406 m 0,6,7
 331 406 331 406 348 390.5 c 128,-1,8
 365 375 365 375 365 349 c 0,9,10
 365 322 365 322 347 306 c 128,-1,11
 329 290 329 290 304 290 c 0,12,13
 280 290 280 290 263 305.5 c 128,-1,14
 246 321 246 321 246 347 c 0,15,16
 246 374 246 374 264 390 c 128,-1,17
 282 406 282 406 307 406 c 0,6,7
EndSplineSet
Validated: 1
Ligature2: "Ligature Substitution lookup 20 subtable" L periodcentered
Position2: "'cpsp' Capital Spacing lookup 3 subtable" dx=5 dy=0 dh=10 dv=0
EndChar

StartChar: Lj
Encoding: 456 456 74
Width: 645
Flags: MW
LayerCount: 2
UndoRedoHistory
Layer: 0
Undoes
EndUndoes
Redoes
EndRedoes
EndUndoRedoHistory
UndoRedoHistory
Layer: 1
Undoes
EndUndoes
Redoes
EndRedoes
EndUndoRedoHistory
Fore
SplineSet
526 720 m 128,-1,1
 559 720 559 720 579.5 704 c 128,-1,2
 600 688 600 688 600 658 c 0,3,4
 600 627 600 627 578.5 610.5 c 128,-1,5
 557 594 557 594 523 594 c 0,6,7
 490 594 490 594 470 610 c 128,-1,8
 450 626 450 626 450 656 c 0,9,10
 450 687 450 687 471.5 703.5 c 128,-1,0
 493 720 493 720 526 720 c 128,-1,1
177 74 m 1,11,-1
 395 74 l 1,12,-1
 388 0 l 1,13,-1
 60 0 l 1,14,-1
 60 660 l 1,15,-1
 177 660 l 1,16,-1
 177 74 l 1,11,-1
581 35 m 2,17,18
 581 -200 581 -200 441 -200 c 0,19,20
 413 -200 413 -200 392 -189 c 128,-1,21
 371 -178 371 -178 371 -156 c 1,22,23
 470 -156 470 -156 470 7 c 2,24,-1
 470 510 l 1,25,-1
 581 510 l 1,26,-1
 581 35 l 2,17,18
EndSplineSet
Validated: 1
Position2: "'cpsp' Capital Spacing lookup 3 subtable" dx=5 dy=0 dh=10 dv=0
EndChar

StartChar: Lslash
Encoding: 321 321 75
Width: 439
Flags: MW
LayerCount: 2
UndoRedoHistory
Layer: 0
Undoes
EndUndoes
Redoes
EndRedoes
EndUndoRedoHistory
UndoRedoHistory
Layer: 1
Undoes
EndUndoes
Redoes
EndRedoes
EndUndoRedoHistory
Fore
SplineSet
11 234 m 1,0,1
 -15 258 -15 258 -15 283 c 0,2,3
 -15 312 -15 312 14 324 c 2,4,-1
 100 358 l 1,5,-1
 100 660 l 1,6,-1
 217 660 l 1,7,-1
 217 404 l 1,8,-1
 341 454 l 1,9,10
 367 430 367 430 367 405 c 0,11,12
 367 376 367 376 338 364 c 2,13,-1
 217 316 l 1,14,-1
 217 74 l 1,15,-1
 435 74 l 1,16,-1
 428 0 l 1,17,-1
 100 0 l 1,18,-1
 100 269 l 1,19,-1
 11 234 l 1,0,1
EndSplineSet
Validated: 1
Position2: "'cpsp' Capital Spacing lookup 3 subtable" dx=5 dy=0 dh=10 dv=0
EndChar

StartChar: M
Encoding: 77 77 76
Width: 728
Flags: MW
LayerCount: 2
UndoRedoHistory
Layer: 0
Undoes
EndUndoes
Redoes
EndRedoes
EndUndoRedoHistory
UndoRedoHistory
Layer: 1
Undoes
EndUndoes
Redoes
EndRedoes
EndUndoRedoHistory
Fore
SplineSet
669 0 m 1,0,-1
 552 0 l 1,1,-1
 552 551 l 1,2,-1
 392 0 l 1,3,-1
 314 0 l 1,4,-1
 154 553 l 1,5,-1
 154 0 l 1,6,-1
 60 0 l 1,7,-1
 60 660 l 1,8,-1
 236 660 l 1,9,-1
 369 185 l 1,10,-1
 501 660 l 1,11,-1
 669 660 l 1,12,-1
 669 0 l 1,0,-1
EndSplineSet
Validated: 1
Position2: "'cpsp' Capital Spacing lookup 3 subtable" dx=5 dy=0 dh=10 dv=0
EndChar

StartChar: N
Encoding: 78 78 77
Width: 567
Flags: MW
LayerCount: 2
UndoRedoHistory
Layer: 0
Undoes
EndUndoes
Redoes
EndRedoes
EndUndoRedoHistory
UndoRedoHistory
Layer: 1
Undoes
EndUndoes
Redoes
EndRedoes
EndUndoRedoHistory
Fore
SplineSet
154 452 m 1,0,-1
 154 0 l 1,1,-1
 60 0 l 1,2,-1
 60 660 l 1,3,-1
 149 660 l 1,4,-1
 414 208 l 1,5,-1
 414 660 l 1,6,-1
 508 660 l 1,7,-1
 508 0 l 1,8,-1
 419 0 l 1,9,-1
 154 452 l 1,0,-1
EndSplineSet
Validated: 1
Position2: "'cpsp' Capital Spacing lookup 3 subtable" dx=5 dy=0 dh=10 dv=0
EndChar

StartChar: NJ
Encoding: 458 458 78
Width: 804
Flags: MW
LayerCount: 2
UndoRedoHistory
Layer: 0
Undoes
EndUndoes
Redoes
EndRedoes
EndUndoRedoHistory
UndoRedoHistory
Layer: 1
Undoes
EndUndoes
Redoes
EndRedoes
EndUndoRedoHistory
Fore
SplineSet
154 0 m 1,0,-1
 60 0 l 1,1,-1
 60 660 l 1,2,-1
 149 660 l 1,3,-1
 414 208 l 1,4,-1
 414 660 l 1,5,-1
 508 660 l 1,6,-1
 508 0 l 1,7,-1
 419 0 l 1,8,-1
 154 452 l 1,9,-1
 154 0 l 1,0,-1
745 95 m 2,10,11
 745 62 745 62 743 34 c 128,-1,12
 741 6 741 6 735.5 -24.5 c 128,-1,13
 730 -55 730 -55 720 -78.5 c 128,-1,14
 710 -102 710 -102 695 -121 c 128,-1,15
 680 -140 680 -140 657 -150 c 128,-1,16
 634 -160 634 -160 604 -160 c 0,17,18
 575 -160 575 -160 552.5 -148 c 128,-1,19
 530 -136 530 -136 530 -113 c 1,20,21
 560 -113 560 -113 580.5 -98.5 c 128,-1,22
 601 -84 601 -84 611 -58 c 128,-1,23
 621 -32 621 -32 624.5 -4.5 c 128,-1,24
 628 23 628 23 628 59 c 2,25,-1
 628 660 l 1,26,-1
 745 660 l 1,27,-1
 745 95 l 2,10,11
EndSplineSet
Validated: 1
Position2: "'cpsp' Capital Spacing lookup 3 subtable" dx=5 dy=0 dh=10 dv=0
EndChar

StartChar: Nacute
Encoding: 323 323 79
Width: 567
Flags: MW
LayerCount: 2
UndoRedoHistory
Layer: 0
Undoes
EndUndoes
Redoes
EndRedoes
EndUndoRedoHistory
UndoRedoHistory
Layer: 1
Undoes
EndUndoes
Redoes
EndRedoes
EndUndoRedoHistory
Fore
SplineSet
418 837 m 1,0,1
 447 816 447 816 447 786 c 0,2,3
 447 767 447 767 437.5 754 c 128,-1,4
 428 741 428 741 410.5 734.5 c 128,-1,5
 393 728 393 728 376.5 725 c 128,-1,6
 360 722 360 722 336 720 c 2,7,-1
 217 711 l 1,8,-1
 206 753 l 1,9,-1
 418 837 l 1,0,1
154 0 m 1,10,-1
 60 0 l 1,11,-1
 60 660 l 1,12,-1
 149 660 l 1,13,-1
 414 208 l 1,14,-1
 414 660 l 1,15,-1
 508 660 l 1,16,-1
 508 0 l 1,17,-1
 419 0 l 1,18,-1
 154 452 l 1,19,-1
 154 0 l 1,10,-1
EndSplineSet
Validated: 1
Substitution2: "'locl' Localized Forms in Latin lookup 13 subtable" Nacute.loclPLK
Substitution2: "'aalt' Access All Alternates lookup 0 subtable" Nacute.loclPLK
Position2: "'cpsp' Capital Spacing lookup 3 subtable" dx=5 dy=0 dh=10 dv=0
EndChar

StartChar: Ncaron
Encoding: 327 327 80
Width: 567
Flags: MW
LayerCount: 2
UndoRedoHistory
Layer: 0
Undoes
EndUndoes
Redoes
EndRedoes
EndUndoRedoHistory
UndoRedoHistory
Layer: 1
Undoes
EndUndoes
Redoes
EndRedoes
EndUndoRedoHistory
Fore
SplineSet
429 799 m 1,0,-1
 284 687 l 1,1,-1
 281 687 l 1,2,-1
 132 799 l 1,3,-1
 161 834 l 1,4,-1
 281 771 l 1,5,-1
 400 834 l 1,6,-1
 429 799 l 1,0,-1
154 0 m 1,7,-1
 60 0 l 1,8,-1
 60 660 l 1,9,-1
 149 660 l 1,10,-1
 414 208 l 1,11,-1
 414 660 l 1,12,-1
 508 660 l 1,13,-1
 508 0 l 1,14,-1
 419 0 l 1,15,-1
 154 452 l 1,16,-1
 154 0 l 1,7,-1
EndSplineSet
Validated: 1
Position2: "'cpsp' Capital Spacing lookup 3 subtable" dx=5 dy=0 dh=10 dv=0
EndChar

StartChar: Ncommaaccent
Encoding: 325 325 81
Width: 567
Flags: MW
LayerCount: 2
UndoRedoHistory
Layer: 0
Undoes
EndUndoes
Redoes
EndRedoes
EndUndoRedoHistory
UndoRedoHistory
Layer: 1
Undoes
EndUndoes
Redoes
EndRedoes
EndUndoRedoHistory
Fore
SplineSet
154 0 m 1,0,-1
 60 0 l 1,1,-1
 60 660 l 1,2,-1
 149 660 l 1,3,-1
 414 208 l 1,4,-1
 414 660 l 1,5,-1
 508 660 l 1,6,-1
 508 0 l 1,7,-1
 419 0 l 1,8,-1
 154 452 l 1,9,-1
 154 0 l 1,0,-1
282 -50 m 0,10,11
 317 -50 317 -50 334.5 -69.5 c 128,-1,12
 352 -89 352 -89 352 -124 c 0,13,14
 352 -166 352 -166 322 -201.5 c 128,-1,15
 292 -237 292 -237 251 -237 c 0,16,17
 235 -237 235 -237 217 -231 c 1,18,19
 250 -182 250 -182 250 -127 c 0,20,21
 250 -90 250 -90 231 -62 c 1,22,23
 254 -50 254 -50 282 -50 c 0,10,11
EndSplineSet
Validated: 1
Position2: "'cpsp' Capital Spacing lookup 3 subtable" dx=5 dy=0 dh=10 dv=0
EndChar

StartChar: Ndotaccent
Encoding: 7748 7748 82
Width: 567
Flags: MW
LayerCount: 2
UndoRedoHistory
Layer: 0
Undoes
EndUndoes
Redoes
EndRedoes
EndUndoRedoHistory
UndoRedoHistory
Layer: 1
Undoes
EndUndoes
Redoes
EndRedoes
EndUndoRedoHistory
Fore
SplineSet
284 850 m 128,-1,1
 317 850 317 850 337.5 834 c 128,-1,2
 358 818 358 818 358 788 c 0,3,4
 358 757 358 757 336 740.5 c 128,-1,5
 314 724 314 724 281 724 c 0,6,7
 248 724 248 724 228 740 c 128,-1,8
 208 756 208 756 208 786 c 0,9,10
 208 817 208 817 229.5 833.5 c 128,-1,0
 251 850 251 850 284 850 c 128,-1,1
154 0 m 1,11,-1
 60 0 l 1,12,-1
 60 660 l 1,13,-1
 149 660 l 1,14,-1
 414 208 l 1,15,-1
 414 660 l 1,16,-1
 508 660 l 1,17,-1
 508 0 l 1,18,-1
 419 0 l 1,19,-1
 154 452 l 1,20,-1
 154 0 l 1,11,-1
EndSplineSet
Validated: 1
Position2: "'cpsp' Capital Spacing lookup 3 subtable" dx=5 dy=0 dh=10 dv=0
EndChar

StartChar: Eng
Encoding: 330 330 83
Width: 567
Flags: MW
LayerCount: 2
UndoRedoHistory
Layer: 0
Undoes
EndUndoes
Redoes
EndRedoes
EndUndoRedoHistory
UndoRedoHistory
Layer: 1
Undoes
EndUndoes
Redoes
EndRedoes
EndUndoRedoHistory
Fore
SplineSet
508 660 m 1,0,-1
 508 39 l 2,1,2
 508 6 508 6 505.5 -19.5 c 128,-1,3
 503 -45 503 -45 496 -72.5 c 128,-1,4
 489 -100 489 -100 477 -118.5 c 128,-1,5
 465 -137 465 -137 444 -148.5 c 128,-1,6
 423 -160 423 -160 395 -160 c 0,7,8
 372 -160 372 -160 354.5 -151 c 128,-1,9
 337 -142 337 -142 337 -124 c 1,10,11
 417 -123 417 -123 421 0 c 1,12,-1
 419 0 l 1,13,-1
 154 443 l 1,14,-1
 154 0 l 1,15,-1
 60 0 l 1,16,-1
 60 660 l 1,17,-1
 149 660 l 1,18,-1
 414 217 l 1,19,-1
 414 660 l 1,20,-1
 508 660 l 1,0,-1
EndSplineSet
Validated: 1
Position2: "'cpsp' Capital Spacing lookup 3 subtable" dx=5 dy=0 dh=10 dv=0
EndChar

StartChar: Nj
Encoding: 459 459 84
Width: 814
Flags: MW
LayerCount: 2
UndoRedoHistory
Layer: 0
Undoes
EndUndoes
Redoes
EndRedoes
EndUndoRedoHistory
UndoRedoHistory
Layer: 1
Undoes
EndUndoes
Redoes
EndRedoes
EndUndoRedoHistory
Fore
SplineSet
694 720 m 128,-1,1
 727 720 727 720 747.5 704 c 128,-1,2
 768 688 768 688 768 658 c 0,3,4
 768 627 768 627 746.5 610.5 c 128,-1,5
 725 594 725 594 691 594 c 0,6,7
 658 594 658 594 638 610 c 128,-1,8
 618 626 618 626 618 656 c 0,9,10
 618 687 618 687 639.5 703.5 c 128,-1,0
 661 720 661 720 694 720 c 128,-1,1
154 0 m 1,11,-1
 60 0 l 1,12,-1
 60 660 l 1,13,-1
 149 660 l 1,14,-1
 414 208 l 1,15,-1
 414 660 l 1,16,-1
 508 660 l 1,17,-1
 508 0 l 1,18,-1
 419 0 l 1,19,-1
 154 452 l 1,20,-1
 154 0 l 1,11,-1
749 35 m 2,21,22
 749 -200 749 -200 609 -200 c 0,23,24
 581 -200 581 -200 560 -189 c 128,-1,25
 539 -178 539 -178 539 -156 c 1,26,27
 638 -156 638 -156 638 7 c 2,28,-1
 638 510 l 1,29,-1
 749 510 l 1,30,-1
 749 35 l 2,21,22
EndSplineSet
Validated: 1
Position2: "'cpsp' Capital Spacing lookup 3 subtable" dx=5 dy=0 dh=10 dv=0
EndChar

StartChar: Ntilde
Encoding: 209 209 85
Width: 567
Flags: MW
LayerCount: 2
UndoRedoHistory
Layer: 0
Undoes
EndUndoes
Redoes
EndRedoes
EndUndoRedoHistory
UndoRedoHistory
Layer: 1
Undoes
EndUndoes
Redoes
EndRedoes
EndUndoRedoHistory
Fore
SplineSet
407 820 m 1,0,1
 434 802 434 802 434 769 c 0,2,3
 434 745 434 745 417 732.5 c 128,-1,4
 400 720 400 720 373 720 c 0,5,6
 351 720 351 720 290.5 732 c 128,-1,7
 230 744 230 744 211 744 c 0,8,9
 174 744 174 744 158 729 c 1,10,11
 131 747 131 747 131 780 c 0,12,13
 131 804 131 804 148 816.5 c 128,-1,14
 165 829 165 829 192 829 c 0,15,16
 215 829 215 829 274.5 817 c 128,-1,17
 334 805 334 805 354 805 c 0,18,19
 391 805 391 805 407 820 c 1,0,1
154 0 m 1,20,-1
 60 0 l 1,21,-1
 60 660 l 1,22,-1
 149 660 l 1,23,-1
 414 208 l 1,24,-1
 414 660 l 1,25,-1
 508 660 l 1,26,-1
 508 0 l 1,27,-1
 419 0 l 1,28,-1
 154 452 l 1,29,-1
 154 0 l 1,20,-1
EndSplineSet
Validated: 1
Position2: "'cpsp' Capital Spacing lookup 3 subtable" dx=5 dy=0 dh=10 dv=0
EndChar

StartChar: O
Encoding: 79 79 86
Width: 580
Flags: MW
LayerCount: 2
UndoRedoHistory
Layer: 0
Undoes
EndUndoes
Redoes
EndRedoes
EndUndoRedoHistory
UndoRedoHistory
Layer: 1
Undoes
EndUndoes
Redoes
EndRedoes
EndUndoRedoHistory
Fore
SplineSet
291 680 m 0,0,1
 547 680 547 680 547 339 c 0,2,3
 547 -22 547 -22 291 -22 c 0,4,5
 233 -22 233 -22 188.5 -4.5 c 128,-1,6
 144 13 144 13 115 43.5 c 128,-1,7
 86 74 86 74 67.5 118.5 c 128,-1,8
 49 163 49 163 41.5 214 c 128,-1,9
 34 265 34 265 34 327 c 0,10,11
 34 387 34 387 42 438 c 128,-1,12
 50 489 50 489 69 534.5 c 128,-1,13
 88 580 88 580 117 612 c 128,-1,14
 146 644 146 644 190 662 c 128,-1,15
 234 680 234 680 291 680 c 0,0,1
291 48 m 128,-1,17
 316 48 316 48 336 57.5 c 128,-1,18
 356 67 356 67 369.5 82.5 c 128,-1,19
 383 98 383 98 393 122 c 128,-1,20
 403 146 403 146 408 169 c 128,-1,21
 413 192 413 192 416 222.5 c 128,-1,22
 419 253 419 253 420 277 c 128,-1,23
 421 301 421 301 421 332 c 0,24,25
 421 361 421 361 420 385 c 128,-1,26
 419 409 419 409 415.5 438.5 c 128,-1,27
 412 468 412 468 406.5 491.5 c 128,-1,28
 401 515 401 515 391 538 c 128,-1,29
 381 561 381 561 368 576 c 128,-1,30
 355 591 355 591 335 600.5 c 128,-1,31
 315 610 315 610 291 610 c 0,32,33
 263 610 263 610 240.5 598 c 128,-1,34
 218 586 218 586 204 564 c 128,-1,35
 190 542 190 542 181 516 c 128,-1,36
 172 490 172 490 168 456 c 128,-1,37
 164 422 164 422 162 394 c 128,-1,38
 160 366 160 366 160 332 c 0,39,40
 160 301 160 301 161 277.5 c 128,-1,41
 162 254 162 254 165 223 c 128,-1,42
 168 192 168 192 173.5 169 c 128,-1,43
 179 146 179 146 188.5 122 c 128,-1,44
 198 98 198 98 211.5 82.5 c 128,-1,45
 225 67 225 67 245.5 57.5 c 128,-1,16
 266 48 266 48 291 48 c 128,-1,17
EndSplineSet
Validated: 1
Substitution2: "Single Substitution lookup 21 subtable" ordmasculine
Substitution2: "'aalt' Access All Alternates lookup 0 subtable" ordmasculine
Position2: "'cpsp' Capital Spacing lookup 3 subtable" dx=5 dy=0 dh=10 dv=0
EndChar

StartChar: Oacute
Encoding: 211 211 87
Width: 580
Flags: MW
LayerCount: 2
UndoRedoHistory
Layer: 0
Undoes
EndUndoes
Redoes
EndRedoes
EndUndoRedoHistory
UndoRedoHistory
Layer: 1
Undoes
EndUndoes
Redoes
EndRedoes
EndUndoRedoHistory
Fore
SplineSet
426 837 m 1,0,1
 455 816 455 816 455 786 c 0,2,3
 455 767 455 767 446 754 c 128,-1,4
 437 741 437 741 419 734.5 c 128,-1,5
 401 728 401 728 384.5 725 c 128,-1,6
 368 722 368 722 344 720 c 2,7,-1
 225 711 l 1,8,-1
 214 753 l 1,9,-1
 426 837 l 1,0,1
291 680 m 0,10,11
 547 680 547 680 547 339 c 0,12,13
 547 -22 547 -22 291 -22 c 0,14,15
 233 -22 233 -22 188.5 -4.5 c 128,-1,16
 144 13 144 13 115 43.5 c 128,-1,17
 86 74 86 74 67.5 118.5 c 128,-1,18
 49 163 49 163 41.5 214 c 128,-1,19
 34 265 34 265 34 327 c 0,20,21
 34 387 34 387 42 438 c 128,-1,22
 50 489 50 489 69 534.5 c 128,-1,23
 88 580 88 580 117 612 c 128,-1,24
 146 644 146 644 190 662 c 128,-1,25
 234 680 234 680 291 680 c 0,10,11
291 48 m 128,-1,27
 316 48 316 48 336 57.5 c 128,-1,28
 356 67 356 67 369.5 82.5 c 128,-1,29
 383 98 383 98 393 122 c 128,-1,30
 403 146 403 146 408 169 c 128,-1,31
 413 192 413 192 416 222.5 c 128,-1,32
 419 253 419 253 420 277 c 128,-1,33
 421 301 421 301 421 332 c 0,34,35
 421 361 421 361 420 385 c 128,-1,36
 419 409 419 409 415.5 438.5 c 128,-1,37
 412 468 412 468 406.5 491.5 c 128,-1,38
 401 515 401 515 391 538 c 128,-1,39
 381 561 381 561 368 576 c 128,-1,40
 355 591 355 591 335 600.5 c 128,-1,41
 315 610 315 610 291 610 c 0,42,43
 263 610 263 610 240.5 598 c 128,-1,44
 218 586 218 586 204 564 c 128,-1,45
 190 542 190 542 181 516 c 128,-1,46
 172 490 172 490 168 456 c 128,-1,47
 164 422 164 422 162 394 c 128,-1,48
 160 366 160 366 160 332 c 0,49,50
 160 301 160 301 161 277.5 c 128,-1,51
 162 254 162 254 165 223 c 128,-1,52
 168 192 168 192 173.5 169 c 128,-1,53
 179 146 179 146 188.5 122 c 128,-1,54
 198 98 198 98 211.5 82.5 c 128,-1,55
 225 67 225 67 245.5 57.5 c 128,-1,26
 266 48 266 48 291 48 c 128,-1,27
EndSplineSet
Validated: 1
Substitution2: "'locl' Localized Forms in Latin lookup 13 subtable" Oacute.loclPLK
Substitution2: "'aalt' Access All Alternates lookup 0 subtable" Oacute.loclPLK
Position2: "'cpsp' Capital Spacing lookup 3 subtable" dx=5 dy=0 dh=10 dv=0
EndChar

StartChar: Obreve
Encoding: 334 334 88
Width: 580
Flags: MW
LayerCount: 2
UndoRedoHistory
Layer: 0
Undoes
EndUndoes
Redoes
EndRedoes
EndUndoRedoHistory
UndoRedoHistory
Layer: 1
Undoes
EndUndoes
Redoes
EndRedoes
EndUndoRedoHistory
Fore
SplineSet
441 823 m 1,0,1
 441 758 441 758 399.5 721.5 c 128,-1,2
 358 685 358 685 290 685 c 128,-1,3
 222 685 222 685 181 721.5 c 128,-1,4
 140 758 140 758 140 823 c 1,5,-1
 231 823 l 1,6,7
 231 737 231 737 290 737 c 128,-1,8
 349 737 349 737 349 823 c 1,9,-1
 441 823 l 1,0,1
291 680 m 0,10,11
 547 680 547 680 547 339 c 0,12,13
 547 -22 547 -22 291 -22 c 0,14,15
 233 -22 233 -22 188.5 -4.5 c 128,-1,16
 144 13 144 13 115 43.5 c 128,-1,17
 86 74 86 74 67.5 118.5 c 128,-1,18
 49 163 49 163 41.5 214 c 128,-1,19
 34 265 34 265 34 327 c 0,20,21
 34 387 34 387 42 438 c 128,-1,22
 50 489 50 489 69 534.5 c 128,-1,23
 88 580 88 580 117 612 c 128,-1,24
 146 644 146 644 190 662 c 128,-1,25
 234 680 234 680 291 680 c 0,10,11
291 48 m 128,-1,27
 316 48 316 48 336 57.5 c 128,-1,28
 356 67 356 67 369.5 82.5 c 128,-1,29
 383 98 383 98 393 122 c 128,-1,30
 403 146 403 146 408 169 c 128,-1,31
 413 192 413 192 416 222.5 c 128,-1,32
 419 253 419 253 420 277 c 128,-1,33
 421 301 421 301 421 332 c 0,34,35
 421 361 421 361 420 385 c 128,-1,36
 419 409 419 409 415.5 438.5 c 128,-1,37
 412 468 412 468 406.5 491.5 c 128,-1,38
 401 515 401 515 391 538 c 128,-1,39
 381 561 381 561 368 576 c 128,-1,40
 355 591 355 591 335 600.5 c 128,-1,41
 315 610 315 610 291 610 c 0,42,43
 263 610 263 610 240.5 598 c 128,-1,44
 218 586 218 586 204 564 c 128,-1,45
 190 542 190 542 181 516 c 128,-1,46
 172 490 172 490 168 456 c 128,-1,47
 164 422 164 422 162 394 c 128,-1,48
 160 366 160 366 160 332 c 0,49,50
 160 301 160 301 161 277.5 c 128,-1,51
 162 254 162 254 165 223 c 128,-1,52
 168 192 168 192 173.5 169 c 128,-1,53
 179 146 179 146 188.5 122 c 128,-1,54
 198 98 198 98 211.5 82.5 c 128,-1,55
 225 67 225 67 245.5 57.5 c 128,-1,26
 266 48 266 48 291 48 c 128,-1,27
EndSplineSet
Validated: 1
Position2: "'cpsp' Capital Spacing lookup 3 subtable" dx=5 dy=0 dh=10 dv=0
EndChar

StartChar: Ocircumflex
Encoding: 212 212 89
Width: 580
Flags: MW
LayerCount: 2
UndoRedoHistory
Layer: 0
Undoes
EndUndoes
Redoes
EndRedoes
EndUndoRedoHistory
UndoRedoHistory
Layer: 1
Undoes
EndUndoes
Redoes
EndRedoes
EndUndoRedoHistory
Fore
SplineSet
143 704 m 1,0,-1
 288 836 l 1,1,-1
 292 836 l 1,2,-1
 441 704 l 1,3,-1
 411 669 l 1,4,-1
 291 742 l 1,5,-1
 172 669 l 1,6,-1
 143 704 l 1,0,-1
291 680 m 0,7,8
 547 680 547 680 547 339 c 0,9,10
 547 -22 547 -22 291 -22 c 0,11,12
 233 -22 233 -22 188.5 -4.5 c 128,-1,13
 144 13 144 13 115 43.5 c 128,-1,14
 86 74 86 74 67.5 118.5 c 128,-1,15
 49 163 49 163 41.5 214 c 128,-1,16
 34 265 34 265 34 327 c 0,17,18
 34 387 34 387 42 438 c 128,-1,19
 50 489 50 489 69 534.5 c 128,-1,20
 88 580 88 580 117 612 c 128,-1,21
 146 644 146 644 190 662 c 128,-1,22
 234 680 234 680 291 680 c 0,7,8
291 48 m 128,-1,24
 316 48 316 48 336 57.5 c 128,-1,25
 356 67 356 67 369.5 82.5 c 128,-1,26
 383 98 383 98 393 122 c 128,-1,27
 403 146 403 146 408 169 c 128,-1,28
 413 192 413 192 416 222.5 c 128,-1,29
 419 253 419 253 420 277 c 128,-1,30
 421 301 421 301 421 332 c 0,31,32
 421 361 421 361 420 385 c 128,-1,33
 419 409 419 409 415.5 438.5 c 128,-1,34
 412 468 412 468 406.5 491.5 c 128,-1,35
 401 515 401 515 391 538 c 128,-1,36
 381 561 381 561 368 576 c 128,-1,37
 355 591 355 591 335 600.5 c 128,-1,38
 315 610 315 610 291 610 c 0,39,40
 263 610 263 610 240.5 598 c 128,-1,41
 218 586 218 586 204 564 c 128,-1,42
 190 542 190 542 181 516 c 128,-1,43
 172 490 172 490 168 456 c 128,-1,44
 164 422 164 422 162 394 c 128,-1,45
 160 366 160 366 160 332 c 0,46,47
 160 301 160 301 161 277.5 c 128,-1,48
 162 254 162 254 165 223 c 128,-1,49
 168 192 168 192 173.5 169 c 128,-1,50
 179 146 179 146 188.5 122 c 128,-1,51
 198 98 198 98 211.5 82.5 c 128,-1,52
 225 67 225 67 245.5 57.5 c 128,-1,23
 266 48 266 48 291 48 c 128,-1,24
EndSplineSet
Validated: 1
Position2: "'cpsp' Capital Spacing lookup 3 subtable" dx=5 dy=0 dh=10 dv=0
EndChar

StartChar: Odieresis
Encoding: 214 214 90
Width: 580
Flags: MW
LayerCount: 2
UndoRedoHistory
Layer: 0
Undoes
EndUndoes
Redoes
EndRedoes
EndUndoRedoHistory
UndoRedoHistory
Layer: 1
Undoes
EndUndoes
Redoes
EndRedoes
EndUndoRedoHistory
Fore
SplineSet
192 836 m 128,-1,1
 225 836 225 836 245.5 820 c 128,-1,2
 266 804 266 804 266 774 c 0,3,4
 266 743 266 743 244.5 726.5 c 128,-1,5
 223 710 223 710 189 710 c 0,6,7
 156 710 156 710 136 726 c 128,-1,8
 116 742 116 742 116 772 c 0,9,10
 116 803 116 803 137.5 819.5 c 128,-1,0
 159 836 159 836 192 836 c 128,-1,1
391 836 m 128,-1,12
 424 836 424 836 444.5 820 c 128,-1,13
 465 804 465 804 465 774 c 0,14,15
 465 743 465 743 443.5 726.5 c 128,-1,16
 422 710 422 710 388 710 c 0,17,18
 355 710 355 710 335 726 c 128,-1,19
 315 742 315 742 315 772 c 0,20,21
 315 803 315 803 336.5 819.5 c 128,-1,11
 358 836 358 836 391 836 c 128,-1,12
291 680 m 0,22,23
 547 680 547 680 547 339 c 0,24,25
 547 -22 547 -22 291 -22 c 0,26,27
 233 -22 233 -22 188.5 -4.5 c 128,-1,28
 144 13 144 13 115 43.5 c 128,-1,29
 86 74 86 74 67.5 118.5 c 128,-1,30
 49 163 49 163 41.5 214 c 128,-1,31
 34 265 34 265 34 327 c 0,32,33
 34 387 34 387 42 438 c 128,-1,34
 50 489 50 489 69 534.5 c 128,-1,35
 88 580 88 580 117 612 c 128,-1,36
 146 644 146 644 190 662 c 128,-1,37
 234 680 234 680 291 680 c 0,22,23
291 48 m 128,-1,39
 316 48 316 48 336 57.5 c 128,-1,40
 356 67 356 67 369.5 82.5 c 128,-1,41
 383 98 383 98 393 122 c 128,-1,42
 403 146 403 146 408 169 c 128,-1,43
 413 192 413 192 416 222.5 c 128,-1,44
 419 253 419 253 420 277 c 128,-1,45
 421 301 421 301 421 332 c 0,46,47
 421 361 421 361 420 385 c 128,-1,48
 419 409 419 409 415.5 438.5 c 128,-1,49
 412 468 412 468 406.5 491.5 c 128,-1,50
 401 515 401 515 391 538 c 128,-1,51
 381 561 381 561 368 576 c 128,-1,52
 355 591 355 591 335 600.5 c 128,-1,53
 315 610 315 610 291 610 c 0,54,55
 263 610 263 610 240.5 598 c 128,-1,56
 218 586 218 586 204 564 c 128,-1,57
 190 542 190 542 181 516 c 128,-1,58
 172 490 172 490 168 456 c 128,-1,59
 164 422 164 422 162 394 c 128,-1,60
 160 366 160 366 160 332 c 0,61,62
 160 301 160 301 161 277.5 c 128,-1,63
 162 254 162 254 165 223 c 128,-1,64
 168 192 168 192 173.5 169 c 128,-1,65
 179 146 179 146 188.5 122 c 128,-1,66
 198 98 198 98 211.5 82.5 c 128,-1,67
 225 67 225 67 245.5 57.5 c 128,-1,38
 266 48 266 48 291 48 c 128,-1,39
EndSplineSet
Validated: 1
Position2: "'cpsp' Capital Spacing lookup 3 subtable" dx=5 dy=0 dh=10 dv=0
EndChar

StartChar: Odotbelow
Encoding: 7884 7884 91
Width: 580
Flags: MW
LayerCount: 2
UndoRedoHistory
Layer: 0
Undoes
EndUndoes
Redoes
EndRedoes
EndUndoRedoHistory
UndoRedoHistory
Layer: 1
Undoes
EndUndoes
Redoes
EndRedoes
EndUndoRedoHistory
Fore
SplineSet
291 680 m 0,0,1
 547 680 547 680 547 339 c 0,2,3
 547 -22 547 -22 291 -22 c 0,4,5
 233 -22 233 -22 188.5 -4.5 c 128,-1,6
 144 13 144 13 115 43.5 c 128,-1,7
 86 74 86 74 67.5 118.5 c 128,-1,8
 49 163 49 163 41.5 214 c 128,-1,9
 34 265 34 265 34 327 c 0,10,11
 34 387 34 387 42 438 c 128,-1,12
 50 489 50 489 69 534.5 c 128,-1,13
 88 580 88 580 117 612 c 128,-1,14
 146 644 146 644 190 662 c 128,-1,15
 234 680 234 680 291 680 c 0,0,1
291 48 m 128,-1,17
 316 48 316 48 336 57.5 c 128,-1,18
 356 67 356 67 369.5 82.5 c 128,-1,19
 383 98 383 98 393 122 c 128,-1,20
 403 146 403 146 408 169 c 128,-1,21
 413 192 413 192 416 222.5 c 128,-1,22
 419 253 419 253 420 277 c 128,-1,23
 421 301 421 301 421 332 c 0,24,25
 421 361 421 361 420 385 c 128,-1,26
 419 409 419 409 415.5 438.5 c 128,-1,27
 412 468 412 468 406.5 491.5 c 128,-1,28
 401 515 401 515 391 538 c 128,-1,29
 381 561 381 561 368 576 c 128,-1,30
 355 591 355 591 335 600.5 c 128,-1,31
 315 610 315 610 291 610 c 0,32,33
 263 610 263 610 240.5 598 c 128,-1,34
 218 586 218 586 204 564 c 128,-1,35
 190 542 190 542 181 516 c 128,-1,36
 172 490 172 490 168 456 c 128,-1,37
 164 422 164 422 162 394 c 128,-1,38
 160 366 160 366 160 332 c 0,39,40
 160 301 160 301 161 277.5 c 128,-1,41
 162 254 162 254 165 223 c 128,-1,42
 168 192 168 192 173.5 169 c 128,-1,43
 179 146 179 146 188.5 122 c 128,-1,44
 198 98 198 98 211.5 82.5 c 128,-1,45
 225 67 225 67 245.5 57.5 c 128,-1,16
 266 48 266 48 291 48 c 128,-1,17
290 -54 m 128,-1,47
 323 -54 323 -54 343.5 -70 c 128,-1,48
 364 -86 364 -86 364 -116 c 0,49,50
 364 -147 364 -147 342.5 -163.5 c 128,-1,51
 321 -180 321 -180 287 -180 c 0,52,53
 254 -180 254 -180 234 -164 c 128,-1,54
 214 -148 214 -148 214 -118 c 0,55,56
 214 -87 214 -87 235.5 -70.5 c 128,-1,46
 257 -54 257 -54 290 -54 c 128,-1,47
EndSplineSet
Validated: 1
Position2: "'cpsp' Capital Spacing lookup 3 subtable" dx=5 dy=0 dh=10 dv=0
EndChar

StartChar: Ograve
Encoding: 210 210 92
Width: 580
Flags: MW
LayerCount: 2
UndoRedoHistory
Layer: 0
Undoes
EndUndoes
Redoes
EndRedoes
EndUndoRedoHistory
UndoRedoHistory
Layer: 1
Undoes
EndUndoes
Redoes
EndRedoes
EndUndoRedoHistory
Fore
SplineSet
236 720 m 2,0,1
 212 722 212 722 195.5 725 c 128,-1,2
 179 728 179 728 161.5 734.5 c 128,-1,3
 144 741 144 741 135 754 c 128,-1,4
 126 767 126 767 126 786 c 0,5,6
 126 817 126 817 154 837 c 1,7,-1
 367 753 l 1,8,-1
 356 711 l 1,9,-1
 236 720 l 2,0,1
291 680 m 0,10,11
 547 680 547 680 547 339 c 0,12,13
 547 -22 547 -22 291 -22 c 0,14,15
 233 -22 233 -22 188.5 -4.5 c 128,-1,16
 144 13 144 13 115 43.5 c 128,-1,17
 86 74 86 74 67.5 118.5 c 128,-1,18
 49 163 49 163 41.5 214 c 128,-1,19
 34 265 34 265 34 327 c 0,20,21
 34 387 34 387 42 438 c 128,-1,22
 50 489 50 489 69 534.5 c 128,-1,23
 88 580 88 580 117 612 c 128,-1,24
 146 644 146 644 190 662 c 128,-1,25
 234 680 234 680 291 680 c 0,10,11
291 48 m 128,-1,27
 316 48 316 48 336 57.5 c 128,-1,28
 356 67 356 67 369.5 82.5 c 128,-1,29
 383 98 383 98 393 122 c 128,-1,30
 403 146 403 146 408 169 c 128,-1,31
 413 192 413 192 416 222.5 c 128,-1,32
 419 253 419 253 420 277 c 128,-1,33
 421 301 421 301 421 332 c 0,34,35
 421 361 421 361 420 385 c 128,-1,36
 419 409 419 409 415.5 438.5 c 128,-1,37
 412 468 412 468 406.5 491.5 c 128,-1,38
 401 515 401 515 391 538 c 128,-1,39
 381 561 381 561 368 576 c 128,-1,40
 355 591 355 591 335 600.5 c 128,-1,41
 315 610 315 610 291 610 c 0,42,43
 263 610 263 610 240.5 598 c 128,-1,44
 218 586 218 586 204 564 c 128,-1,45
 190 542 190 542 181 516 c 128,-1,46
 172 490 172 490 168 456 c 128,-1,47
 164 422 164 422 162 394 c 128,-1,48
 160 366 160 366 160 332 c 0,49,50
 160 301 160 301 161 277.5 c 128,-1,51
 162 254 162 254 165 223 c 128,-1,52
 168 192 168 192 173.5 169 c 128,-1,53
 179 146 179 146 188.5 122 c 128,-1,54
 198 98 198 98 211.5 82.5 c 128,-1,55
 225 67 225 67 245.5 57.5 c 128,-1,26
 266 48 266 48 291 48 c 128,-1,27
EndSplineSet
Validated: 1
Position2: "'cpsp' Capital Spacing lookup 3 subtable" dx=5 dy=0 dh=10 dv=0
EndChar

StartChar: Ohungarumlaut
Encoding: 336 336 93
Width: 580
Flags: MW
LayerCount: 2
UndoRedoHistory
Layer: 0
Undoes
EndUndoes
Redoes
EndRedoes
EndUndoRedoHistory
UndoRedoHistory
Layer: 1
Undoes
EndUndoes
Redoes
EndRedoes
EndUndoRedoHistory
Fore
SplineSet
313 849 m 1,0,1
 330 842 330 842 340 830 c 128,-1,2
 350 818 350 818 350 803 c 0,3,4
 350 795 350 795 346.5 787.5 c 128,-1,5
 343 780 343 780 334.5 773 c 128,-1,6
 326 766 326 766 320 761.5 c 128,-1,7
 314 757 314 757 299.5 750.5 c 128,-1,8
 285 744 285 744 280 741.5 c 128,-1,9
 275 739 275 739 258 732 c 0,10,11
 254 731 254 731 252 730 c 2,12,-1
 177 703 l 1,13,-1
 158 742 l 1,14,-1
 313 849 l 1,0,1
500 849 m 1,15,16
 517 842 517 842 527 830 c 128,-1,17
 537 818 537 818 537 803 c 0,18,19
 537 795 537 795 533.5 787 c 128,-1,20
 530 779 530 779 520.5 772 c 128,-1,21
 511 765 511 765 505 760 c 128,-1,22
 499 755 499 755 483 748 c 128,-1,23
 467 741 467 741 462.5 739 c 128,-1,24
 458 737 458 737 440 730 c 2,25,-1
 364 703 l 1,26,-1
 345 742 l 1,27,-1
 500 849 l 1,15,16
291 680 m 0,28,29
 547 680 547 680 547 339 c 0,30,31
 547 -22 547 -22 291 -22 c 0,32,33
 233 -22 233 -22 188.5 -4.5 c 128,-1,34
 144 13 144 13 115 43.5 c 128,-1,35
 86 74 86 74 67.5 118.5 c 128,-1,36
 49 163 49 163 41.5 214 c 128,-1,37
 34 265 34 265 34 327 c 0,38,39
 34 387 34 387 42 438 c 128,-1,40
 50 489 50 489 69 534.5 c 128,-1,41
 88 580 88 580 117 612 c 128,-1,42
 146 644 146 644 190 662 c 128,-1,43
 234 680 234 680 291 680 c 0,28,29
291 48 m 128,-1,45
 316 48 316 48 336 57.5 c 128,-1,46
 356 67 356 67 369.5 82.5 c 128,-1,47
 383 98 383 98 393 122 c 128,-1,48
 403 146 403 146 408 169 c 128,-1,49
 413 192 413 192 416 222.5 c 128,-1,50
 419 253 419 253 420 277 c 128,-1,51
 421 301 421 301 421 332 c 0,52,53
 421 361 421 361 420 385 c 128,-1,54
 419 409 419 409 415.5 438.5 c 128,-1,55
 412 468 412 468 406.5 491.5 c 128,-1,56
 401 515 401 515 391 538 c 128,-1,57
 381 561 381 561 368 576 c 128,-1,58
 355 591 355 591 335 600.5 c 128,-1,59
 315 610 315 610 291 610 c 0,60,61
 263 610 263 610 240.5 598 c 128,-1,62
 218 586 218 586 204 564 c 128,-1,63
 190 542 190 542 181 516 c 128,-1,64
 172 490 172 490 168 456 c 128,-1,65
 164 422 164 422 162 394 c 128,-1,66
 160 366 160 366 160 332 c 0,67,68
 160 301 160 301 161 277.5 c 128,-1,69
 162 254 162 254 165 223 c 128,-1,70
 168 192 168 192 173.5 169 c 128,-1,71
 179 146 179 146 188.5 122 c 128,-1,72
 198 98 198 98 211.5 82.5 c 128,-1,73
 225 67 225 67 245.5 57.5 c 128,-1,44
 266 48 266 48 291 48 c 128,-1,45
EndSplineSet
Validated: 1
Position2: "'cpsp' Capital Spacing lookup 3 subtable" dx=5 dy=0 dh=10 dv=0
EndChar

StartChar: Omacron
Encoding: 332 332 94
Width: 580
Flags: MW
LayerCount: 2
UndoRedoHistory
Layer: 0
Undoes
EndUndoes
Redoes
EndRedoes
EndUndoRedoHistory
UndoRedoHistory
Layer: 1
Undoes
EndUndoes
Redoes
EndRedoes
EndUndoRedoHistory
Fore
SplineSet
420 824 m 1,0,1
 428 803 428 803 428 786 c 0,2,3
 428 742 428 742 370 742 c 2,4,-1
 160 742 l 1,5,6
 153 759 153 759 153 778 c 0,7,8
 153 799 153 799 166.5 811.5 c 128,-1,9
 180 824 180 824 204 824 c 2,10,-1
 420 824 l 1,0,1
291 680 m 0,11,12
 547 680 547 680 547 339 c 0,13,14
 547 -22 547 -22 291 -22 c 0,15,16
 233 -22 233 -22 188.5 -4.5 c 128,-1,17
 144 13 144 13 115 43.5 c 128,-1,18
 86 74 86 74 67.5 118.5 c 128,-1,19
 49 163 49 163 41.5 214 c 128,-1,20
 34 265 34 265 34 327 c 0,21,22
 34 387 34 387 42 438 c 128,-1,23
 50 489 50 489 69 534.5 c 128,-1,24
 88 580 88 580 117 612 c 128,-1,25
 146 644 146 644 190 662 c 128,-1,26
 234 680 234 680 291 680 c 0,11,12
291 48 m 128,-1,28
 316 48 316 48 336 57.5 c 128,-1,29
 356 67 356 67 369.5 82.5 c 128,-1,30
 383 98 383 98 393 122 c 128,-1,31
 403 146 403 146 408 169 c 128,-1,32
 413 192 413 192 416 222.5 c 128,-1,33
 419 253 419 253 420 277 c 128,-1,34
 421 301 421 301 421 332 c 0,35,36
 421 361 421 361 420 385 c 128,-1,37
 419 409 419 409 415.5 438.5 c 128,-1,38
 412 468 412 468 406.5 491.5 c 128,-1,39
 401 515 401 515 391 538 c 128,-1,40
 381 561 381 561 368 576 c 128,-1,41
 355 591 355 591 335 600.5 c 128,-1,42
 315 610 315 610 291 610 c 0,43,44
 263 610 263 610 240.5 598 c 128,-1,45
 218 586 218 586 204 564 c 128,-1,46
 190 542 190 542 181 516 c 128,-1,47
 172 490 172 490 168 456 c 128,-1,48
 164 422 164 422 162 394 c 128,-1,49
 160 366 160 366 160 332 c 0,50,51
 160 301 160 301 161 277.5 c 128,-1,52
 162 254 162 254 165 223 c 128,-1,53
 168 192 168 192 173.5 169 c 128,-1,54
 179 146 179 146 188.5 122 c 128,-1,55
 198 98 198 98 211.5 82.5 c 128,-1,56
 225 67 225 67 245.5 57.5 c 128,-1,27
 266 48 266 48 291 48 c 128,-1,28
EndSplineSet
Validated: 1
Position2: "'cpsp' Capital Spacing lookup 3 subtable" dx=5 dy=0 dh=10 dv=0
EndChar

StartChar: Oogonek
Encoding: 490 490 95
Width: 580
Flags: MW
LayerCount: 2
UndoRedoHistory
Layer: 0
Undoes
EndUndoes
Redoes
EndRedoes
EndUndoRedoHistory
UndoRedoHistory
Layer: 1
Undoes
EndUndoes
Redoes
EndRedoes
EndUndoRedoHistory
Fore
SplineSet
403 0 m 1,0,1
 367 -27 367 -27 345 -64 c 128,-1,2
 323 -101 323 -101 323 -140 c 0,3,4
 323 -170 323 -170 335.5 -184 c 128,-1,5
 348 -198 348 -198 379 -198 c 0,6,7
 407 -198 407 -198 426 -177 c 1,8,9
 437 -187 437 -187 437 -202 c 0,10,11
 437 -230 437 -230 413 -243 c 128,-1,12
 389 -256 389 -256 355 -256 c 0,13,14
 305 -256 305 -256 277 -229 c 128,-1,15
 249 -202 249 -202 249 -153 c 0,16,17
 249 -78 249 -78 316 -21 c 1,18,19
 308 -22 308 -22 291 -22 c 0,20,21
 233 -22 233 -22 188.5 -4.5 c 128,-1,22
 144 13 144 13 115 43.5 c 128,-1,23
 86 74 86 74 67.5 118.5 c 128,-1,24
 49 163 49 163 41.5 214 c 128,-1,25
 34 265 34 265 34 327 c 0,26,27
 34 387 34 387 42 438 c 128,-1,28
 50 489 50 489 69 534.5 c 128,-1,29
 88 580 88 580 117 612 c 128,-1,30
 146 644 146 644 190 662 c 128,-1,31
 234 680 234 680 291 680 c 0,32,33
 547 680 547 680 547 339 c 0,34,35
 547 67 547 67 403 0 c 1,0,1
291 48 m 128,-1,37
 316 48 316 48 336 57.5 c 128,-1,38
 356 67 356 67 369.5 82.5 c 128,-1,39
 383 98 383 98 393 122 c 128,-1,40
 403 146 403 146 408 169 c 128,-1,41
 413 192 413 192 416 222.5 c 128,-1,42
 419 253 419 253 420 277 c 128,-1,43
 421 301 421 301 421 332 c 0,44,45
 421 361 421 361 420 385 c 128,-1,46
 419 409 419 409 415.5 438.5 c 128,-1,47
 412 468 412 468 406.5 491.5 c 128,-1,48
 401 515 401 515 391 538 c 128,-1,49
 381 561 381 561 368 576 c 128,-1,50
 355 591 355 591 335 600.5 c 128,-1,51
 315 610 315 610 291 610 c 0,52,53
 263 610 263 610 240.5 598 c 128,-1,54
 218 586 218 586 204 564 c 128,-1,55
 190 542 190 542 181 516 c 128,-1,56
 172 490 172 490 168 456 c 128,-1,57
 164 422 164 422 162 394 c 128,-1,58
 160 366 160 366 160 332 c 0,59,60
 160 301 160 301 161 277.5 c 128,-1,61
 162 254 162 254 165 223 c 128,-1,62
 168 192 168 192 173.5 169 c 128,-1,63
 179 146 179 146 188.5 122 c 128,-1,64
 198 98 198 98 211.5 82.5 c 128,-1,65
 225 67 225 67 245.5 57.5 c 128,-1,36
 266 48 266 48 291 48 c 128,-1,37
EndSplineSet
Validated: 1
Position2: "'cpsp' Capital Spacing lookup 3 subtable" dx=5 dy=0 dh=10 dv=0
EndChar

StartChar: Oslash
Encoding: 216 216 96
Width: 580
Flags: MW
LayerCount: 2
UndoRedoHistory
Layer: 0
Undoes
EndUndoes
Redoes
EndRedoes
EndUndoRedoHistory
UndoRedoHistory
Layer: 1
Undoes
EndUndoes
Redoes
EndRedoes
EndUndoRedoHistory
Fore
SplineSet
521 713 m 1,0,1
 536 711 536 711 555.5 699.5 c 128,-1,2
 575 688 575 688 575 671 c 0,3,4
 575 658 575 658 560 636 c 2,5,-1
 505 559 l 1,6,7
 547 476 547 476 547 339 c 0,8,9
 547 -22 547 -22 291 -22 c 0,10,11
 188 -22 188 -22 128 31 c 1,12,-1
 68 -53 l 1,13,14
 53 -51 53 -51 33.5 -39.5 c 128,-1,15
 14 -28 14 -28 14 -11 c 0,16,17
 14 3 14 3 29 24 c 2,18,-1
 79 94 l 1,19,20
 34 177 34 177 34 327 c 0,21,22
 34 387 34 387 42 438 c 128,-1,23
 50 489 50 489 69 534.5 c 128,-1,24
 88 580 88 580 117 612 c 128,-1,25
 146 644 146 644 190 662 c 128,-1,26
 234 680 234 680 291 680 c 0,27,28
 395 680 395 680 457 623 c 1,29,-1
 521 713 l 1,0,1
393 534 m 1,30,31
 361 610 361 610 291 610 c 0,32,33
 263 610 263 610 240.5 598 c 128,-1,34
 218 586 218 586 204 564 c 128,-1,35
 190 542 190 542 181 516 c 128,-1,36
 172 490 172 490 168 456 c 128,-1,37
 164 422 164 422 162 394 c 128,-1,38
 160 366 160 366 160 332 c 0,39,40
 160 264 160 264 165 215 c 1,41,-1
 393 534 l 1,30,31
190 118 m 1,42,43
 222 48 222 48 291 48 c 0,44,45
 316 48 316 48 336 57.5 c 128,-1,46
 356 67 356 67 369.5 82.5 c 128,-1,47
 383 98 383 98 393 122 c 128,-1,48
 403 146 403 146 408 169 c 128,-1,49
 413 192 413 192 416 222.5 c 128,-1,50
 419 253 419 253 420 277 c 128,-1,51
 421 301 421 301 421 332 c 0,52,53
 421 391 421 391 416 435 c 1,54,-1
 190 118 l 1,42,43
EndSplineSet
Validated: 1
Position2: "'cpsp' Capital Spacing lookup 3 subtable" dx=5 dy=0 dh=10 dv=0
EndChar

StartChar: Oslashacute
Encoding: 510 510 97
Width: 580
Flags: MW
LayerCount: 2
UndoRedoHistory
Layer: 0
Undoes
EndUndoes
Redoes
EndRedoes
EndUndoRedoHistory
UndoRedoHistory
Layer: 1
Undoes
EndUndoes
Redoes
EndRedoes
EndUndoRedoHistory
Fore
SplineSet
437 837 m 1,0,1
 466 816 466 816 466 786 c 0,2,3
 466 767 466 767 456.5 754 c 128,-1,4
 447 741 447 741 429.5 734.5 c 128,-1,5
 412 728 412 728 395.5 725 c 128,-1,6
 379 722 379 722 355 720 c 2,7,-1
 236 711 l 1,8,-1
 225 753 l 1,9,-1
 437 837 l 1,0,1
521 713 m 1,10,11
 536 711 536 711 555.5 699.5 c 128,-1,12
 575 688 575 688 575 671 c 0,13,14
 575 658 575 658 560 636 c 2,15,-1
 505 559 l 1,16,17
 547 476 547 476 547 339 c 0,18,19
 547 -22 547 -22 291 -22 c 0,20,21
 188 -22 188 -22 128 31 c 1,22,-1
 68 -53 l 1,23,24
 53 -51 53 -51 33.5 -39.5 c 128,-1,25
 14 -28 14 -28 14 -11 c 0,26,27
 14 3 14 3 29 24 c 2,28,-1
 79 94 l 1,29,30
 34 177 34 177 34 327 c 0,31,32
 34 387 34 387 42 438 c 128,-1,33
 50 489 50 489 69 534.5 c 128,-1,34
 88 580 88 580 117 612 c 128,-1,35
 146 644 146 644 190 662 c 128,-1,36
 234 680 234 680 291 680 c 0,37,38
 395 680 395 680 457 623 c 1,39,-1
 521 713 l 1,10,11
393 534 m 1,40,41
 361 610 361 610 291 610 c 0,42,43
 263 610 263 610 240.5 598 c 128,-1,44
 218 586 218 586 204 564 c 128,-1,45
 190 542 190 542 181 516 c 128,-1,46
 172 490 172 490 168 456 c 128,-1,47
 164 422 164 422 162 394 c 128,-1,48
 160 366 160 366 160 332 c 0,49,50
 160 264 160 264 165 215 c 1,51,-1
 393 534 l 1,40,41
190 118 m 1,52,53
 222 48 222 48 291 48 c 0,54,55
 316 48 316 48 336 57.5 c 128,-1,56
 356 67 356 67 369.5 82.5 c 128,-1,57
 383 98 383 98 393 122 c 128,-1,58
 403 146 403 146 408 169 c 128,-1,59
 413 192 413 192 416 222.5 c 128,-1,60
 419 253 419 253 420 277 c 128,-1,61
 421 301 421 301 421 332 c 0,62,63
 421 391 421 391 416 435 c 1,64,-1
 190 118 l 1,52,53
EndSplineSet
Validated: 1
Position2: "'cpsp' Capital Spacing lookup 3 subtable" dx=5 dy=0 dh=10 dv=0
EndChar

StartChar: Otilde
Encoding: 213 213 98
Width: 580
Flags: MW
LayerCount: 2
UndoRedoHistory
Layer: 0
Undoes
EndUndoes
Redoes
EndRedoes
EndUndoRedoHistory
UndoRedoHistory
Layer: 1
Undoes
EndUndoes
Redoes
EndRedoes
EndUndoRedoHistory
Fore
SplineSet
415 820 m 1,0,1
 442 802 442 802 442 769 c 0,2,3
 442 745 442 745 425 732.5 c 128,-1,4
 408 720 408 720 381 720 c 0,5,6
 359 720 359 720 299 732 c 128,-1,7
 239 744 239 744 219 744 c 0,8,9
 182 744 182 744 166 729 c 1,10,11
 139 747 139 747 139 780 c 0,12,13
 139 804 139 804 156 816.5 c 128,-1,14
 173 829 173 829 200 829 c 0,15,16
 223 829 223 829 282.5 817 c 128,-1,17
 342 805 342 805 362 805 c 0,18,19
 399 805 399 805 415 820 c 1,0,1
291 680 m 0,20,21
 547 680 547 680 547 339 c 0,22,23
 547 -22 547 -22 291 -22 c 0,24,25
 233 -22 233 -22 188.5 -4.5 c 128,-1,26
 144 13 144 13 115 43.5 c 128,-1,27
 86 74 86 74 67.5 118.5 c 128,-1,28
 49 163 49 163 41.5 214 c 128,-1,29
 34 265 34 265 34 327 c 0,30,31
 34 387 34 387 42 438 c 128,-1,32
 50 489 50 489 69 534.5 c 128,-1,33
 88 580 88 580 117 612 c 128,-1,34
 146 644 146 644 190 662 c 128,-1,35
 234 680 234 680 291 680 c 0,20,21
291 48 m 128,-1,37
 316 48 316 48 336 57.5 c 128,-1,38
 356 67 356 67 369.5 82.5 c 128,-1,39
 383 98 383 98 393 122 c 128,-1,40
 403 146 403 146 408 169 c 128,-1,41
 413 192 413 192 416 222.5 c 128,-1,42
 419 253 419 253 420 277 c 128,-1,43
 421 301 421 301 421 332 c 0,44,45
 421 361 421 361 420 385 c 128,-1,46
 419 409 419 409 415.5 438.5 c 128,-1,47
 412 468 412 468 406.5 491.5 c 128,-1,48
 401 515 401 515 391 538 c 128,-1,49
 381 561 381 561 368 576 c 128,-1,50
 355 591 355 591 335 600.5 c 128,-1,51
 315 610 315 610 291 610 c 0,52,53
 263 610 263 610 240.5 598 c 128,-1,54
 218 586 218 586 204 564 c 128,-1,55
 190 542 190 542 181 516 c 128,-1,56
 172 490 172 490 168 456 c 128,-1,57
 164 422 164 422 162 394 c 128,-1,58
 160 366 160 366 160 332 c 0,59,60
 160 301 160 301 161 277.5 c 128,-1,61
 162 254 162 254 165 223 c 128,-1,62
 168 192 168 192 173.5 169 c 128,-1,63
 179 146 179 146 188.5 122 c 128,-1,64
 198 98 198 98 211.5 82.5 c 128,-1,65
 225 67 225 67 245.5 57.5 c 128,-1,36
 266 48 266 48 291 48 c 128,-1,37
EndSplineSet
Validated: 1
Position2: "'cpsp' Capital Spacing lookup 3 subtable" dx=5 dy=0 dh=10 dv=0
EndChar

StartChar: OE
Encoding: 338 338 99
Width: 757
Flags: MW
LayerCount: 2
UndoRedoHistory
Layer: 0
Undoes
EndUndoes
Redoes
EndRedoes
EndUndoRedoHistory
UndoRedoHistory
Layer: 1
Undoes
EndUndoes
Redoes
EndRedoes
EndUndoRedoHistory
Fore
SplineSet
721 0 m 1,0,-1
 402 0 l 1,1,2
 354 -22 354 -22 291 -22 c 0,3,4
 233 -22 233 -22 188.5 -4.5 c 128,-1,5
 144 13 144 13 115 43.5 c 128,-1,6
 86 74 86 74 67.5 118.5 c 128,-1,7
 49 163 49 163 41.5 214 c 128,-1,8
 34 265 34 265 34 327 c 0,9,10
 34 387 34 387 42 438 c 128,-1,11
 50 489 50 489 69 534.5 c 128,-1,12
 88 580 88 580 117 612 c 128,-1,13
 146 644 146 644 190 662 c 128,-1,14
 234 680 234 680 291 680 c 0,15,16
 353 680 353 680 399 660 c 1,17,-1
 714 660 l 1,18,-1
 714 586 l 1,19,-1
 516 586 l 1,20,-1
 516 376 l 1,21,-1
 684 376 l 1,22,-1
 684 302 l 1,23,-1
 516 302 l 1,24,-1
 516 74 l 1,25,-1
 728 74 l 1,26,-1
 721 0 l 1,0,-1
399 560 m 1,27,28
 349 610 349 610 291 610 c 0,29,30
 263 610 263 610 240.5 598 c 128,-1,31
 218 586 218 586 204 564 c 128,-1,32
 190 542 190 542 181 516 c 128,-1,33
 172 490 172 490 168 456 c 128,-1,34
 164 422 164 422 162 394 c 128,-1,35
 160 366 160 366 160 332 c 0,36,37
 160 301 160 301 161 277.5 c 128,-1,38
 162 254 162 254 165 223 c 128,-1,39
 168 192 168 192 173.5 169 c 128,-1,40
 179 146 179 146 188.5 122 c 128,-1,41
 198 98 198 98 211.5 82.5 c 128,-1,42
 225 67 225 67 245.5 57.5 c 128,-1,43
 266 48 266 48 291 48 c 0,44,45
 350 48 350 48 399 97 c 1,46,-1
 399 560 l 1,27,28
EndSplineSet
Validated: 1
Position2: "'cpsp' Capital Spacing lookup 3 subtable" dx=5 dy=0 dh=10 dv=0
EndChar

StartChar: P
Encoding: 80 80 100
Width: 494
Flags: MW
LayerCount: 2
UndoRedoHistory
Layer: 0
Undoes
EndUndoes
Redoes
EndRedoes
EndUndoRedoHistory
UndoRedoHistory
Layer: 1
Undoes
EndUndoes
Redoes
EndRedoes
EndUndoRedoHistory
Fore
SplineSet
60 656 m 1,0,1
 185 664 185 664 248 664 c 0,2,3
 303 664 303 664 345 654 c 128,-1,4
 387 644 387 644 419.5 622.5 c 128,-1,5
 452 601 452 601 468.5 563.5 c 128,-1,6
 485 526 485 526 485 474 c 0,7,8
 485 387 485 387 434 333.5 c 128,-1,9
 383 280 383 280 297 280 c 0,10,11
 264 280 264 280 240.5 291 c 128,-1,12
 217 302 217 302 217 326 c 1,13,14
 293 326 293 326 329 361 c 128,-1,15
 365 396 365 396 365 470 c 0,16,17
 365 533 365 533 334.5 563.5 c 128,-1,18
 304 594 304 594 241 594 c 0,19,20
 213 594 213 594 177 589 c 1,21,-1
 177 0 l 1,22,-1
 60 0 l 1,23,-1
 60 656 l 1,0,1
EndSplineSet
Validated: 1
Position2: "'cpsp' Capital Spacing lookup 3 subtable" dx=5 dy=0 dh=10 dv=0
EndChar

StartChar: Thorn
Encoding: 222 222 101
Width: 494
Flags: MW
LayerCount: 2
UndoRedoHistory
Layer: 0
Undoes
EndUndoes
Redoes
EndRedoes
EndUndoRedoHistory
UndoRedoHistory
Layer: 1
Undoes
EndUndoes
Redoes
EndRedoes
EndUndoRedoHistory
Fore
SplineSet
177 536 m 1,0,1
 225 538 225 538 248 538 c 0,2,3
 303 538 303 538 345 528 c 128,-1,4
 387 518 387 518 419.5 496.5 c 128,-1,5
 452 475 452 475 468.5 437.5 c 128,-1,6
 485 400 485 400 485 348 c 0,7,8
 485 261 485 261 434 207.5 c 128,-1,9
 383 154 383 154 297 154 c 0,10,11
 264 154 264 154 240.5 165 c 128,-1,12
 217 176 217 176 217 200 c 1,13,14
 293 200 293 200 329 235 c 128,-1,15
 365 270 365 270 365 344 c 0,16,17
 365 407 365 407 334.5 437.5 c 128,-1,18
 304 468 304 468 241 468 c 0,19,20
 210 468 210 468 177 463 c 1,21,-1
 177 0 l 1,22,-1
 60 0 l 1,23,-1
 60 660 l 1,24,-1
 177 660 l 1,25,-1
 177 536 l 1,0,1
EndSplineSet
Validated: 1
Position2: "'cpsp' Capital Spacing lookup 3 subtable" dx=5 dy=0 dh=10 dv=0
EndChar

StartChar: Q
Encoding: 81 81 102
Width: 580
Flags: MW
LayerCount: 2
UndoRedoHistory
Layer: 0
Undoes
EndUndoes
Redoes
EndRedoes
EndUndoRedoHistory
UndoRedoHistory
Layer: 1
Undoes
EndUndoes
Redoes
EndRedoes
EndUndoRedoHistory
Fore
SplineSet
291 680 m 0,0,1
 547 680 547 680 547 339 c 0,2,3
 547 -22 547 -22 291 -22 c 1,4,5
 391 -45 391 -45 460 -45 c 0,6,7
 513 -45 513 -45 539 -23 c 1,8,9
 562 -54 562 -54 562 -81 c 0,10,11
 562 -113 562 -113 540.5 -128 c 128,-1,12
 519 -143 519 -143 483 -143 c 0,13,14
 451 -143 451 -143 413 -134 c 128,-1,15
 375 -125 375 -125 345 -114 c 128,-1,16
 315 -103 315 -103 280 -93.5 c 128,-1,17
 245 -84 245 -84 219 -84 c 0,18,19
 182 -84 182 -84 164 -92 c 1,20,21
 149 -77 149 -77 149 -57 c 0,22,23
 149 -13 149 -13 214 -13 c 1,24,25
 164 0 164 0 128 30.5 c 128,-1,26
 92 61 92 61 72 106.5 c 128,-1,27
 52 152 52 152 43 206 c 128,-1,28
 34 260 34 260 34 327 c 0,29,30
 34 387 34 387 42 438 c 128,-1,31
 50 489 50 489 69 534.5 c 128,-1,32
 88 580 88 580 117 612 c 128,-1,33
 146 644 146 644 190 662 c 128,-1,34
 234 680 234 680 291 680 c 0,0,1
291 610 m 0,35,36
 263 610 263 610 240.5 598 c 128,-1,37
 218 586 218 586 204 564 c 128,-1,38
 190 542 190 542 181 516 c 128,-1,39
 172 490 172 490 168 456 c 128,-1,40
 164 422 164 422 162 394 c 128,-1,41
 160 366 160 366 160 332 c 0,42,43
 160 301 160 301 161 277.5 c 128,-1,44
 162 254 162 254 165 223 c 128,-1,45
 168 192 168 192 173.5 169 c 128,-1,46
 179 146 179 146 188.5 122 c 128,-1,47
 198 98 198 98 211.5 82.5 c 128,-1,48
 225 67 225 67 245.5 57.5 c 128,-1,49
 266 48 266 48 291 48 c 128,-1,50
 316 48 316 48 336 57.5 c 128,-1,51
 356 67 356 67 369.5 82.5 c 128,-1,52
 383 98 383 98 393 122 c 128,-1,53
 403 146 403 146 408 169 c 128,-1,54
 413 192 413 192 416 222.5 c 128,-1,55
 419 253 419 253 420 277 c 128,-1,56
 421 301 421 301 421 332 c 0,57,58
 421 361 421 361 420 385 c 128,-1,59
 419 409 419 409 415.5 438.5 c 128,-1,60
 412 468 412 468 406.5 491.5 c 128,-1,61
 401 515 401 515 391 538 c 128,-1,62
 381 561 381 561 368 576 c 128,-1,63
 355 591 355 591 335 600.5 c 128,-1,64
 315 610 315 610 291 610 c 0,35,36
EndSplineSet
Validated: 1
Position2: "'cpsp' Capital Spacing lookup 3 subtable" dx=5 dy=0 dh=10 dv=0
EndChar

StartChar: R
Encoding: 82 82 103
Width: 530
Flags: MW
LayerCount: 2
UndoRedoHistory
Layer: 0
Undoes
EndUndoes
Redoes
EndRedoes
EndUndoRedoHistory
UndoRedoHistory
Layer: 1
Undoes
EndUndoes
Redoes
EndRedoes
EndUndoRedoHistory
Fore
SplineSet
60 656 m 1,0,1
 185 664 185 664 248 664 c 0,2,3
 485 664 485 664 485 479 c 0,4,5
 485 411 485 411 450.5 362.5 c 128,-1,6
 416 314 416 314 356 298 c 1,7,-1
 530 0 l 1,8,-1
 402 0 l 1,9,-1
 224 316 l 2,10,11
 218 327 218 327 218 336 c 1,12,13
 294 336 294 336 329.5 369.5 c 128,-1,14
 365 403 365 403 365 475 c 0,15,16
 365 535 365 535 334.5 564.5 c 128,-1,17
 304 594 304 594 241 594 c 0,18,19
 213 594 213 594 177 589 c 1,20,-1
 177 0 l 1,21,-1
 60 0 l 1,22,-1
 60 656 l 1,0,1
EndSplineSet
Validated: 1
Position2: "'cpsp' Capital Spacing lookup 3 subtable" dx=5 dy=0 dh=10 dv=0
EndChar

StartChar: Racute
Encoding: 340 340 104
Width: 530
Flags: MW
LayerCount: 2
UndoRedoHistory
Layer: 0
Undoes
EndUndoes
Redoes
EndRedoes
EndUndoRedoHistory
UndoRedoHistory
Layer: 1
Undoes
EndUndoes
Redoes
EndRedoes
EndUndoRedoHistory
Fore
SplineSet
383 837 m 1,0,1
 412 816 412 816 412 786 c 0,2,3
 412 767 412 767 403 754 c 128,-1,4
 394 741 394 741 376 734.5 c 128,-1,5
 358 728 358 728 341.5 725 c 128,-1,6
 325 722 325 722 301 720 c 2,7,-1
 182 711 l 1,8,-1
 171 753 l 1,9,-1
 383 837 l 1,0,1
60 656 m 1,10,11
 185 664 185 664 248 664 c 0,12,13
 485 664 485 664 485 479 c 0,14,15
 485 411 485 411 450.5 362.5 c 128,-1,16
 416 314 416 314 356 298 c 1,17,-1
 530 0 l 1,18,-1
 402 0 l 1,19,-1
 224 316 l 2,20,21
 218 327 218 327 218 336 c 1,22,23
 294 336 294 336 329.5 369.5 c 128,-1,24
 365 403 365 403 365 475 c 0,25,26
 365 535 365 535 334.5 564.5 c 128,-1,27
 304 594 304 594 241 594 c 0,28,29
 213 594 213 594 177 589 c 1,30,-1
 177 0 l 1,31,-1
 60 0 l 1,32,-1
 60 656 l 1,10,11
EndSplineSet
Validated: 1
Position2: "'cpsp' Capital Spacing lookup 3 subtable" dx=5 dy=0 dh=10 dv=0
EndChar

StartChar: Rcaron
Encoding: 344 344 105
Width: 530
Flags: MW
LayerCount: 2
UndoRedoHistory
Layer: 0
Undoes
EndUndoes
Redoes
EndRedoes
EndUndoRedoHistory
UndoRedoHistory
Layer: 1
Undoes
EndUndoes
Redoes
EndRedoes
EndUndoRedoHistory
Fore
SplineSet
395 799 m 1,0,-1
 250 687 l 1,1,-1
 247 687 l 1,2,-1
 98 799 l 1,3,-1
 127 834 l 1,4,-1
 247 771 l 1,5,-1
 366 834 l 1,6,-1
 395 799 l 1,0,-1
60 656 m 1,7,8
 185 664 185 664 248 664 c 0,9,10
 485 664 485 664 485 479 c 0,11,12
 485 411 485 411 450.5 362.5 c 128,-1,13
 416 314 416 314 356 298 c 1,14,-1
 530 0 l 1,15,-1
 402 0 l 1,16,-1
 224 316 l 2,17,18
 218 327 218 327 218 336 c 1,19,20
 294 336 294 336 329.5 369.5 c 128,-1,21
 365 403 365 403 365 475 c 0,22,23
 365 535 365 535 334.5 564.5 c 128,-1,24
 304 594 304 594 241 594 c 0,25,26
 213 594 213 594 177 589 c 1,27,-1
 177 0 l 1,28,-1
 60 0 l 1,29,-1
 60 656 l 1,7,8
EndSplineSet
Validated: 1
Position2: "'cpsp' Capital Spacing lookup 3 subtable" dx=5 dy=0 dh=10 dv=0
EndChar

StartChar: Rcommaaccent
Encoding: 342 342 106
Width: 530
Flags: MW
LayerCount: 2
UndoRedoHistory
Layer: 0
Undoes
EndUndoes
Redoes
EndRedoes
EndUndoRedoHistory
UndoRedoHistory
Layer: 1
Undoes
EndUndoes
Redoes
EndRedoes
EndUndoRedoHistory
Fore
SplineSet
60 656 m 1,0,1
 185 664 185 664 248 664 c 0,2,3
 485 664 485 664 485 479 c 0,4,5
 485 411 485 411 450.5 362.5 c 128,-1,6
 416 314 416 314 356 298 c 1,7,-1
 530 0 l 1,8,-1
 402 0 l 1,9,-1
 224 316 l 2,10,11
 218 327 218 327 218 336 c 1,12,13
 294 336 294 336 329.5 369.5 c 128,-1,14
 365 403 365 403 365 475 c 0,15,16
 365 535 365 535 334.5 564.5 c 128,-1,17
 304 594 304 594 241 594 c 0,18,19
 213 594 213 594 177 589 c 1,20,-1
 177 0 l 1,21,-1
 60 0 l 1,22,-1
 60 656 l 1,0,1
289 -50 m 0,23,24
 324 -50 324 -50 341.5 -69.5 c 128,-1,25
 359 -89 359 -89 359 -124 c 0,26,27
 359 -166 359 -166 329 -201.5 c 128,-1,28
 299 -237 299 -237 258 -237 c 0,29,30
 242 -237 242 -237 224 -231 c 1,31,32
 257 -183 257 -183 257 -127 c 0,33,34
 257 -90 257 -90 238 -62 c 1,35,36
 261 -50 261 -50 289 -50 c 0,23,24
EndSplineSet
Validated: 1
Position2: "'cpsp' Capital Spacing lookup 3 subtable" dx=5 dy=0 dh=10 dv=0
EndChar

StartChar: Rdotbelow
Encoding: 7770 7770 107
Width: 530
Flags: MW
LayerCount: 2
UndoRedoHistory
Layer: 0
Undoes
EndUndoes
Redoes
EndRedoes
EndUndoRedoHistory
UndoRedoHistory
Layer: 1
Undoes
EndUndoes
Redoes
EndRedoes
EndUndoRedoHistory
Fore
SplineSet
60 656 m 1,0,1
 185 664 185 664 248 664 c 0,2,3
 485 664 485 664 485 479 c 0,4,5
 485 411 485 411 450.5 362.5 c 128,-1,6
 416 314 416 314 356 298 c 1,7,-1
 530 0 l 1,8,-1
 402 0 l 1,9,-1
 224 316 l 2,10,11
 218 327 218 327 218 336 c 1,12,13
 294 336 294 336 329.5 369.5 c 128,-1,14
 365 403 365 403 365 475 c 0,15,16
 365 535 365 535 334.5 564.5 c 128,-1,17
 304 594 304 594 241 594 c 0,18,19
 213 594 213 594 177 589 c 1,20,-1
 177 0 l 1,21,-1
 60 0 l 1,22,-1
 60 656 l 1,0,1
289 -54 m 128,-1,24
 322 -54 322 -54 342.5 -70 c 128,-1,25
 363 -86 363 -86 363 -116 c 0,26,27
 363 -147 363 -147 341.5 -163.5 c 128,-1,28
 320 -180 320 -180 286 -180 c 0,29,30
 253 -180 253 -180 233 -164 c 128,-1,31
 213 -148 213 -148 213 -118 c 0,32,33
 213 -87 213 -87 234.5 -70.5 c 128,-1,23
 256 -54 256 -54 289 -54 c 128,-1,24
EndSplineSet
Validated: 1
Position2: "'cpsp' Capital Spacing lookup 3 subtable" dx=5 dy=0 dh=10 dv=0
EndChar

StartChar: S
Encoding: 83 83 108
Width: 471
Flags: MW
LayerCount: 2
UndoRedoHistory
Layer: 0
Undoes
EndUndoes
Redoes
EndRedoes
EndUndoRedoHistory
UndoRedoHistory
Layer: 1
Undoes
EndUndoes
Redoes
EndRedoes
EndUndoRedoHistory
Fore
SplineSet
244 680 m 0,0,1
 276 680 276 680 304 675.5 c 128,-1,2
 332 671 332 671 356.5 661 c 128,-1,3
 381 651 381 651 398 635 c 128,-1,4
 415 619 415 619 425 595 c 128,-1,5
 435 571 435 571 435 541 c 0,6,7
 435 505 435 505 414 482.5 c 128,-1,8
 393 460 393 460 357 460 c 0,9,10
 323 460 323 460 305 476 c 1,11,12
 313 498 313 498 313 526 c 0,13,14
 313 614 313 614 235 614 c 0,15,16
 197 614 197 614 175.5 595.5 c 128,-1,17
 154 577 154 577 154 541 c 0,18,19
 154 511 154 511 170 484 c 128,-1,20
 186 457 186 457 211 435.5 c 128,-1,21
 236 414 236 414 267 393 c 128,-1,22
 298 372 298 372 328.5 349 c 128,-1,23
 359 326 359 326 384.5 301 c 128,-1,24
 410 276 410 276 426 241 c 128,-1,25
 442 206 442 206 442 165 c 0,26,27
 442 76 442 76 381 27 c 128,-1,28
 320 -22 320 -22 223 -22 c 0,29,30
 181 -22 181 -22 146 -14 c 128,-1,31
 111 -6 111 -6 82 10.5 c 128,-1,32
 53 27 53 27 36.5 56 c 128,-1,33
 20 85 20 85 20 124 c 0,34,35
 20 160 20 160 41 182.5 c 128,-1,36
 62 205 62 205 97 205 c 0,37,38
 131 205 131 205 149 189 c 1,39,40
 142 169 142 169 142 139 c 0,41,42
 142 44 142 44 232 44 c 0,43,44
 276 44 276 44 304 68.5 c 128,-1,45
 332 93 332 93 332 135 c 0,46,47
 332 165 332 165 316 192 c 128,-1,48
 300 219 300 219 275 240.5 c 128,-1,49
 250 262 250 262 219 283 c 128,-1,50
 188 304 188 304 157 327 c 128,-1,51
 126 350 126 350 101 375 c 128,-1,52
 76 400 76 400 60 435.5 c 128,-1,53
 44 471 44 471 44 511 c 0,54,55
 44 591 44 591 100.5 635.5 c 128,-1,56
 157 680 157 680 244 680 c 0,0,1
EndSplineSet
Validated: 1
Position2: "'cpsp' Capital Spacing lookup 3 subtable" dx=5 dy=0 dh=10 dv=0
EndChar

StartChar: Sacute
Encoding: 346 346 109
Width: 471
Flags: MW
LayerCount: 2
UndoRedoHistory
Layer: 0
Undoes
EndUndoes
Redoes
EndRedoes
EndUndoRedoHistory
UndoRedoHistory
Layer: 1
Undoes
EndUndoes
Redoes
EndRedoes
EndUndoRedoHistory
Fore
SplineSet
370 836 m 1,0,1
 399 815 399 815 399 785 c 0,2,3
 399 766 399 766 389.5 753 c 128,-1,4
 380 740 380 740 362.5 733.5 c 128,-1,5
 345 727 345 727 328.5 724 c 128,-1,6
 312 721 312 721 288 719 c 2,7,-1
 169 710 l 1,8,-1
 158 752 l 1,9,-1
 370 836 l 1,0,1
244 680 m 0,10,11
 276 680 276 680 304 675.5 c 128,-1,12
 332 671 332 671 356.5 661 c 128,-1,13
 381 651 381 651 398 635 c 128,-1,14
 415 619 415 619 425 595 c 128,-1,15
 435 571 435 571 435 541 c 0,16,17
 435 505 435 505 414 482.5 c 128,-1,18
 393 460 393 460 357 460 c 0,19,20
 323 460 323 460 305 476 c 1,21,22
 313 498 313 498 313 526 c 0,23,24
 313 614 313 614 235 614 c 0,25,26
 197 614 197 614 175.5 595.5 c 128,-1,27
 154 577 154 577 154 541 c 0,28,29
 154 511 154 511 170 484 c 128,-1,30
 186 457 186 457 211 435.5 c 128,-1,31
 236 414 236 414 267 393 c 128,-1,32
 298 372 298 372 328.5 349 c 128,-1,33
 359 326 359 326 384.5 301 c 128,-1,34
 410 276 410 276 426 241 c 128,-1,35
 442 206 442 206 442 165 c 0,36,37
 442 76 442 76 381 27 c 128,-1,38
 320 -22 320 -22 223 -22 c 0,39,40
 181 -22 181 -22 146 -14 c 128,-1,41
 111 -6 111 -6 82 10.5 c 128,-1,42
 53 27 53 27 36.5 56 c 128,-1,43
 20 85 20 85 20 124 c 0,44,45
 20 160 20 160 41 182.5 c 128,-1,46
 62 205 62 205 97 205 c 0,47,48
 131 205 131 205 149 189 c 1,49,50
 142 169 142 169 142 139 c 0,51,52
 142 44 142 44 232 44 c 0,53,54
 276 44 276 44 304 68.5 c 128,-1,55
 332 93 332 93 332 135 c 0,56,57
 332 165 332 165 316 192 c 128,-1,58
 300 219 300 219 275 240.5 c 128,-1,59
 250 262 250 262 219 283 c 128,-1,60
 188 304 188 304 157 327 c 128,-1,61
 126 350 126 350 101 375 c 128,-1,62
 76 400 76 400 60 435.5 c 128,-1,63
 44 471 44 471 44 511 c 0,64,65
 44 591 44 591 100.5 635.5 c 128,-1,66
 157 680 157 680 244 680 c 0,10,11
EndSplineSet
Validated: 1
Substitution2: "'locl' Localized Forms in Latin lookup 13 subtable" Sacute.loclPLK
Substitution2: "'aalt' Access All Alternates lookup 0 subtable" Sacute.loclPLK
Position2: "'cpsp' Capital Spacing lookup 3 subtable" dx=5 dy=0 dh=10 dv=0
EndChar

StartChar: Scaron
Encoding: 352 352 110
Width: 471
Flags: MW
LayerCount: 2
UndoRedoHistory
Layer: 0
Undoes
EndUndoes
Redoes
EndRedoes
EndUndoRedoHistory
UndoRedoHistory
Layer: 1
Undoes
EndUndoes
Redoes
EndRedoes
EndUndoRedoHistory
Fore
SplineSet
381 798 m 1,0,-1
 236 686 l 1,1,-1
 233 686 l 1,2,-1
 84 798 l 1,3,-1
 113 833 l 1,4,-1
 233 770 l 1,5,-1
 352 833 l 1,6,-1
 381 798 l 1,0,-1
244 680 m 0,7,8
 276 680 276 680 304 675.5 c 128,-1,9
 332 671 332 671 356.5 661 c 128,-1,10
 381 651 381 651 398 635 c 128,-1,11
 415 619 415 619 425 595 c 128,-1,12
 435 571 435 571 435 541 c 0,13,14
 435 505 435 505 414 482.5 c 128,-1,15
 393 460 393 460 357 460 c 0,16,17
 323 460 323 460 305 476 c 1,18,19
 313 498 313 498 313 526 c 0,20,21
 313 614 313 614 235 614 c 0,22,23
 197 614 197 614 175.5 595.5 c 128,-1,24
 154 577 154 577 154 541 c 0,25,26
 154 511 154 511 170 484 c 128,-1,27
 186 457 186 457 211 435.5 c 128,-1,28
 236 414 236 414 267 393 c 128,-1,29
 298 372 298 372 328.5 349 c 128,-1,30
 359 326 359 326 384.5 301 c 128,-1,31
 410 276 410 276 426 241 c 128,-1,32
 442 206 442 206 442 165 c 0,33,34
 442 76 442 76 381 27 c 128,-1,35
 320 -22 320 -22 223 -22 c 0,36,37
 181 -22 181 -22 146 -14 c 128,-1,38
 111 -6 111 -6 82 10.5 c 128,-1,39
 53 27 53 27 36.5 56 c 128,-1,40
 20 85 20 85 20 124 c 0,41,42
 20 160 20 160 41 182.5 c 128,-1,43
 62 205 62 205 97 205 c 0,44,45
 131 205 131 205 149 189 c 1,46,47
 142 169 142 169 142 139 c 0,48,49
 142 44 142 44 232 44 c 0,50,51
 276 44 276 44 304 68.5 c 128,-1,52
 332 93 332 93 332 135 c 0,53,54
 332 165 332 165 316 192 c 128,-1,55
 300 219 300 219 275 240.5 c 128,-1,56
 250 262 250 262 219 283 c 128,-1,57
 188 304 188 304 157 327 c 128,-1,58
 126 350 126 350 101 375 c 128,-1,59
 76 400 76 400 60 435.5 c 128,-1,60
 44 471 44 471 44 511 c 0,61,62
 44 591 44 591 100.5 635.5 c 128,-1,63
 157 680 157 680 244 680 c 0,7,8
EndSplineSet
Validated: 1
Position2: "'cpsp' Capital Spacing lookup 3 subtable" dx=5 dy=0 dh=10 dv=0
EndChar

StartChar: Scedilla
Encoding: 350 350 111
Width: 471
Flags: MW
LayerCount: 2
UndoRedoHistory
Layer: 0
Undoes
EndUndoes
Redoes
EndRedoes
EndUndoRedoHistory
UndoRedoHistory
Layer: 1
Undoes
EndUndoes
Redoes
EndRedoes
EndUndoRedoHistory
Fore
SplineSet
179 -20 m 1,0,1
 108 -12 108 -12 64 23.5 c 128,-1,2
 20 59 20 59 20 124 c 0,3,4
 20 160 20 160 41 182.5 c 128,-1,5
 62 205 62 205 97 205 c 0,6,7
 131 205 131 205 149 189 c 1,8,9
 142 169 142 169 142 139 c 0,10,11
 142 44 142 44 232 44 c 0,12,13
 276 44 276 44 304 68.5 c 128,-1,14
 332 93 332 93 332 135 c 0,15,16
 332 165 332 165 316 192 c 128,-1,17
 300 219 300 219 275 240.5 c 128,-1,18
 250 262 250 262 219 283 c 128,-1,19
 188 304 188 304 157 327 c 128,-1,20
 126 350 126 350 101 375 c 128,-1,21
 76 400 76 400 60 435.5 c 128,-1,22
 44 471 44 471 44 511 c 0,23,24
 44 591 44 591 100.5 635.5 c 128,-1,25
 157 680 157 680 244 680 c 0,26,27
 276 680 276 680 304 675.5 c 128,-1,28
 332 671 332 671 356.5 661 c 128,-1,29
 381 651 381 651 398 635 c 128,-1,30
 415 619 415 619 425 595 c 128,-1,31
 435 571 435 571 435 541 c 0,32,33
 435 505 435 505 414 482.5 c 128,-1,34
 393 460 393 460 357 460 c 0,35,36
 323 460 323 460 305 476 c 1,37,38
 313 498 313 498 313 526 c 0,39,40
 313 614 313 614 235 614 c 0,41,42
 197 614 197 614 175.5 595.5 c 128,-1,43
 154 577 154 577 154 541 c 0,44,45
 154 511 154 511 170 484 c 128,-1,46
 186 457 186 457 211 435.5 c 128,-1,47
 236 414 236 414 267 393 c 128,-1,48
 298 372 298 372 328.5 349 c 128,-1,49
 359 326 359 326 384.5 301 c 128,-1,50
 410 276 410 276 426 241 c 128,-1,51
 442 206 442 206 442 165 c 0,52,53
 442 77 442 77 381.5 28 c 128,-1,54
 321 -21 321 -21 225 -22 c 1,55,-1
 209 -65 l 1,56,57
 218 -64 218 -64 237 -64 c 0,58,59
 288 -64 288 -64 318 -86.5 c 128,-1,60
 348 -109 348 -109 348 -154 c 0,61,62
 348 -198 348 -198 309 -225.5 c 128,-1,63
 270 -253 270 -253 217 -253 c 0,64,65
 194 -253 194 -253 173.5 -248 c 128,-1,66
 153 -243 153 -243 137.5 -229.5 c 128,-1,67
 122 -216 122 -216 122 -197 c 0,68,69
 122 -180 122 -180 132 -172 c 1,70,71
 157 -200 157 -200 202 -200 c 0,72,73
 230 -200 230 -200 248.5 -190 c 128,-1,74
 267 -180 267 -180 267 -157 c 0,75,76
 267 -111 267 -111 186 -111 c 0,77,78
 164 -111 164 -111 144 -114 c 1,79,-1
 179 -20 l 1,0,1
EndSplineSet
Validated: 1
Substitution2: "'locl' Localized Forms in Latin lookup 12 subtable" Scommaaccent
Substitution2: "'locl' Localized Forms in Latin lookup 11 subtable" Scommaaccent
Substitution2: "'aalt' Access All Alternates lookup 0 subtable" Scommaaccent
Position2: "'cpsp' Capital Spacing lookup 3 subtable" dx=5 dy=0 dh=10 dv=0
EndChar

StartChar: Scircumflex
Encoding: 348 348 112
Width: 471
Flags: MW
LayerCount: 2
UndoRedoHistory
Layer: 0
Undoes
EndUndoes
Redoes
EndRedoes
EndUndoRedoHistory
UndoRedoHistory
Layer: 1
Undoes
EndUndoes
Redoes
EndRedoes
EndUndoRedoHistory
Fore
SplineSet
87 703 m 1,0,-1
 232 835 l 1,1,-1
 236 835 l 1,2,-1
 385 703 l 1,3,-1
 355 668 l 1,4,-1
 235 741 l 1,5,-1
 116 668 l 1,6,-1
 87 703 l 1,0,-1
244 680 m 0,7,8
 276 680 276 680 304 675.5 c 128,-1,9
 332 671 332 671 356.5 661 c 128,-1,10
 381 651 381 651 398 635 c 128,-1,11
 415 619 415 619 425 595 c 128,-1,12
 435 571 435 571 435 541 c 0,13,14
 435 505 435 505 414 482.5 c 128,-1,15
 393 460 393 460 357 460 c 0,16,17
 323 460 323 460 305 476 c 1,18,19
 313 498 313 498 313 526 c 0,20,21
 313 614 313 614 235 614 c 0,22,23
 197 614 197 614 175.5 595.5 c 128,-1,24
 154 577 154 577 154 541 c 0,25,26
 154 511 154 511 170 484 c 128,-1,27
 186 457 186 457 211 435.5 c 128,-1,28
 236 414 236 414 267 393 c 128,-1,29
 298 372 298 372 328.5 349 c 128,-1,30
 359 326 359 326 384.5 301 c 128,-1,31
 410 276 410 276 426 241 c 128,-1,32
 442 206 442 206 442 165 c 0,33,34
 442 76 442 76 381 27 c 128,-1,35
 320 -22 320 -22 223 -22 c 0,36,37
 181 -22 181 -22 146 -14 c 128,-1,38
 111 -6 111 -6 82 10.5 c 128,-1,39
 53 27 53 27 36.5 56 c 128,-1,40
 20 85 20 85 20 124 c 0,41,42
 20 160 20 160 41 182.5 c 128,-1,43
 62 205 62 205 97 205 c 0,44,45
 131 205 131 205 149 189 c 1,46,47
 142 169 142 169 142 139 c 0,48,49
 142 44 142 44 232 44 c 0,50,51
 276 44 276 44 304 68.5 c 128,-1,52
 332 93 332 93 332 135 c 0,53,54
 332 165 332 165 316 192 c 128,-1,55
 300 219 300 219 275 240.5 c 128,-1,56
 250 262 250 262 219 283 c 128,-1,57
 188 304 188 304 157 327 c 128,-1,58
 126 350 126 350 101 375 c 128,-1,59
 76 400 76 400 60 435.5 c 128,-1,60
 44 471 44 471 44 511 c 0,61,62
 44 591 44 591 100.5 635.5 c 128,-1,63
 157 680 157 680 244 680 c 0,7,8
EndSplineSet
Validated: 1
Position2: "'cpsp' Capital Spacing lookup 3 subtable" dx=5 dy=0 dh=10 dv=0
EndChar

StartChar: Scommaaccent
Encoding: 536 536 113
Width: 471
Flags: MW
LayerCount: 2
UndoRedoHistory
Layer: 0
Undoes
EndUndoes
Redoes
EndRedoes
EndUndoRedoHistory
UndoRedoHistory
Layer: 1
Undoes
EndUndoes
Redoes
EndRedoes
EndUndoRedoHistory
Fore
SplineSet
244 680 m 0,0,1
 276 680 276 680 304 675.5 c 128,-1,2
 332 671 332 671 356.5 661 c 128,-1,3
 381 651 381 651 398 635 c 128,-1,4
 415 619 415 619 425 595 c 128,-1,5
 435 571 435 571 435 541 c 0,6,7
 435 505 435 505 414 482.5 c 128,-1,8
 393 460 393 460 357 460 c 0,9,10
 323 460 323 460 305 476 c 1,11,12
 313 498 313 498 313 526 c 0,13,14
 313 614 313 614 235 614 c 0,15,16
 197 614 197 614 175.5 595.5 c 128,-1,17
 154 577 154 577 154 541 c 0,18,19
 154 511 154 511 170 484 c 128,-1,20
 186 457 186 457 211 435.5 c 128,-1,21
 236 414 236 414 267 393 c 128,-1,22
 298 372 298 372 328.5 349 c 128,-1,23
 359 326 359 326 384.5 301 c 128,-1,24
 410 276 410 276 426 241 c 128,-1,25
 442 206 442 206 442 165 c 0,26,27
 442 76 442 76 381 27 c 128,-1,28
 320 -22 320 -22 223 -22 c 0,29,30
 181 -22 181 -22 146 -14 c 128,-1,31
 111 -6 111 -6 82 10.5 c 128,-1,32
 53 27 53 27 36.5 56 c 128,-1,33
 20 85 20 85 20 124 c 0,34,35
 20 160 20 160 41 182.5 c 128,-1,36
 62 205 62 205 97 205 c 0,37,38
 131 205 131 205 149 189 c 1,39,40
 142 169 142 169 142 139 c 0,41,42
 142 44 142 44 232 44 c 0,43,44
 276 44 276 44 304 68.5 c 128,-1,45
 332 93 332 93 332 135 c 0,46,47
 332 165 332 165 316 192 c 128,-1,48
 300 219 300 219 275 240.5 c 128,-1,49
 250 262 250 262 219 283 c 128,-1,50
 188 304 188 304 157 327 c 128,-1,51
 126 350 126 350 101 375 c 128,-1,52
 76 400 76 400 60 435.5 c 128,-1,53
 44 471 44 471 44 511 c 0,54,55
 44 591 44 591 100.5 635.5 c 128,-1,56
 157 680 157 680 244 680 c 0,0,1
233 -50 m 0,57,58
 268 -50 268 -50 285.5 -69.5 c 128,-1,59
 303 -89 303 -89 303 -124 c 0,60,61
 303 -166 303 -166 273 -201.5 c 128,-1,62
 243 -237 243 -237 202 -237 c 0,63,64
 186 -237 186 -237 168 -231 c 1,65,66
 201 -182 201 -182 201 -127 c 0,67,68
 201 -90 201 -90 182 -62 c 1,69,70
 206 -50 206 -50 233 -50 c 0,57,58
EndSplineSet
Validated: 1
Position2: "'cpsp' Capital Spacing lookup 3 subtable" dx=5 dy=0 dh=10 dv=0
EndChar

StartChar: Sdotbelow
Encoding: 7778 7778 114
Width: 471
Flags: MW
LayerCount: 2
UndoRedoHistory
Layer: 0
Undoes
EndUndoes
Redoes
EndRedoes
EndUndoRedoHistory
UndoRedoHistory
Layer: 1
Undoes
EndUndoes
Redoes
EndRedoes
EndUndoRedoHistory
Fore
SplineSet
244 680 m 0,0,1
 276 680 276 680 304 675.5 c 128,-1,2
 332 671 332 671 356.5 661 c 128,-1,3
 381 651 381 651 398 635 c 128,-1,4
 415 619 415 619 425 595 c 128,-1,5
 435 571 435 571 435 541 c 0,6,7
 435 505 435 505 414 482.5 c 128,-1,8
 393 460 393 460 357 460 c 0,9,10
 323 460 323 460 305 476 c 1,11,12
 313 498 313 498 313 526 c 0,13,14
 313 614 313 614 235 614 c 0,15,16
 197 614 197 614 175.5 595.5 c 128,-1,17
 154 577 154 577 154 541 c 0,18,19
 154 511 154 511 170 484 c 128,-1,20
 186 457 186 457 211 435.5 c 128,-1,21
 236 414 236 414 267 393 c 128,-1,22
 298 372 298 372 328.5 349 c 128,-1,23
 359 326 359 326 384.5 301 c 128,-1,24
 410 276 410 276 426 241 c 128,-1,25
 442 206 442 206 442 165 c 0,26,27
 442 76 442 76 381 27 c 128,-1,28
 320 -22 320 -22 223 -22 c 0,29,30
 181 -22 181 -22 146 -14 c 128,-1,31
 111 -6 111 -6 82 10.5 c 128,-1,32
 53 27 53 27 36.5 56 c 128,-1,33
 20 85 20 85 20 124 c 0,34,35
 20 160 20 160 41 182.5 c 128,-1,36
 62 205 62 205 97 205 c 0,37,38
 131 205 131 205 149 189 c 1,39,40
 142 169 142 169 142 139 c 0,41,42
 142 44 142 44 232 44 c 0,43,44
 276 44 276 44 304 68.5 c 128,-1,45
 332 93 332 93 332 135 c 0,46,47
 332 165 332 165 316 192 c 128,-1,48
 300 219 300 219 275 240.5 c 128,-1,49
 250 262 250 262 219 283 c 128,-1,50
 188 304 188 304 157 327 c 128,-1,51
 126 350 126 350 101 375 c 128,-1,52
 76 400 76 400 60 435.5 c 128,-1,53
 44 471 44 471 44 511 c 0,54,55
 44 591 44 591 100.5 635.5 c 128,-1,56
 157 680 157 680 244 680 c 0,0,1
233 -54 m 128,-1,58
 266 -54 266 -54 286.5 -70 c 128,-1,59
 307 -86 307 -86 307 -116 c 0,60,61
 307 -147 307 -147 285.5 -163.5 c 128,-1,62
 264 -180 264 -180 230 -180 c 0,63,64
 197 -180 197 -180 177 -164 c 128,-1,65
 157 -148 157 -148 157 -118 c 0,66,67
 157 -87 157 -87 178.5 -70.5 c 128,-1,57
 200 -54 200 -54 233 -54 c 128,-1,58
EndSplineSet
Validated: 1
Position2: "'cpsp' Capital Spacing lookup 3 subtable" dx=5 dy=0 dh=10 dv=0
EndChar

StartChar: uni1E9E
Encoding: 7838 7838 115
Width: 645
Flags: MW
LayerCount: 2
UndoRedoHistory
Layer: 0
Undoes
EndUndoes
Redoes
EndRedoes
EndUndoRedoHistory
UndoRedoHistory
Layer: 1
Undoes
EndUndoes
Redoes
EndRedoes
EndUndoRedoHistory
Fore
SplineSet
50 332 m 1,0,1
 50 348 l 1,2,3
 50 361 l 1,4,5
 50 371 l 1,6,7
 50 378 l 1,8,9
 50 385 l 2,10,11
 50 408 50 408 56 451 c 0,12,13
 63 503 63 503 81.5 547 c 128,-1,14
 100 591 100 591 130.5 619.5 c 128,-1,15
 161 648 161 648 208 664 c 128,-1,16
 255 680 255 680 319 680 c 0,17,18
 389 680 389 680 447 647.5 c 128,-1,19
 505 615 505 615 535 555 c 1,20,21
 511 548 511 548 497.5 543 c 128,-1,22
 484 538 484 538 464.5 528.5 c 128,-1,23
 445 519 445 519 434 509.5 c 128,-1,24
 423 500 423 500 415 484.5 c 128,-1,25
 407 469 407 469 407 451 c 128,-1,26
 407 433 407 433 420 415.5 c 128,-1,27
 433 398 433 398 453.5 383 c 128,-1,28
 474 368 474 368 498 351.5 c 128,-1,29
 522 335 522 335 547 316 c 128,-1,30
 572 297 572 297 592.5 275 c 128,-1,31
 613 253 613 253 625.5 223 c 128,-1,32
 638 193 638 193 638 159 c 0,33,34
 638 70 638 70 584 24 c 128,-1,35
 530 -22 530 -22 437 -22 c 0,36,37
 383 -22 383 -22 341 -7.5 c 128,-1,38
 299 7 299 7 271.5 41 c 128,-1,39
 244 75 244 75 244 124 c 0,40,41
 244 160 244 160 265 182.5 c 128,-1,42
 286 205 286 205 320.5 205 c 128,-1,43
 355 205 355 205 373 189 c 1,44,45
 365 167 365 167 365 139 c 0,46,47
 365 44 365 44 446 44 c 0,48,49
 489 44 489 44 512 67.5 c 128,-1,50
 535 91 535 91 535 135 c 0,51,52
 535 163 535 163 522.5 186 c 128,-1,53
 510 209 510 209 489.5 226 c 128,-1,54
 469 243 469 243 444.5 258.5 c 128,-1,55
 420 274 420 274 395.5 291.5 c 128,-1,56
 371 309 371 309 351 328 c 128,-1,57
 331 347 331 347 318 375.5 c 128,-1,58
 305 404 305 404 305 438 c 0,59,60
 305 524 305 524 419 555 c 1,61,62
 377 610 377 610 310 610 c 0,63,64
 274 610 274 610 247.5 596 c 128,-1,65
 221 582 221 582 206 560.5 c 128,-1,66
 191 539 191 539 182 505 c 128,-1,67
 173 471 173 471 170 439 c 128,-1,68
 167 407 167 407 167 365 c 2,69,-1
 167 332 l 1,70,-1
 167 0 l 1,71,-1
 50 0 l 1,72,-1
 50 332 l 1,0,1
EndSplineSet
Validated: 1
Position2: "'cpsp' Capital Spacing lookup 3 subtable" dx=5 dy=0 dh=10 dv=0
EndChar

StartChar: Schwa
Encoding: 399 399 116
Width: 556
Flags: MW
LayerCount: 2
UndoRedoHistory
Layer: 0
Undoes
EndUndoes
Redoes
EndRedoes
EndUndoRedoHistory
UndoRedoHistory
Layer: 1
Undoes
EndUndoes
Redoes
EndRedoes
EndUndoRedoHistory
Fore
SplineSet
266 683 m 0,0,1
 523 683 523 683 523 346 c 0,2,3
 523 282 523 282 514 228 c 128,-1,4
 505 174 505 174 484 127.5 c 128,-1,5
 463 81 463 81 431.5 48 c 128,-1,6
 400 15 400 15 352 -3.5 c 128,-1,7
 304 -22 304 -22 243 -22 c 0,8,9
 149 -22 149 -22 91.5 27.5 c 128,-1,10
 34 77 34 77 34 166 c 0,11,12
 34 212 34 212 49 247.5 c 128,-1,13
 64 283 64 283 89.5 305.5 c 128,-1,14
 115 328 115 328 152 342 c 128,-1,15
 189 356 189 356 230 361.5 c 128,-1,16
 271 367 271 367 321 367 c 0,17,18
 331 367 331 367 391 364 c 1,19,20
 390 402 390 402 386.5 432 c 128,-1,21
 383 462 383 462 374 493.5 c 128,-1,22
 365 525 365 525 350 546 c 128,-1,23
 335 567 335 567 311 580.5 c 128,-1,24
 287 594 287 594 254 594 c 0,25,26
 200 594 200 594 156.5 561 c 128,-1,27
 113 528 113 528 87 473 c 1,28,29
 59 489 59 489 59 530 c 0,30,31
 59 576 59 576 91 611.5 c 128,-1,32
 123 647 123 647 169.5 665 c 128,-1,33
 216 683 216 683 266 683 c 0,0,1
263 50 m 0,34,35
 293 50 293 50 316 66 c 128,-1,36
 339 82 339 82 352.5 106 c 128,-1,37
 366 130 366 130 375 164.5 c 128,-1,38
 384 199 384 199 387.5 231 c 128,-1,39
 391 263 391 263 391 299 c 1,40,41
 363 302 363 302 335 302 c 0,42,43
 258 302 258 302 216 272 c 128,-1,44
 174 242 174 242 174 173 c 0,45,46
 174 121 174 121 197 85.5 c 128,-1,47
 220 50 220 50 263 50 c 0,34,35
EndSplineSet
Validated: 1
Position2: "'cpsp' Capital Spacing lookup 3 subtable" dx=5 dy=0 dh=10 dv=0
EndChar

StartChar: T
Encoding: 84 84 117
Width: 400
Flags: MW
LayerCount: 2
UndoRedoHistory
Layer: 0
Undoes
EndUndoes
Redoes
EndRedoes
EndUndoRedoHistory
UndoRedoHistory
Layer: 1
Undoes
EndUndoes
Redoes
EndRedoes
EndUndoRedoHistory
Fore
SplineSet
413 586 m 1,0,-1
 259 586 l 1,1,-1
 259 0 l 1,2,-1
 142 0 l 1,3,-1
 142 586 l 1,4,-1
 -15 586 l 1,5,-1
 -15 660 l 1,6,-1
 420 660 l 1,7,-1
 413 586 l 1,0,-1
EndSplineSet
Validated: 1
Position2: "'cpsp' Capital Spacing lookup 3 subtable" dx=5 dy=0 dh=10 dv=0
EndChar

StartChar: Tbar
Encoding: 358 358 118
Width: 400
Flags: MW
LayerCount: 2
UndoRedoHistory
Layer: 0
Undoes
EndUndoes
Redoes
EndRedoes
EndUndoRedoHistory
UndoRedoHistory
Layer: 1
Undoes
EndUndoes
Redoes
EndRedoes
EndUndoRedoHistory
Fore
SplineSet
259 586 m 1,0,-1
 259 379 l 1,1,-1
 404 379 l 1,2,3
 413 358 413 358 413 344 c 0,4,5
 413 307 413 307 358 307 c 2,6,-1
 259 307 l 1,7,-1
 259 0 l 1,8,-1
 142 0 l 1,9,-1
 142 307 l 1,10,-1
 10 307 l 1,11,12
 2 325 2 325 2 341 c 0,13,14
 2 379 2 379 50 379 c 2,15,-1
 142 379 l 1,16,-1
 142 586 l 1,17,-1
 -15 586 l 1,18,-1
 -15 660 l 1,19,-1
 420 660 l 1,20,-1
 413 586 l 1,21,-1
 259 586 l 1,0,-1
EndSplineSet
Validated: 1
Position2: "'cpsp' Capital Spacing lookup 3 subtable" dx=5 dy=0 dh=10 dv=0
EndChar

StartChar: Tcaron
Encoding: 356 356 119
Width: 400
Flags: MW
LayerCount: 2
UndoRedoHistory
Layer: 0
Undoes
EndUndoes
Redoes
EndRedoes
EndUndoRedoHistory
UndoRedoHistory
Layer: 1
Undoes
EndUndoes
Redoes
EndRedoes
EndUndoRedoHistory
Fore
SplineSet
347 799 m 1,0,-1
 202 687 l 1,1,-1
 199 687 l 1,2,-1
 50 799 l 1,3,-1
 79 834 l 1,4,-1
 199 771 l 1,5,-1
 318 834 l 1,6,-1
 347 799 l 1,0,-1
259 586 m 1,7,-1
 259 0 l 1,8,-1
 142 0 l 1,9,-1
 142 586 l 1,10,-1
 -15 586 l 1,11,-1
 -15 660 l 1,12,-1
 420 660 l 1,13,-1
 413 586 l 1,14,-1
 259 586 l 1,7,-1
EndSplineSet
Validated: 1
Position2: "'cpsp' Capital Spacing lookup 3 subtable" dx=5 dy=0 dh=10 dv=0
EndChar

StartChar: Tcedilla
Encoding: 354 354 120
Width: 400
Flags: MW
LayerCount: 2
UndoRedoHistory
Layer: 0
Undoes
EndUndoes
Redoes
EndRedoes
EndUndoRedoHistory
UndoRedoHistory
Layer: 1
Undoes
EndUndoes
Redoes
EndRedoes
EndUndoRedoHistory
Fore
SplineSet
202 0 m 1,0,-1
 177 -65 l 1,1,2
 186 -64 186 -64 205 -64 c 0,3,4
 256 -64 256 -64 286 -86.5 c 128,-1,5
 316 -109 316 -109 316 -154 c 0,6,7
 316 -198 316 -198 277 -225.5 c 128,-1,8
 238 -253 238 -253 185 -253 c 0,9,10
 162 -253 162 -253 141.5 -248 c 128,-1,11
 121 -243 121 -243 105.5 -229.5 c 128,-1,12
 90 -216 90 -216 90 -197 c 0,13,14
 90 -181 90 -181 100 -172 c 1,15,16
 125 -200 125 -200 170 -200 c 0,17,18
 198 -200 198 -200 216.5 -190 c 128,-1,19
 235 -180 235 -180 235 -157 c 0,20,21
 235 -111 235 -111 154 -111 c 0,22,23
 132 -111 132 -111 112 -114 c 1,24,-1
 155 0 l 1,25,-1
 142 0 l 1,26,-1
 142 586 l 1,27,-1
 -15 586 l 1,28,-1
 -15 660 l 1,29,-1
 420 660 l 1,30,-1
 413 586 l 1,31,-1
 259 586 l 1,32,-1
 259 0 l 1,33,-1
 202 0 l 1,0,-1
EndSplineSet
Validated: 1
Substitution2: "'locl' Localized Forms in Latin lookup 12 subtable" uni021A
Substitution2: "'locl' Localized Forms in Latin lookup 11 subtable" uni021A
Substitution2: "'aalt' Access All Alternates lookup 0 subtable" uni021A
Position2: "'cpsp' Capital Spacing lookup 3 subtable" dx=5 dy=0 dh=10 dv=0
EndChar

StartChar: uni021A
Encoding: 538 538 121
Width: 400
Flags: MW
LayerCount: 2
UndoRedoHistory
Layer: 0
Undoes
EndUndoes
Redoes
EndRedoes
EndUndoRedoHistory
UndoRedoHistory
Layer: 1
Undoes
EndUndoes
Redoes
EndRedoes
EndUndoRedoHistory
Fore
SplineSet
259 586 m 1,0,-1
 259 0 l 1,1,-1
 142 0 l 1,2,-1
 142 586 l 1,3,-1
 -15 586 l 1,4,-1
 -15 660 l 1,5,-1
 420 660 l 1,6,-1
 413 586 l 1,7,-1
 259 586 l 1,0,-1
200 -50 m 0,8,9
 235 -50 235 -50 252.5 -69.5 c 128,-1,10
 270 -89 270 -89 270 -124 c 0,11,12
 270 -166 270 -166 240 -201.5 c 128,-1,13
 210 -237 210 -237 169 -237 c 0,14,15
 153 -237 153 -237 135 -231 c 1,16,17
 168 -182 168 -182 168 -127 c 0,18,19
 168 -90 168 -90 149 -62 c 1,20,21
 172 -50 172 -50 200 -50 c 0,8,9
EndSplineSet
Validated: 1
Position2: "'cpsp' Capital Spacing lookup 3 subtable" dx=5 dy=0 dh=10 dv=0
EndChar

StartChar: Tdotbelow
Encoding: 7788 7788 122
Width: 400
Flags: MW
LayerCount: 2
UndoRedoHistory
Layer: 0
Undoes
EndUndoes
Redoes
EndRedoes
EndUndoRedoHistory
UndoRedoHistory
Layer: 1
Undoes
EndUndoes
Redoes
EndRedoes
EndUndoRedoHistory
Fore
SplineSet
259 586 m 1,0,-1
 259 0 l 1,1,-1
 142 0 l 1,2,-1
 142 586 l 1,3,-1
 -15 586 l 1,4,-1
 -15 660 l 1,5,-1
 420 660 l 1,6,-1
 413 586 l 1,7,-1
 259 586 l 1,0,-1
200 -54 m 128,-1,9
 233 -54 233 -54 253.5 -70 c 128,-1,10
 274 -86 274 -86 274 -116 c 0,11,12
 274 -147 274 -147 252 -163.5 c 128,-1,13
 230 -180 230 -180 197 -180 c 0,14,15
 164 -180 164 -180 144 -164 c 128,-1,16
 124 -148 124 -148 124 -118 c 0,17,18
 124 -87 124 -87 145.5 -70.5 c 128,-1,8
 167 -54 167 -54 200 -54 c 128,-1,9
EndSplineSet
Validated: 1
Position2: "'cpsp' Capital Spacing lookup 3 subtable" dx=5 dy=0 dh=10 dv=0
EndChar

StartChar: U
Encoding: 85 85 123
Width: 546
Flags: MW
LayerCount: 2
UndoRedoHistory
Layer: 0
Undoes
EndUndoes
Redoes
EndRedoes
EndUndoRedoHistory
UndoRedoHistory
Layer: 1
Undoes
EndUndoes
Redoes
EndRedoes
EndUndoRedoHistory
Fore
SplineSet
492 274 m 2,0,1
 492 214 492 214 487 171 c 128,-1,2
 482 128 482 128 468 89.5 c 128,-1,3
 454 51 454 51 430 28 c 128,-1,4
 406 5 406 5 367 -8.5 c 128,-1,5
 328 -22 328 -22 274 -22 c 0,6,7
 209 -22 209 -22 166 -6 c 128,-1,8
 123 10 123 10 99 44.5 c 128,-1,9
 75 79 75 79 65 125.5 c 128,-1,10
 55 172 55 172 55 241 c 2,11,-1
 55 660 l 1,12,-1
 172 660 l 1,13,-1
 172 252 l 2,14,15
 172 225 172 225 172.5 207 c 128,-1,16
 173 189 173 189 175.5 166 c 128,-1,17
 178 143 178 143 182.5 127.5 c 128,-1,18
 187 112 187 112 195 95.5 c 128,-1,19
 203 79 203 79 214.5 69.5 c 128,-1,20
 226 60 226 60 243 54 c 128,-1,21
 260 48 260 48 282 48 c 128,-1,22
 304 48 304 48 321 55 c 128,-1,23
 338 62 338 62 349.5 72 c 128,-1,24
 361 82 361 82 369 100 c 128,-1,25
 377 118 377 118 381.5 133.5 c 128,-1,26
 386 149 386 149 388 174 c 128,-1,27
 390 199 390 199 390.5 217 c 128,-1,28
 391 235 391 235 391 263 c 2,29,-1
 391 660 l 1,30,-1
 492 660 l 1,31,-1
 492 274 l 2,0,1
EndSplineSet
Validated: 1
Position2: "'cpsp' Capital Spacing lookup 3 subtable" dx=5 dy=0 dh=10 dv=0
EndChar

StartChar: Uacute
Encoding: 218 218 124
Width: 546
Flags: MW
LayerCount: 2
UndoRedoHistory
Layer: 0
Undoes
EndUndoes
Redoes
EndRedoes
EndUndoRedoHistory
UndoRedoHistory
Layer: 1
Undoes
EndUndoes
Redoes
EndRedoes
EndUndoRedoHistory
Fore
SplineSet
417 837 m 1,0,1
 446 816 446 816 446 786 c 0,2,3
 446 767 446 767 436.5 754 c 128,-1,4
 427 741 427 741 409.5 734.5 c 128,-1,5
 392 728 392 728 375.5 725 c 128,-1,6
 359 722 359 722 335 720 c 2,7,-1
 216 711 l 1,8,-1
 205 753 l 1,9,-1
 417 837 l 1,0,1
492 274 m 2,10,11
 492 214 492 214 487 171 c 128,-1,12
 482 128 482 128 468 89.5 c 128,-1,13
 454 51 454 51 430 28 c 128,-1,14
 406 5 406 5 367 -8.5 c 128,-1,15
 328 -22 328 -22 274 -22 c 0,16,17
 209 -22 209 -22 166 -6 c 128,-1,18
 123 10 123 10 99 44.5 c 128,-1,19
 75 79 75 79 65 125.5 c 128,-1,20
 55 172 55 172 55 241 c 2,21,-1
 55 660 l 1,22,-1
 172 660 l 1,23,-1
 172 252 l 2,24,25
 172 225 172 225 172.5 207 c 128,-1,26
 173 189 173 189 175.5 166 c 128,-1,27
 178 143 178 143 182.5 127.5 c 128,-1,28
 187 112 187 112 195 95.5 c 128,-1,29
 203 79 203 79 214.5 69.5 c 128,-1,30
 226 60 226 60 243 54 c 128,-1,31
 260 48 260 48 282 48 c 128,-1,32
 304 48 304 48 321 55 c 128,-1,33
 338 62 338 62 349.5 72 c 128,-1,34
 361 82 361 82 369 100 c 128,-1,35
 377 118 377 118 381.5 133.5 c 128,-1,36
 386 149 386 149 388 174 c 128,-1,37
 390 199 390 199 390.5 217 c 128,-1,38
 391 235 391 235 391 263 c 2,39,-1
 391 660 l 1,40,-1
 492 660 l 1,41,-1
 492 274 l 2,10,11
EndSplineSet
Validated: 1
Position2: "'cpsp' Capital Spacing lookup 3 subtable" dx=5 dy=0 dh=10 dv=0
EndChar

StartChar: Ubreve
Encoding: 364 364 125
Width: 546
Flags: MW
LayerCount: 2
UndoRedoHistory
Layer: 0
Undoes
EndUndoes
Redoes
EndRedoes
EndUndoRedoHistory
UndoRedoHistory
Layer: 1
Undoes
EndUndoes
Redoes
EndRedoes
EndUndoRedoHistory
Fore
SplineSet
433 823 m 1,0,1
 433 758 433 758 391.5 721.5 c 128,-1,2
 350 685 350 685 282 685 c 128,-1,3
 214 685 214 685 173 721.5 c 128,-1,4
 132 758 132 758 132 823 c 1,5,-1
 223 823 l 1,6,7
 223 737 223 737 282 737 c 0,8,9
 341 737 341 737 341 823 c 1,10,-1
 433 823 l 1,0,1
492 274 m 2,11,12
 492 214 492 214 487 171 c 128,-1,13
 482 128 482 128 468 89.5 c 128,-1,14
 454 51 454 51 430 28 c 128,-1,15
 406 5 406 5 367 -8.5 c 128,-1,16
 328 -22 328 -22 274 -22 c 0,17,18
 209 -22 209 -22 166 -6 c 128,-1,19
 123 10 123 10 99 44.5 c 128,-1,20
 75 79 75 79 65 125.5 c 128,-1,21
 55 172 55 172 55 241 c 2,22,-1
 55 660 l 1,23,-1
 172 660 l 1,24,-1
 172 252 l 2,25,26
 172 225 172 225 172.5 207 c 128,-1,27
 173 189 173 189 175.5 166 c 128,-1,28
 178 143 178 143 182.5 127.5 c 128,-1,29
 187 112 187 112 195 95.5 c 128,-1,30
 203 79 203 79 214.5 69.5 c 128,-1,31
 226 60 226 60 243 54 c 128,-1,32
 260 48 260 48 282 48 c 128,-1,33
 304 48 304 48 321 55 c 128,-1,34
 338 62 338 62 349.5 72 c 128,-1,35
 361 82 361 82 369 100 c 128,-1,36
 377 118 377 118 381.5 133.5 c 128,-1,37
 386 149 386 149 388 174 c 128,-1,38
 390 199 390 199 390.5 217 c 128,-1,39
 391 235 391 235 391 263 c 2,40,-1
 391 660 l 1,41,-1
 492 660 l 1,42,-1
 492 274 l 2,11,12
EndSplineSet
Validated: 1
Position2: "'cpsp' Capital Spacing lookup 3 subtable" dx=5 dy=0 dh=10 dv=0
EndChar

StartChar: Ucircumflex
Encoding: 219 219 126
Width: 546
Flags: MW
LayerCount: 2
UndoRedoHistory
Layer: 0
Undoes
EndUndoes
Redoes
EndRedoes
EndUndoRedoHistory
UndoRedoHistory
Layer: 1
Undoes
EndUndoes
Redoes
EndRedoes
EndUndoRedoHistory
Fore
SplineSet
134 704 m 1,0,-1
 279 836 l 1,1,-1
 283 836 l 1,2,-1
 432 704 l 1,3,-1
 402 669 l 1,4,-1
 282 742 l 1,5,-1
 163 669 l 1,6,-1
 134 704 l 1,0,-1
492 274 m 2,7,8
 492 214 492 214 487 171 c 128,-1,9
 482 128 482 128 468 89.5 c 128,-1,10
 454 51 454 51 430 28 c 128,-1,11
 406 5 406 5 367 -8.5 c 128,-1,12
 328 -22 328 -22 274 -22 c 0,13,14
 209 -22 209 -22 166 -6 c 128,-1,15
 123 10 123 10 99 44.5 c 128,-1,16
 75 79 75 79 65 125.5 c 128,-1,17
 55 172 55 172 55 241 c 2,18,-1
 55 660 l 1,19,-1
 172 660 l 1,20,-1
 172 252 l 2,21,22
 172 225 172 225 172.5 207 c 128,-1,23
 173 189 173 189 175.5 166 c 128,-1,24
 178 143 178 143 182.5 127.5 c 128,-1,25
 187 112 187 112 195 95.5 c 128,-1,26
 203 79 203 79 214.5 69.5 c 128,-1,27
 226 60 226 60 243 54 c 128,-1,28
 260 48 260 48 282 48 c 128,-1,29
 304 48 304 48 321 55 c 128,-1,30
 338 62 338 62 349.5 72 c 128,-1,31
 361 82 361 82 369 100 c 128,-1,32
 377 118 377 118 381.5 133.5 c 128,-1,33
 386 149 386 149 388 174 c 128,-1,34
 390 199 390 199 390.5 217 c 128,-1,35
 391 235 391 235 391 263 c 2,36,-1
 391 660 l 1,37,-1
 492 660 l 1,38,-1
 492 274 l 2,7,8
EndSplineSet
Validated: 1
Position2: "'cpsp' Capital Spacing lookup 3 subtable" dx=5 dy=0 dh=10 dv=0
EndChar

StartChar: Udieresis
Encoding: 220 220 127
Width: 546
Flags: MW
LayerCount: 2
UndoRedoHistory
Layer: 0
Undoes
EndUndoes
Redoes
EndRedoes
EndUndoRedoHistory
UndoRedoHistory
Layer: 1
Undoes
EndUndoes
Redoes
EndRedoes
EndUndoRedoHistory
Fore
SplineSet
183 836 m 128,-1,1
 216 836 216 836 236.5 820 c 128,-1,2
 257 804 257 804 257 774 c 0,3,4
 257 743 257 743 235.5 726.5 c 128,-1,5
 214 710 214 710 180 710 c 0,6,7
 147 710 147 710 127 726 c 128,-1,8
 107 742 107 742 107 772 c 0,9,10
 107 803 107 803 128.5 819.5 c 128,-1,0
 150 836 150 836 183 836 c 128,-1,1
383 836 m 128,-1,12
 416 836 416 836 436.5 820 c 128,-1,13
 457 804 457 804 457 774 c 0,14,15
 457 743 457 743 435.5 726.5 c 128,-1,16
 414 710 414 710 380 710 c 0,17,18
 347 710 347 710 327 726 c 128,-1,19
 307 742 307 742 307 772 c 0,20,21
 307 803 307 803 328.5 819.5 c 128,-1,11
 350 836 350 836 383 836 c 128,-1,12
492 274 m 2,22,23
 492 214 492 214 487 171 c 128,-1,24
 482 128 482 128 468 89.5 c 128,-1,25
 454 51 454 51 430 28 c 128,-1,26
 406 5 406 5 367 -8.5 c 128,-1,27
 328 -22 328 -22 274 -22 c 0,28,29
 209 -22 209 -22 166 -6 c 128,-1,30
 123 10 123 10 99 44.5 c 128,-1,31
 75 79 75 79 65 125.5 c 128,-1,32
 55 172 55 172 55 241 c 2,33,-1
 55 660 l 1,34,-1
 172 660 l 1,35,-1
 172 252 l 2,36,37
 172 225 172 225 172.5 207 c 128,-1,38
 173 189 173 189 175.5 166 c 128,-1,39
 178 143 178 143 182.5 127.5 c 128,-1,40
 187 112 187 112 195 95.5 c 128,-1,41
 203 79 203 79 214.5 69.5 c 128,-1,42
 226 60 226 60 243 54 c 128,-1,43
 260 48 260 48 282 48 c 128,-1,44
 304 48 304 48 321 55 c 128,-1,45
 338 62 338 62 349.5 72 c 128,-1,46
 361 82 361 82 369 100 c 128,-1,47
 377 118 377 118 381.5 133.5 c 128,-1,48
 386 149 386 149 388 174 c 128,-1,49
 390 199 390 199 390.5 217 c 128,-1,50
 391 235 391 235 391 263 c 2,51,-1
 391 660 l 1,52,-1
 492 660 l 1,53,-1
 492 274 l 2,22,23
EndSplineSet
Validated: 1
Position2: "'cpsp' Capital Spacing lookup 3 subtable" dx=5 dy=0 dh=10 dv=0
EndChar

StartChar: Udotbelow
Encoding: 7908 7908 128
Width: 546
Flags: MW
LayerCount: 2
UndoRedoHistory
Layer: 0
Undoes
EndUndoes
Redoes
EndRedoes
EndUndoRedoHistory
UndoRedoHistory
Layer: 1
Undoes
EndUndoes
Redoes
EndRedoes
EndUndoRedoHistory
Fore
SplineSet
492 274 m 2,0,1
 492 214 492 214 487 171 c 128,-1,2
 482 128 482 128 468 89.5 c 128,-1,3
 454 51 454 51 430 28 c 128,-1,4
 406 5 406 5 367 -8.5 c 128,-1,5
 328 -22 328 -22 274 -22 c 0,6,7
 209 -22 209 -22 166 -6 c 128,-1,8
 123 10 123 10 99 44.5 c 128,-1,9
 75 79 75 79 65 125.5 c 128,-1,10
 55 172 55 172 55 241 c 2,11,-1
 55 660 l 1,12,-1
 172 660 l 1,13,-1
 172 252 l 2,14,15
 172 225 172 225 172.5 207 c 128,-1,16
 173 189 173 189 175.5 166 c 128,-1,17
 178 143 178 143 182.5 127.5 c 128,-1,18
 187 112 187 112 195 95.5 c 128,-1,19
 203 79 203 79 214.5 69.5 c 128,-1,20
 226 60 226 60 243 54 c 128,-1,21
 260 48 260 48 282 48 c 128,-1,22
 304 48 304 48 321 55 c 128,-1,23
 338 62 338 62 349.5 72 c 128,-1,24
 361 82 361 82 369 100 c 128,-1,25
 377 118 377 118 381.5 133.5 c 128,-1,26
 386 149 386 149 388 174 c 128,-1,27
 390 199 390 199 390.5 217 c 128,-1,28
 391 235 391 235 391 263 c 2,29,-1
 391 660 l 1,30,-1
 492 660 l 1,31,-1
 492 274 l 2,0,1
286 -54 m 128,-1,33
 319 -54 319 -54 339.5 -70 c 128,-1,34
 360 -86 360 -86 360 -116 c 0,35,36
 360 -147 360 -147 338.5 -163.5 c 128,-1,37
 317 -180 317 -180 283 -180 c 0,38,39
 250 -180 250 -180 230 -164 c 128,-1,40
 210 -148 210 -148 210 -118 c 0,41,42
 210 -87 210 -87 231.5 -70.5 c 128,-1,32
 253 -54 253 -54 286 -54 c 128,-1,33
EndSplineSet
Validated: 1
Position2: "'cpsp' Capital Spacing lookup 3 subtable" dx=5 dy=0 dh=10 dv=0
EndChar

StartChar: Ugrave
Encoding: 217 217 129
Width: 546
Flags: MW
LayerCount: 2
UndoRedoHistory
Layer: 0
Undoes
EndUndoes
Redoes
EndRedoes
EndUndoRedoHistory
UndoRedoHistory
Layer: 1
Undoes
EndUndoes
Redoes
EndRedoes
EndUndoRedoHistory
Fore
SplineSet
227 720 m 2,0,1
 203 722 203 722 186.5 725 c 128,-1,2
 170 728 170 728 152.5 734.5 c 128,-1,3
 135 741 135 741 126 754 c 128,-1,4
 117 767 117 767 117 786 c 0,5,6
 117 817 117 817 145 837 c 1,7,-1
 358 753 l 1,8,-1
 347 711 l 1,9,-1
 227 720 l 2,0,1
492 274 m 2,10,11
 492 214 492 214 487 171 c 128,-1,12
 482 128 482 128 468 89.5 c 128,-1,13
 454 51 454 51 430 28 c 128,-1,14
 406 5 406 5 367 -8.5 c 128,-1,15
 328 -22 328 -22 274 -22 c 0,16,17
 209 -22 209 -22 166 -6 c 128,-1,18
 123 10 123 10 99 44.5 c 128,-1,19
 75 79 75 79 65 125.5 c 128,-1,20
 55 172 55 172 55 241 c 2,21,-1
 55 660 l 1,22,-1
 172 660 l 1,23,-1
 172 252 l 2,24,25
 172 225 172 225 172.5 207 c 128,-1,26
 173 189 173 189 175.5 166 c 128,-1,27
 178 143 178 143 182.5 127.5 c 128,-1,28
 187 112 187 112 195 95.5 c 128,-1,29
 203 79 203 79 214.5 69.5 c 128,-1,30
 226 60 226 60 243 54 c 128,-1,31
 260 48 260 48 282 48 c 128,-1,32
 304 48 304 48 321 55 c 128,-1,33
 338 62 338 62 349.5 72 c 128,-1,34
 361 82 361 82 369 100 c 128,-1,35
 377 118 377 118 381.5 133.5 c 128,-1,36
 386 149 386 149 388 174 c 128,-1,37
 390 199 390 199 390.5 217 c 128,-1,38
 391 235 391 235 391 263 c 2,39,-1
 391 660 l 1,40,-1
 492 660 l 1,41,-1
 492 274 l 2,10,11
EndSplineSet
Validated: 1
Position2: "'cpsp' Capital Spacing lookup 3 subtable" dx=5 dy=0 dh=10 dv=0
EndChar

StartChar: Uhungarumlaut
Encoding: 368 368 130
Width: 546
Flags: MW
LayerCount: 2
UndoRedoHistory
Layer: 0
Undoes
EndUndoes
Redoes
EndRedoes
EndUndoRedoHistory
UndoRedoHistory
Layer: 1
Undoes
EndUndoes
Redoes
EndRedoes
EndUndoRedoHistory
Fore
SplineSet
304 849 m 1,0,1
 321 842 321 842 331 830 c 128,-1,2
 341 818 341 818 341 803 c 0,3,4
 341 791 341 791 334 781 c 128,-1,5
 327 771 327 771 308.5 760.5 c 128,-1,6
 290 750 290 750 282.5 746.5 c 128,-1,7
 275 743 275 743 249 732 c 0,8,9
 246 730 246 730 243 730 c 1,10,-1
 168 703 l 1,11,-1
 149 742 l 1,12,-1
 304 849 l 1,0,1
491 849 m 1,13,14
 508 842 508 842 518 830 c 128,-1,15
 528 818 528 818 528 803 c 0,16,17
 528 795 528 795 524.5 787 c 128,-1,18
 521 779 521 779 511.5 772 c 128,-1,19
 502 765 502 765 495.5 760 c 128,-1,20
 489 755 489 755 474 748.5 c 128,-1,21
 459 742 459 742 453.5 739.5 c 128,-1,22
 448 737 448 737 431 730 c 2,23,-1
 355 703 l 1,24,-1
 336 742 l 1,25,-1
 491 849 l 1,13,14
492 274 m 2,26,27
 492 214 492 214 487 171 c 128,-1,28
 482 128 482 128 468 89.5 c 128,-1,29
 454 51 454 51 430 28 c 128,-1,30
 406 5 406 5 367 -8.5 c 128,-1,31
 328 -22 328 -22 274 -22 c 0,32,33
 209 -22 209 -22 166 -6 c 128,-1,34
 123 10 123 10 99 44.5 c 128,-1,35
 75 79 75 79 65 125.5 c 128,-1,36
 55 172 55 172 55 241 c 2,37,-1
 55 660 l 1,38,-1
 172 660 l 1,39,-1
 172 252 l 2,40,41
 172 225 172 225 172.5 207 c 128,-1,42
 173 189 173 189 175.5 166 c 128,-1,43
 178 143 178 143 182.5 127.5 c 128,-1,44
 187 112 187 112 195 95.5 c 128,-1,45
 203 79 203 79 214.5 69.5 c 128,-1,46
 226 60 226 60 243 54 c 128,-1,47
 260 48 260 48 282 48 c 128,-1,48
 304 48 304 48 321 55 c 128,-1,49
 338 62 338 62 349.5 72 c 128,-1,50
 361 82 361 82 369 100 c 128,-1,51
 377 118 377 118 381.5 133.5 c 128,-1,52
 386 149 386 149 388 174 c 128,-1,53
 390 199 390 199 390.5 217 c 128,-1,54
 391 235 391 235 391 263 c 2,55,-1
 391 660 l 1,56,-1
 492 660 l 1,57,-1
 492 274 l 2,26,27
EndSplineSet
Validated: 1
Position2: "'cpsp' Capital Spacing lookup 3 subtable" dx=5 dy=0 dh=10 dv=0
EndChar

StartChar: Umacron
Encoding: 362 362 131
Width: 546
Flags: MW
LayerCount: 2
UndoRedoHistory
Layer: 0
Undoes
EndUndoes
Redoes
EndRedoes
EndUndoRedoHistory
UndoRedoHistory
Layer: 1
Undoes
EndUndoes
Redoes
EndRedoes
EndUndoRedoHistory
Fore
SplineSet
412 824 m 1,0,1
 420 804 420 804 420 786 c 0,2,3
 420 742 420 742 362 742 c 2,4,-1
 152 742 l 1,5,6
 145 758 145 758 145 778 c 0,7,8
 145 799 145 799 158.5 811.5 c 128,-1,9
 172 824 172 824 196 824 c 2,10,-1
 412 824 l 1,0,1
492 274 m 2,11,12
 492 214 492 214 487 171 c 128,-1,13
 482 128 482 128 468 89.5 c 128,-1,14
 454 51 454 51 430 28 c 128,-1,15
 406 5 406 5 367 -8.5 c 128,-1,16
 328 -22 328 -22 274 -22 c 0,17,18
 209 -22 209 -22 166 -6 c 128,-1,19
 123 10 123 10 99 44.5 c 128,-1,20
 75 79 75 79 65 125.5 c 128,-1,21
 55 172 55 172 55 241 c 2,22,-1
 55 660 l 1,23,-1
 172 660 l 1,24,-1
 172 252 l 2,25,26
 172 225 172 225 172.5 207 c 128,-1,27
 173 189 173 189 175.5 166 c 128,-1,28
 178 143 178 143 182.5 127.5 c 128,-1,29
 187 112 187 112 195 95.5 c 128,-1,30
 203 79 203 79 214.5 69.5 c 128,-1,31
 226 60 226 60 243 54 c 128,-1,32
 260 48 260 48 282 48 c 128,-1,33
 304 48 304 48 321 55 c 128,-1,34
 338 62 338 62 349.5 72 c 128,-1,35
 361 82 361 82 369 100 c 128,-1,36
 377 118 377 118 381.5 133.5 c 128,-1,37
 386 149 386 149 388 174 c 128,-1,38
 390 199 390 199 390.5 217 c 128,-1,39
 391 235 391 235 391 263 c 2,40,-1
 391 660 l 1,41,-1
 492 660 l 1,42,-1
 492 274 l 2,11,12
EndSplineSet
Validated: 1
Position2: "'cpsp' Capital Spacing lookup 3 subtable" dx=5 dy=0 dh=10 dv=0
EndChar

StartChar: Uogonek
Encoding: 370 370 132
Width: 546
Flags: MW
LayerCount: 2
UndoRedoHistory
Layer: 0
Undoes
EndUndoes
Redoes
EndRedoes
EndUndoRedoHistory
UndoRedoHistory
Layer: 1
Undoes
EndUndoes
Redoes
EndRedoes
EndUndoRedoHistory
Fore
SplineSet
492 274 m 2,0,1
 492 170 492 170 474 106 c 128,-1,2
 456 42 456 42 407 10 c 1,3,4
 370 -17 370 -17 348.5 -54 c 128,-1,5
 327 -91 327 -91 327 -130 c 0,6,7
 327 -160 327 -160 339.5 -174 c 128,-1,8
 352 -188 352 -188 383 -188 c 0,9,10
 412 -188 412 -188 430 -167 c 1,11,12
 441 -176 441 -176 441 -192 c 0,13,14
 441 -220 441 -220 417 -233 c 128,-1,15
 393 -246 393 -246 359 -246 c 0,16,17
 309 -246 309 -246 281 -219 c 128,-1,18
 253 -192 253 -192 253 -143 c 0,19,20
 253 -77 253 -77 310 -20 c 1,21,22
 286 -22 286 -22 274 -22 c 0,23,24
 209 -22 209 -22 166 -6 c 128,-1,25
 123 10 123 10 99 44.5 c 128,-1,26
 75 79 75 79 65 125.5 c 128,-1,27
 55 172 55 172 55 241 c 2,28,-1
 55 660 l 1,29,-1
 172 660 l 1,30,-1
 172 252 l 2,31,32
 172 225 172 225 172.5 207 c 128,-1,33
 173 189 173 189 175.5 166 c 128,-1,34
 178 143 178 143 182.5 127.5 c 128,-1,35
 187 112 187 112 195 95.5 c 128,-1,36
 203 79 203 79 214.5 69.5 c 128,-1,37
 226 60 226 60 243 54 c 128,-1,38
 260 48 260 48 282 48 c 128,-1,39
 304 48 304 48 321 55 c 128,-1,40
 338 62 338 62 349.5 72 c 128,-1,41
 361 82 361 82 369 100 c 128,-1,42
 377 118 377 118 381.5 133.5 c 128,-1,43
 386 149 386 149 388 174 c 128,-1,44
 390 199 390 199 390.5 217 c 128,-1,45
 391 235 391 235 391 263 c 2,46,-1
 391 660 l 1,47,-1
 492 660 l 1,48,-1
 492 274 l 2,0,1
EndSplineSet
Validated: 1
Position2: "'cpsp' Capital Spacing lookup 3 subtable" dx=5 dy=0 dh=10 dv=0
EndChar

StartChar: Uring
Encoding: 366 366 133
Width: 546
Flags: MW
LayerCount: 2
UndoRedoHistory
Layer: 0
Undoes
EndUndoes
Redoes
EndRedoes
EndUndoRedoHistory
UndoRedoHistory
Layer: 1
Undoes
EndUndoes
Redoes
EndRedoes
EndUndoRedoHistory
Fore
SplineSet
281 702 m 0,0,1
 239 702 239 702 210 725 c 128,-1,2
 181 748 181 748 181 786 c 0,3,4
 181 824 181 824 209 845.5 c 128,-1,5
 237 867 237 867 281 867 c 0,6,7
 325 867 325 867 353.5 845.5 c 128,-1,8
 382 824 382 824 382 786 c 0,9,10
 382 748 382 748 353 725 c 128,-1,11
 324 702 324 702 281 702 c 0,0,1
281 736 m 0,12,13
 302 736 302 736 313 750 c 128,-1,14
 324 764 324 764 324 786 c 0,15,16
 324 807 324 807 313 820 c 128,-1,17
 302 833 302 833 281 833 c 0,18,19
 261 833 261 833 250 820 c 128,-1,20
 239 807 239 807 239 786 c 0,21,22
 239 764 239 764 249.5 750 c 128,-1,23
 260 736 260 736 281 736 c 0,12,13
492 274 m 2,24,25
 492 214 492 214 487 171 c 128,-1,26
 482 128 482 128 468 89.5 c 128,-1,27
 454 51 454 51 430 28 c 128,-1,28
 406 5 406 5 367 -8.5 c 128,-1,29
 328 -22 328 -22 274 -22 c 0,30,31
 209 -22 209 -22 166 -6 c 128,-1,32
 123 10 123 10 99 44.5 c 128,-1,33
 75 79 75 79 65 125.5 c 128,-1,34
 55 172 55 172 55 241 c 2,35,-1
 55 660 l 1,36,-1
 172 660 l 1,37,-1
 172 252 l 2,38,39
 172 225 172 225 172.5 207 c 128,-1,40
 173 189 173 189 175.5 166 c 128,-1,41
 178 143 178 143 182.5 127.5 c 128,-1,42
 187 112 187 112 195 95.5 c 128,-1,43
 203 79 203 79 214.5 69.5 c 128,-1,44
 226 60 226 60 243 54 c 128,-1,45
 260 48 260 48 282 48 c 128,-1,46
 304 48 304 48 321 55 c 128,-1,47
 338 62 338 62 349.5 72 c 128,-1,48
 361 82 361 82 369 100 c 128,-1,49
 377 118 377 118 381.5 133.5 c 128,-1,50
 386 149 386 149 388 174 c 128,-1,51
 390 199 390 199 390.5 217 c 128,-1,52
 391 235 391 235 391 263 c 2,53,-1
 391 660 l 1,54,-1
 492 660 l 1,55,-1
 492 274 l 2,24,25
EndSplineSet
Validated: 1
Position2: "'cpsp' Capital Spacing lookup 3 subtable" dx=5 dy=0 dh=10 dv=0
EndChar

StartChar: Utilde
Encoding: 360 360 134
Width: 546
Flags: MW
LayerCount: 2
UndoRedoHistory
Layer: 0
Undoes
EndUndoes
Redoes
EndRedoes
EndUndoRedoHistory
UndoRedoHistory
Layer: 1
Undoes
EndUndoes
Redoes
EndRedoes
EndUndoRedoHistory
Fore
SplineSet
406 820 m 1,0,1
 433 802 433 802 433 769 c 0,2,3
 433 745 433 745 416 732.5 c 128,-1,4
 399 720 399 720 372 720 c 0,5,6
 350 720 350 720 289.5 732 c 128,-1,7
 229 744 229 744 210 744 c 0,8,9
 173 744 173 744 157 729 c 1,10,11
 130 747 130 747 130 780 c 0,12,13
 130 804 130 804 147 816.5 c 128,-1,14
 164 829 164 829 191 829 c 0,15,16
 214 829 214 829 273.5 817 c 128,-1,17
 333 805 333 805 353 805 c 0,18,19
 390 805 390 805 406 820 c 1,0,1
492 274 m 2,20,21
 492 214 492 214 487 171 c 128,-1,22
 482 128 482 128 468 89.5 c 128,-1,23
 454 51 454 51 430 28 c 128,-1,24
 406 5 406 5 367 -8.5 c 128,-1,25
 328 -22 328 -22 274 -22 c 0,26,27
 209 -22 209 -22 166 -6 c 128,-1,28
 123 10 123 10 99 44.5 c 128,-1,29
 75 79 75 79 65 125.5 c 128,-1,30
 55 172 55 172 55 241 c 2,31,-1
 55 660 l 1,32,-1
 172 660 l 1,33,-1
 172 252 l 2,34,35
 172 225 172 225 172.5 207 c 128,-1,36
 173 189 173 189 175.5 166 c 128,-1,37
 178 143 178 143 182.5 127.5 c 128,-1,38
 187 112 187 112 195 95.5 c 128,-1,39
 203 79 203 79 214.5 69.5 c 128,-1,40
 226 60 226 60 243 54 c 128,-1,41
 260 48 260 48 282 48 c 128,-1,42
 304 48 304 48 321 55 c 128,-1,43
 338 62 338 62 349.5 72 c 128,-1,44
 361 82 361 82 369 100 c 128,-1,45
 377 118 377 118 381.5 133.5 c 128,-1,46
 386 149 386 149 388 174 c 128,-1,47
 390 199 390 199 390.5 217 c 128,-1,48
 391 235 391 235 391 263 c 2,49,-1
 391 660 l 1,50,-1
 492 660 l 1,51,-1
 492 274 l 2,20,21
EndSplineSet
Validated: 1
Position2: "'cpsp' Capital Spacing lookup 3 subtable" dx=5 dy=0 dh=10 dv=0
EndChar

StartChar: V
Encoding: 86 86 135
Width: 478
Flags: MW
LayerCount: 2
UndoRedoHistory
Layer: 0
Undoes
EndUndoes
Redoes
EndRedoes
EndUndoRedoHistory
UndoRedoHistory
Layer: 1
Undoes
EndUndoes
Redoes
EndRedoes
EndUndoRedoHistory
Fore
SplineSet
308 0 m 1,0,-1
 158 0 l 1,1,-1
 -5 660 l 1,2,-1
 113 660 l 1,3,-1
 244 75 l 1,4,-1
 374 660 l 1,5,-1
 484 660 l 1,6,-1
 308 0 l 1,0,-1
EndSplineSet
Validated: 1
Position2: "'cpsp' Capital Spacing lookup 3 subtable" dx=5 dy=0 dh=10 dv=0
EndChar

StartChar: W
Encoding: 87 87 136
Width: 794
Flags: MW
LayerCount: 2
UndoRedoHistory
Layer: 0
Undoes
EndUndoes
Redoes
EndRedoes
EndUndoRedoHistory
UndoRedoHistory
Layer: 1
Undoes
EndUndoes
Redoes
EndRedoes
EndUndoRedoHistory
Fore
SplineSet
638 0 m 1,0,-1
 488 0 l 1,1,-1
 391 474 l 1,2,-1
 294 0 l 1,3,-1
 144 0 l 1,4,-1
 -5 660 l 1,5,-1
 113 660 l 1,6,-1
 230 75 l 1,7,-1
 346 660 l 1,8,-1
 457 660 l 1,9,-1
 574 75 l 1,10,-1
 690 660 l 1,11,-1
 800 660 l 1,12,-1
 638 0 l 1,0,-1
EndSplineSet
Validated: 1
Position2: "'cpsp' Capital Spacing lookup 3 subtable" dx=5 dy=0 dh=10 dv=0
EndChar

StartChar: Wacute
Encoding: 7810 7810 137
Width: 794
Flags: MW
LayerCount: 2
UndoRedoHistory
Layer: 0
Undoes
EndUndoes
Redoes
EndRedoes
EndUndoRedoHistory
UndoRedoHistory
Layer: 1
Undoes
EndUndoes
Redoes
EndRedoes
EndUndoRedoHistory
Fore
SplineSet
537 837 m 1,0,1
 566 816 566 816 566 786 c 0,2,3
 566 767 566 767 556.5 754 c 128,-1,4
 547 741 547 741 529.5 734.5 c 128,-1,5
 512 728 512 728 495.5 725 c 128,-1,6
 479 722 479 722 455 720 c 2,7,-1
 336 711 l 1,8,-1
 325 753 l 1,9,-1
 537 837 l 1,0,1
488 0 m 1,10,-1
 391 474 l 1,11,-1
 294 0 l 1,12,-1
 144 0 l 1,13,-1
 -5 660 l 1,14,-1
 113 660 l 1,15,-1
 230 75 l 1,16,-1
 346 660 l 1,17,-1
 457 660 l 1,18,-1
 574 75 l 1,19,-1
 690 660 l 1,20,-1
 800 660 l 1,21,-1
 638 0 l 1,22,-1
 488 0 l 1,10,-1
EndSplineSet
Validated: 1
Position2: "'cpsp' Capital Spacing lookup 3 subtable" dx=5 dy=0 dh=10 dv=0
EndChar

StartChar: Wcircumflex
Encoding: 372 372 138
Width: 794
Flags: MW
LayerCount: 2
UndoRedoHistory
Layer: 0
Undoes
EndUndoes
Redoes
EndRedoes
EndUndoRedoHistory
UndoRedoHistory
Layer: 1
Undoes
EndUndoes
Redoes
EndRedoes
EndUndoRedoHistory
Fore
SplineSet
254 704 m 1,0,-1
 399 836 l 1,1,-1
 403 836 l 1,2,-1
 552 704 l 1,3,-1
 522 669 l 1,4,-1
 402 742 l 1,5,-1
 283 669 l 1,6,-1
 254 704 l 1,0,-1
488 0 m 1,7,-1
 391 474 l 1,8,-1
 294 0 l 1,9,-1
 144 0 l 1,10,-1
 -5 660 l 1,11,-1
 113 660 l 1,12,-1
 230 75 l 1,13,-1
 346 660 l 1,14,-1
 457 660 l 1,15,-1
 574 75 l 1,16,-1
 690 660 l 1,17,-1
 800 660 l 1,18,-1
 638 0 l 1,19,-1
 488 0 l 1,7,-1
EndSplineSet
Validated: 1
Position2: "'cpsp' Capital Spacing lookup 3 subtable" dx=5 dy=0 dh=10 dv=0
EndChar

StartChar: Wdieresis
Encoding: 7812 7812 139
Width: 794
Flags: MW
LayerCount: 2
UndoRedoHistory
Layer: 0
Undoes
EndUndoes
Redoes
EndRedoes
EndUndoRedoHistory
UndoRedoHistory
Layer: 1
Undoes
EndUndoes
Redoes
EndRedoes
EndUndoRedoHistory
Fore
SplineSet
303 836 m 128,-1,1
 336 836 336 836 356.5 820 c 128,-1,2
 377 804 377 804 377 774 c 0,3,4
 377 743 377 743 355 726.5 c 128,-1,5
 333 710 333 710 300 710 c 0,6,7
 267 710 267 710 247 726 c 128,-1,8
 227 742 227 742 227 772 c 0,9,10
 227 803 227 803 248.5 819.5 c 128,-1,0
 270 836 270 836 303 836 c 128,-1,1
502 836 m 128,-1,12
 535 836 535 836 555.5 820 c 128,-1,13
 576 804 576 804 576 774 c 0,14,15
 576 743 576 743 554.5 726.5 c 128,-1,16
 533 710 533 710 499 710 c 0,17,18
 466 710 466 710 446 726 c 128,-1,19
 426 742 426 742 426 772 c 0,20,21
 426 803 426 803 447.5 819.5 c 128,-1,11
 469 836 469 836 502 836 c 128,-1,12
488 0 m 1,22,-1
 391 474 l 1,23,-1
 294 0 l 1,24,-1
 144 0 l 1,25,-1
 -5 660 l 1,26,-1
 113 660 l 1,27,-1
 230 75 l 1,28,-1
 346 660 l 1,29,-1
 457 660 l 1,30,-1
 574 75 l 1,31,-1
 690 660 l 1,32,-1
 800 660 l 1,33,-1
 638 0 l 1,34,-1
 488 0 l 1,22,-1
EndSplineSet
Validated: 1
Position2: "'cpsp' Capital Spacing lookup 3 subtable" dx=5 dy=0 dh=10 dv=0
EndChar

StartChar: Wgrave
Encoding: 7808 7808 140
Width: 794
Flags: MW
LayerCount: 2
UndoRedoHistory
Layer: 0
Undoes
EndUndoes
Redoes
EndRedoes
EndUndoRedoHistory
UndoRedoHistory
Layer: 1
Undoes
EndUndoes
Redoes
EndRedoes
EndUndoRedoHistory
Fore
SplineSet
347 720 m 2,0,1
 328 721 328 721 314.5 723 c 128,-1,2
 301 725 301 725 285.5 729.5 c 128,-1,3
 270 734 270 734 260 741 c 128,-1,4
 250 748 250 748 243.5 759.5 c 128,-1,5
 237 771 237 771 237 786 c 0,6,7
 237 817 237 817 265 837 c 1,8,-1
 478 753 l 1,9,-1
 467 711 l 1,10,-1
 347 720 l 2,0,1
488 0 m 1,11,-1
 391 474 l 1,12,-1
 294 0 l 1,13,-1
 144 0 l 1,14,-1
 -5 660 l 1,15,-1
 113 660 l 1,16,-1
 230 75 l 1,17,-1
 346 660 l 1,18,-1
 457 660 l 1,19,-1
 574 75 l 1,20,-1
 690 660 l 1,21,-1
 800 660 l 1,22,-1
 638 0 l 1,23,-1
 488 0 l 1,11,-1
EndSplineSet
Validated: 1
Position2: "'cpsp' Capital Spacing lookup 3 subtable" dx=5 dy=0 dh=10 dv=0
EndChar

StartChar: X
Encoding: 88 88 141
Width: 515
Flags: MW
LayerCount: 2
UndoRedoHistory
Layer: 0
Undoes
EndUndoes
Redoes
EndRedoes
EndUndoRedoHistory
UndoRedoHistory
Layer: 1
Undoes
EndUndoes
Redoes
EndRedoes
EndUndoRedoHistory
Fore
SplineSet
320 340 m 1,0,-1
 515 0 l 1,1,-1
 387 0 l 1,2,-1
 249 248 l 1,3,-1
 121 0 l 1,4,-1
 1 0 l 1,5,-1
 199 337 l 1,6,-1
 15 660 l 1,7,-1
 143 660 l 1,8,-1
 270 430 l 1,9,-1
 388 660 l 1,10,-1
 508 660 l 1,11,-1
 320 340 l 1,0,-1
EndSplineSet
Validated: 1
Position2: "'cpsp' Capital Spacing lookup 3 subtable" dx=5 dy=0 dh=10 dv=0
EndChar

StartChar: Y
Encoding: 89 89 142
Width: 503
Flags: MW
LayerCount: 2
UndoRedoHistory
Layer: 0
Undoes
EndUndoes
Redoes
EndRedoes
EndUndoRedoHistory
UndoRedoHistory
Layer: 1
Undoes
EndUndoes
Redoes
EndRedoes
EndUndoRedoHistory
Fore
SplineSet
310 0 m 1,0,-1
 193 0 l 1,1,-1
 193 293 l 1,2,-1
 1 660 l 1,3,-1
 129 660 l 1,4,-1
 259 389 l 1,5,-1
 382 660 l 1,6,-1
 502 660 l 1,7,-1
 310 305 l 1,8,-1
 310 0 l 1,0,-1
EndSplineSet
Validated: 1
Position2: "'cpsp' Capital Spacing lookup 3 subtable" dx=5 dy=0 dh=10 dv=0
EndChar

StartChar: Yacute
Encoding: 221 221 143
Width: 503
Flags: MW
LayerCount: 2
UndoRedoHistory
Layer: 0
Undoes
EndUndoes
Redoes
EndRedoes
EndUndoRedoHistory
UndoRedoHistory
Layer: 1
Undoes
EndUndoes
Redoes
EndRedoes
EndUndoRedoHistory
Fore
SplineSet
394 837 m 1,0,1
 423 816 423 816 423 786 c 0,2,3
 423 767 423 767 413.5 754 c 128,-1,4
 404 741 404 741 386.5 734.5 c 128,-1,5
 369 728 369 728 352.5 725 c 128,-1,6
 336 722 336 722 312 720 c 2,7,-1
 193 711 l 1,8,-1
 182 753 l 1,9,-1
 394 837 l 1,0,1
193 0 m 1,10,-1
 193 293 l 1,11,-1
 1 660 l 1,12,-1
 129 660 l 1,13,-1
 259 389 l 1,14,-1
 382 660 l 1,15,-1
 502 660 l 1,16,-1
 310 305 l 1,17,-1
 310 0 l 1,18,-1
 193 0 l 1,10,-1
EndSplineSet
Validated: 1
Position2: "'cpsp' Capital Spacing lookup 3 subtable" dx=5 dy=0 dh=10 dv=0
EndChar

StartChar: Ycircumflex
Encoding: 374 374 144
Width: 503
Flags: MW
LayerCount: 2
UndoRedoHistory
Layer: 0
Undoes
EndUndoes
Redoes
EndRedoes
EndUndoRedoHistory
UndoRedoHistory
Layer: 1
Undoes
EndUndoes
Redoes
EndRedoes
EndUndoRedoHistory
Fore
SplineSet
111 704 m 1,0,-1
 256 836 l 1,1,-1
 260 836 l 1,2,-1
 409 704 l 1,3,-1
 379 669 l 1,4,-1
 259 742 l 1,5,-1
 140 669 l 1,6,-1
 111 704 l 1,0,-1
193 0 m 1,7,-1
 193 293 l 1,8,-1
 1 660 l 1,9,-1
 129 660 l 1,10,-1
 259 389 l 1,11,-1
 382 660 l 1,12,-1
 502 660 l 1,13,-1
 310 305 l 1,14,-1
 310 0 l 1,15,-1
 193 0 l 1,7,-1
EndSplineSet
Validated: 1
Position2: "'cpsp' Capital Spacing lookup 3 subtable" dx=5 dy=0 dh=10 dv=0
EndChar

StartChar: Ydieresis
Encoding: 376 376 145
Width: 503
Flags: MW
LayerCount: 2
UndoRedoHistory
Layer: 0
Undoes
EndUndoes
Redoes
EndRedoes
EndUndoRedoHistory
UndoRedoHistory
Layer: 1
Undoes
EndUndoes
Redoes
EndRedoes
EndUndoRedoHistory
Fore
SplineSet
160 836 m 128,-1,1
 193 836 193 836 213.5 820 c 128,-1,2
 234 804 234 804 234 774 c 0,3,4
 234 743 234 743 212.5 726.5 c 128,-1,5
 191 710 191 710 157 710 c 0,6,7
 124 710 124 710 104 726 c 128,-1,8
 84 742 84 742 84 772 c 0,9,10
 84 803 84 803 105.5 819.5 c 128,-1,0
 127 836 127 836 160 836 c 128,-1,1
359 836 m 128,-1,12
 392 836 392 836 412.5 820 c 128,-1,13
 433 804 433 804 433 774 c 0,14,15
 433 743 433 743 411.5 726.5 c 128,-1,16
 390 710 390 710 356 710 c 0,17,18
 323 710 323 710 303 726 c 128,-1,19
 283 742 283 742 283 772 c 0,20,21
 283 803 283 803 304.5 819.5 c 128,-1,11
 326 836 326 836 359 836 c 128,-1,12
193 0 m 1,22,-1
 193 293 l 1,23,-1
 1 660 l 1,24,-1
 129 660 l 1,25,-1
 259 389 l 1,26,-1
 382 660 l 1,27,-1
 502 660 l 1,28,-1
 310 305 l 1,29,-1
 310 0 l 1,30,-1
 193 0 l 1,22,-1
EndSplineSet
Validated: 1
Position2: "'cpsp' Capital Spacing lookup 3 subtable" dx=5 dy=0 dh=10 dv=0
EndChar

StartChar: Ygrave
Encoding: 7922 7922 146
Width: 503
Flags: MW
LayerCount: 2
UndoRedoHistory
Layer: 0
Undoes
EndUndoes
Redoes
EndRedoes
EndUndoRedoHistory
UndoRedoHistory
Layer: 1
Undoes
EndUndoes
Redoes
EndRedoes
EndUndoRedoHistory
Fore
SplineSet
204 720 m 2,0,1
 180 722 180 722 163.5 725 c 128,-1,2
 147 728 147 728 129.5 734.5 c 128,-1,3
 112 741 112 741 103 754 c 128,-1,4
 94 767 94 767 94 786 c 0,5,6
 94 817 94 817 122 837 c 1,7,-1
 335 753 l 1,8,-1
 324 711 l 1,9,-1
 204 720 l 2,0,1
193 0 m 1,10,-1
 193 293 l 1,11,-1
 1 660 l 1,12,-1
 129 660 l 1,13,-1
 259 389 l 1,14,-1
 382 660 l 1,15,-1
 502 660 l 1,16,-1
 310 305 l 1,17,-1
 310 0 l 1,18,-1
 193 0 l 1,10,-1
EndSplineSet
Validated: 1
Position2: "'cpsp' Capital Spacing lookup 3 subtable" dx=5 dy=0 dh=10 dv=0
EndChar

StartChar: Ytilde
Encoding: 7928 7928 147
Width: 503
Flags: MW
LayerCount: 2
UndoRedoHistory
Layer: 0
Undoes
EndUndoes
Redoes
EndRedoes
EndUndoRedoHistory
UndoRedoHistory
Layer: 1
Undoes
EndUndoes
Redoes
EndRedoes
EndUndoRedoHistory
Fore
SplineSet
383 820 m 1,0,1
 410 802 410 802 410 769 c 0,2,3
 410 745 410 745 393 732.5 c 128,-1,4
 376 720 376 720 349 720 c 0,5,6
 327 720 327 720 267 732 c 128,-1,7
 207 744 207 744 187 744 c 0,8,9
 150 744 150 744 134 729 c 1,10,11
 107 747 107 747 107 780 c 0,12,13
 107 804 107 804 124 816.5 c 128,-1,14
 141 829 141 829 168 829 c 0,15,16
 191 829 191 829 251 817 c 128,-1,17
 311 805 311 805 330 805 c 0,18,19
 367 805 367 805 383 820 c 1,0,1
193 0 m 1,20,-1
 193 293 l 1,21,-1
 1 660 l 1,22,-1
 129 660 l 1,23,-1
 259 389 l 1,24,-1
 382 660 l 1,25,-1
 502 660 l 1,26,-1
 310 305 l 1,27,-1
 310 0 l 1,28,-1
 193 0 l 1,20,-1
EndSplineSet
Validated: 1
Position2: "'cpsp' Capital Spacing lookup 3 subtable" dx=5 dy=0 dh=10 dv=0
EndChar

StartChar: Z
Encoding: 90 90 148
Width: 419
Flags: MW
LayerCount: 2
UndoRedoHistory
Layer: 0
Undoes
EndUndoes
Redoes
EndRedoes
EndUndoRedoHistory
UndoRedoHistory
Layer: 1
Undoes
EndUndoes
Redoes
EndRedoes
EndUndoRedoHistory
Fore
SplineSet
407 587 m 1,0,-1
 129 74 l 1,1,-1
 416 74 l 1,2,-1
 409 0 l 1,3,-1
 11 0 l 1,4,-1
 4 73 l 1,5,-1
 282 586 l 1,6,-1
 22 586 l 1,7,-1
 29 660 l 1,8,-1
 400 660 l 1,9,-1
 407 587 l 1,0,-1
EndSplineSet
Validated: 1
Position2: "'cpsp' Capital Spacing lookup 3 subtable" dx=5 dy=0 dh=10 dv=0
EndChar

StartChar: Zacute
Encoding: 377 377 149
Width: 419
Flags: MW
LayerCount: 2
UndoRedoHistory
Layer: 0
Undoes
EndUndoes
Redoes
EndRedoes
EndUndoRedoHistory
UndoRedoHistory
Layer: 1
Undoes
EndUndoes
Redoes
EndRedoes
EndUndoRedoHistory
Fore
SplineSet
348 838 m 1,0,1
 377 817 377 817 377 787 c 0,2,3
 377 768 377 768 367.5 755 c 128,-1,4
 358 742 358 742 340.5 735.5 c 128,-1,5
 323 729 323 729 306.5 726 c 128,-1,6
 290 723 290 723 266 721 c 2,7,-1
 147 712 l 1,8,-1
 136 754 l 1,9,-1
 348 838 l 1,0,1
129 74 m 1,10,-1
 416 74 l 1,11,-1
 409 0 l 1,12,-1
 11 0 l 1,13,-1
 4 73 l 1,14,-1
 282 586 l 1,15,-1
 22 586 l 1,16,-1
 29 660 l 1,17,-1
 400 660 l 1,18,-1
 407 587 l 1,19,-1
 129 74 l 1,10,-1
EndSplineSet
Validated: 1
Substitution2: "'locl' Localized Forms in Latin lookup 13 subtable" Zacute.loclPLK
Substitution2: "'aalt' Access All Alternates lookup 0 subtable" Zacute.loclPLK
Position2: "'cpsp' Capital Spacing lookup 3 subtable" dx=5 dy=0 dh=10 dv=0
EndChar

StartChar: Zcaron
Encoding: 381 381 150
Width: 419
Flags: MW
LayerCount: 2
UndoRedoHistory
Layer: 0
Undoes
EndUndoes
Redoes
EndRedoes
EndUndoRedoHistory
UndoRedoHistory
Layer: 1
Undoes
EndUndoes
Redoes
EndRedoes
EndUndoRedoHistory
Fore
SplineSet
359 800 m 1,0,-1
 214 688 l 1,1,-1
 211 688 l 1,2,-1
 62 800 l 1,3,-1
 91 835 l 1,4,-1
 211 772 l 1,5,-1
 330 835 l 1,6,-1
 359 800 l 1,0,-1
129 74 m 1,7,-1
 416 74 l 1,8,-1
 409 0 l 1,9,-1
 11 0 l 1,10,-1
 4 73 l 1,11,-1
 282 586 l 1,12,-1
 22 586 l 1,13,-1
 29 660 l 1,14,-1
 400 660 l 1,15,-1
 407 587 l 1,16,-1
 129 74 l 1,7,-1
EndSplineSet
Validated: 1
Position2: "'cpsp' Capital Spacing lookup 3 subtable" dx=5 dy=0 dh=10 dv=0
EndChar

StartChar: Zdotaccent
Encoding: 379 379 151
Width: 419
Flags: MW
LayerCount: 2
UndoRedoHistory
Layer: 0
Undoes
EndUndoes
Redoes
EndRedoes
EndUndoRedoHistory
UndoRedoHistory
Layer: 1
Undoes
EndUndoes
Redoes
EndRedoes
EndUndoRedoHistory
Fore
SplineSet
212 850 m 128,-1,1
 245 850 245 850 265.5 834 c 128,-1,2
 286 818 286 818 286 788 c 0,3,4
 286 757 286 757 264.5 740.5 c 128,-1,5
 243 724 243 724 209 724 c 0,6,7
 176 724 176 724 156 740 c 128,-1,8
 136 756 136 756 136 786 c 0,9,10
 136 817 136 817 157.5 833.5 c 128,-1,0
 179 850 179 850 212 850 c 128,-1,1
129 74 m 1,11,-1
 416 74 l 1,12,-1
 409 0 l 1,13,-1
 11 0 l 1,14,-1
 4 73 l 1,15,-1
 282 586 l 1,16,-1
 22 586 l 1,17,-1
 29 660 l 1,18,-1
 400 660 l 1,19,-1
 407 587 l 1,20,-1
 129 74 l 1,11,-1
EndSplineSet
Validated: 1
Position2: "'cpsp' Capital Spacing lookup 3 subtable" dx=5 dy=0 dh=10 dv=0
EndChar

StartChar: Zdotbelow
Encoding: 7826 7826 152
Width: 419
Flags: MW
LayerCount: 2
UndoRedoHistory
Layer: 0
Undoes
EndUndoes
Redoes
EndRedoes
EndUndoRedoHistory
UndoRedoHistory
Layer: 1
Undoes
EndUndoes
Redoes
EndRedoes
EndUndoRedoHistory
Fore
SplineSet
129 74 m 1,0,-1
 416 74 l 1,1,-1
 409 0 l 1,2,-1
 11 0 l 1,3,-1
 4 73 l 1,4,-1
 282 586 l 1,5,-1
 22 586 l 1,6,-1
 29 660 l 1,7,-1
 400 660 l 1,8,-1
 407 587 l 1,9,-1
 129 74 l 1,0,-1
197 -54 m 128,-1,11
 230 -54 230 -54 250.5 -70 c 128,-1,12
 271 -86 271 -86 271 -116 c 0,13,14
 271 -147 271 -147 249.5 -163.5 c 128,-1,15
 228 -180 228 -180 194 -180 c 0,16,17
 161 -180 161 -180 141 -164 c 128,-1,18
 121 -148 121 -148 121 -118 c 0,19,20
 121 -87 121 -87 142.5 -70.5 c 128,-1,10
 164 -54 164 -54 197 -54 c 128,-1,11
EndSplineSet
Validated: 1
Position2: "'cpsp' Capital Spacing lookup 3 subtable" dx=5 dy=0 dh=10 dv=0
EndChar

StartChar: a
Encoding: 97 97 153
Width: 500
GlyphClass: 2
Flags: MW
AnchorPoint: "Anchor-1" 310 0 basechar 0
AnchorPoint: "Anchor-0" 310 500 basechar 0
LayerCount: 2
UndoRedoHistory
Layer: 0
Undoes
EndUndoes
Redoes
EndRedoes
EndUndoRedoHistory
UndoRedoHistory
Layer: 1
Undoes
EndUndoes
Redoes
EndRedoes
EndUndoRedoHistory
Fore
SplineSet
436 82 m 2,0,1
 436 33 436 33 467 16 c 1,2,3
 450 -15 450 -15 408 -15 c 0,4,5
 379 -15 379 -15 359.5 1.5 c 128,-1,6
 340 18 340 18 337 46 c 1,7,8
 300 -22 300 -22 199 -22 c 0,9,10
 130 -22 130 -22 83.5 20 c 128,-1,11
 37 62 37 62 37 129 c 0,12,13
 37 291 37 291 326 291 c 1,14,-1
 326 378 l 2,15,16
 326 428 326 428 311 452.5 c 128,-1,17
 296 477 296 477 254 477 c 0,18,19
 219 477 219 477 196 458.5 c 128,-1,20
 173 440 173 440 173 407 c 0,21,22
 173 387 173 387 181 362 c 1,23,24
 168 351 168 351 141 351 c 0,25,26
 105 351 105 351 84 369 c 128,-1,27
 63 387 63 387 63 421 c 0,28,29
 63 469 63 469 117 499.5 c 128,-1,30
 171 530 171 530 261 530 c 0,31,32
 358 530 358 530 397 486.5 c 128,-1,33
 436 443 436 443 436 342 c 2,34,-1
 436 82 l 2,0,1
326 241 m 1,35,36
 157 241 157 241 157 133 c 0,37,38
 157 93 157 93 178.5 69 c 128,-1,39
 200 45 200 45 238 45 c 0,40,41
 282 45 282 45 304 78.5 c 128,-1,42
 326 112 326 112 326 162 c 2,43,-1
 326 241 l 1,35,36
EndSplineSet
Validated: 1
Substitution2: "Single Substitution lookup 21 subtable" ordfeminine
Substitution2: "'aalt' Access All Alternates lookup 0 subtable" ordfeminine
EndChar

StartChar: aacute
Encoding: 225 225 154
Width: 500
Flags: MW
LayerCount: 2
UndoRedoHistory
Layer: 0
Undoes
EndUndoes
Redoes
EndRedoes
EndUndoRedoHistory
UndoRedoHistory
Layer: 1
Undoes
EndUndoes
Redoes
EndRedoes
EndUndoRedoHistory
Fore
SplineSet
344 759 m 1,0,1
 365 754 365 754 378 738 c 128,-1,2
 391 722 391 722 391 702 c 0,3,4
 391 688 391 688 383.5 675.5 c 128,-1,5
 376 663 376 663 362 652.5 c 128,-1,6
 348 642 348 642 335.5 635 c 128,-1,7
 323 628 323 628 306 621 c 2,8,-1
 197 572 l 1,9,-1
 172 607 l 1,10,-1
 344 759 l 1,0,1
436 82 m 2,11,12
 436 33 436 33 467 16 c 1,13,14
 450 -15 450 -15 408 -15 c 0,15,16
 379 -15 379 -15 359.5 1.5 c 128,-1,17
 340 18 340 18 337 46 c 1,18,19
 300 -22 300 -22 199 -22 c 0,20,21
 130 -22 130 -22 83.5 20 c 128,-1,22
 37 62 37 62 37 129 c 0,23,24
 37 291 37 291 326 291 c 1,25,-1
 326 378 l 2,26,27
 326 428 326 428 311 452.5 c 128,-1,28
 296 477 296 477 254 477 c 0,29,30
 219 477 219 477 196 458.5 c 128,-1,31
 173 440 173 440 173 407 c 0,32,33
 173 387 173 387 181 362 c 1,34,35
 168 351 168 351 141 351 c 0,36,37
 105 351 105 351 84 369 c 128,-1,38
 63 387 63 387 63 421 c 0,39,40
 63 469 63 469 117 499.5 c 128,-1,41
 171 530 171 530 261 530 c 0,42,43
 358 530 358 530 397 486.5 c 128,-1,44
 436 443 436 443 436 342 c 2,45,-1
 436 82 l 2,11,12
326 241 m 1,46,47
 157 241 157 241 157 133 c 0,48,49
 157 93 157 93 178.5 69 c 128,-1,50
 200 45 200 45 238 45 c 0,51,52
 282 45 282 45 304 78.5 c 128,-1,53
 326 112 326 112 326 162 c 2,54,-1
 326 241 l 1,46,47
EndSplineSet
Validated: 1
EndChar

StartChar: abreve
Encoding: 259 259 155
Width: 500
Flags: MW
LayerCount: 2
UndoRedoHistory
Layer: 0
Undoes
EndUndoes
Redoes
EndRedoes
EndUndoRedoHistory
UndoRedoHistory
Layer: 1
Undoes
EndUndoes
Redoes
EndRedoes
EndUndoRedoHistory
Fore
SplineSet
405 730 m 1,0,1
 405 665 405 665 363.5 628.5 c 128,-1,2
 322 592 322 592 254 592 c 0,3,4
 187 592 187 592 145.5 628.5 c 128,-1,5
 104 665 104 665 104 730 c 1,6,-1
 195 730 l 1,7,8
 195 644 195 644 254 644 c 128,-1,9
 313 644 313 644 313 730 c 1,10,-1
 405 730 l 1,0,1
436 82 m 2,11,12
 436 33 436 33 467 16 c 1,13,14
 450 -15 450 -15 408 -15 c 0,15,16
 379 -15 379 -15 359.5 1.5 c 128,-1,17
 340 18 340 18 337 46 c 1,18,19
 300 -22 300 -22 199 -22 c 0,20,21
 130 -22 130 -22 83.5 20 c 128,-1,22
 37 62 37 62 37 129 c 0,23,24
 37 291 37 291 326 291 c 1,25,-1
 326 378 l 2,26,27
 326 428 326 428 311 452.5 c 128,-1,28
 296 477 296 477 254 477 c 0,29,30
 219 477 219 477 196 458.5 c 128,-1,31
 173 440 173 440 173 407 c 0,32,33
 173 387 173 387 181 362 c 1,34,35
 168 351 168 351 141 351 c 0,36,37
 105 351 105 351 84 369 c 128,-1,38
 63 387 63 387 63 421 c 0,39,40
 63 469 63 469 117 499.5 c 128,-1,41
 171 530 171 530 261 530 c 0,42,43
 358 530 358 530 397 486.5 c 128,-1,44
 436 443 436 443 436 342 c 2,45,-1
 436 82 l 2,11,12
326 241 m 1,46,47
 157 241 157 241 157 133 c 0,48,49
 157 93 157 93 178.5 69 c 128,-1,50
 200 45 200 45 238 45 c 0,51,52
 282 45 282 45 304 78.5 c 128,-1,53
 326 112 326 112 326 162 c 2,54,-1
 326 241 l 1,46,47
EndSplineSet
Validated: 1
EndChar

StartChar: acircumflex
Encoding: 226 226 156
Width: 500
Flags: MW
LayerCount: 2
UndoRedoHistory
Layer: 0
Undoes
EndUndoes
Redoes
EndRedoes
EndUndoRedoHistory
UndoRedoHistory
Layer: 1
Undoes
EndUndoes
Redoes
EndRedoes
EndUndoRedoHistory
Fore
SplineSet
106 610 m 1,0,-1
 251 742 l 1,1,-1
 255 742 l 1,2,-1
 404 610 l 1,3,-1
 374 575 l 1,4,-1
 254 648 l 1,5,-1
 135 575 l 1,6,-1
 106 610 l 1,0,-1
436 82 m 2,7,8
 436 33 436 33 467 16 c 1,9,10
 450 -15 450 -15 408 -15 c 0,11,12
 379 -15 379 -15 359.5 1.5 c 128,-1,13
 340 18 340 18 337 46 c 1,14,15
 300 -22 300 -22 199 -22 c 0,16,17
 130 -22 130 -22 83.5 20 c 128,-1,18
 37 62 37 62 37 129 c 0,19,20
 37 291 37 291 326 291 c 1,21,-1
 326 378 l 2,22,23
 326 428 326 428 311 452.5 c 128,-1,24
 296 477 296 477 254 477 c 0,25,26
 219 477 219 477 196 458.5 c 128,-1,27
 173 440 173 440 173 407 c 0,28,29
 173 387 173 387 181 362 c 1,30,31
 168 351 168 351 141 351 c 0,32,33
 105 351 105 351 84 369 c 128,-1,34
 63 387 63 387 63 421 c 0,35,36
 63 469 63 469 117 499.5 c 128,-1,37
 171 530 171 530 261 530 c 0,38,39
 358 530 358 530 397 486.5 c 128,-1,40
 436 443 436 443 436 342 c 2,41,-1
 436 82 l 2,7,8
326 241 m 1,42,43
 157 241 157 241 157 133 c 0,44,45
 157 93 157 93 178.5 69 c 128,-1,46
 200 45 200 45 238 45 c 0,47,48
 282 45 282 45 304 78.5 c 128,-1,49
 326 112 326 112 326 162 c 2,50,-1
 326 241 l 1,42,43
EndSplineSet
Validated: 1
EndChar

StartChar: adieresis
Encoding: 228 228 157
Width: 500
Flags: MW
LayerCount: 2
UndoRedoHistory
Layer: 0
Undoes
EndUndoes
Redoes
EndRedoes
EndUndoRedoHistory
UndoRedoHistory
Layer: 1
Undoes
EndUndoes
Redoes
EndRedoes
EndUndoRedoHistory
Fore
SplineSet
156 720 m 128,-1,1
 189 720 189 720 209.5 704 c 128,-1,2
 230 688 230 688 230 658 c 0,3,4
 230 627 230 627 208.5 610.5 c 128,-1,5
 187 594 187 594 153 594 c 0,6,7
 120 594 120 594 100 610 c 128,-1,8
 80 626 80 626 80 656 c 0,9,10
 80 687 80 687 101.5 703.5 c 128,-1,0
 123 720 123 720 156 720 c 128,-1,1
355 720 m 128,-1,12
 388 720 388 720 408.5 704 c 128,-1,13
 429 688 429 688 429 658 c 0,14,15
 429 627 429 627 407.5 610.5 c 128,-1,16
 386 594 386 594 352 594 c 0,17,18
 319 594 319 594 299 610 c 128,-1,19
 279 626 279 626 279 656 c 0,20,21
 279 687 279 687 300.5 703.5 c 128,-1,11
 322 720 322 720 355 720 c 128,-1,12
436 82 m 2,22,23
 436 33 436 33 467 16 c 1,24,25
 450 -15 450 -15 408 -15 c 0,26,27
 379 -15 379 -15 359.5 1.5 c 128,-1,28
 340 18 340 18 337 46 c 1,29,30
 300 -22 300 -22 199 -22 c 0,31,32
 130 -22 130 -22 83.5 20 c 128,-1,33
 37 62 37 62 37 129 c 0,34,35
 37 291 37 291 326 291 c 1,36,-1
 326 378 l 2,37,38
 326 428 326 428 311 452.5 c 128,-1,39
 296 477 296 477 254 477 c 0,40,41
 219 477 219 477 196 458.5 c 128,-1,42
 173 440 173 440 173 407 c 0,43,44
 173 387 173 387 181 362 c 1,45,46
 168 351 168 351 141 351 c 0,47,48
 105 351 105 351 84 369 c 128,-1,49
 63 387 63 387 63 421 c 0,50,51
 63 469 63 469 117 499.5 c 128,-1,52
 171 530 171 530 261 530 c 0,53,54
 358 530 358 530 397 486.5 c 128,-1,55
 436 443 436 443 436 342 c 2,56,-1
 436 82 l 2,22,23
326 241 m 1,57,58
 157 241 157 241 157 133 c 0,59,60
 157 93 157 93 178.5 69 c 128,-1,61
 200 45 200 45 238 45 c 0,62,63
 282 45 282 45 304 78.5 c 128,-1,64
 326 112 326 112 326 162 c 2,65,-1
 326 241 l 1,57,58
EndSplineSet
Validated: 1
EndChar

StartChar: agrave
Encoding: 224 224 158
Width: 500
Flags: MW
LayerCount: 2
UndoRedoHistory
Layer: 0
Undoes
EndUndoes
Redoes
EndRedoes
EndUndoRedoHistory
UndoRedoHistory
Layer: 1
Undoes
EndUndoes
Redoes
EndRedoes
EndUndoRedoHistory
Fore
SplineSet
202 621 m 2,0,1
 185 628 185 628 173 635 c 128,-1,2
 161 642 161 642 147 652.5 c 128,-1,3
 133 663 133 663 125.5 675.5 c 128,-1,4
 118 688 118 688 118 702 c 0,5,6
 118 722 118 722 131.5 737.5 c 128,-1,7
 145 753 145 753 165 759 c 1,8,-1
 337 607 l 1,9,-1
 312 572 l 1,10,-1
 202 621 l 2,0,1
436 82 m 2,11,12
 436 33 436 33 467 16 c 1,13,14
 450 -15 450 -15 408 -15 c 0,15,16
 379 -15 379 -15 359.5 1.5 c 128,-1,17
 340 18 340 18 337 46 c 1,18,19
 300 -22 300 -22 199 -22 c 0,20,21
 130 -22 130 -22 83.5 20 c 128,-1,22
 37 62 37 62 37 129 c 0,23,24
 37 291 37 291 326 291 c 1,25,-1
 326 378 l 2,26,27
 326 428 326 428 311 452.5 c 128,-1,28
 296 477 296 477 254 477 c 0,29,30
 219 477 219 477 196 458.5 c 128,-1,31
 173 440 173 440 173 407 c 0,32,33
 173 387 173 387 181 362 c 1,34,35
 168 351 168 351 141 351 c 0,36,37
 105 351 105 351 84 369 c 128,-1,38
 63 387 63 387 63 421 c 0,39,40
 63 469 63 469 117 499.5 c 128,-1,41
 171 530 171 530 261 530 c 0,42,43
 358 530 358 530 397 486.5 c 128,-1,44
 436 443 436 443 436 342 c 2,45,-1
 436 82 l 2,11,12
326 241 m 1,46,47
 157 241 157 241 157 133 c 0,48,49
 157 93 157 93 178.5 69 c 128,-1,50
 200 45 200 45 238 45 c 0,51,52
 282 45 282 45 304 78.5 c 128,-1,53
 326 112 326 112 326 162 c 2,54,-1
 326 241 l 1,46,47
EndSplineSet
Validated: 1
EndChar

StartChar: amacron
Encoding: 257 257 159
Width: 500
Flags: MW
LayerCount: 2
UndoRedoHistory
Layer: 0
Undoes
EndUndoes
Redoes
EndRedoes
EndUndoRedoHistory
UndoRedoHistory
Layer: 1
Undoes
EndUndoes
Redoes
EndRedoes
EndUndoRedoHistory
Fore
SplineSet
384 694 m 1,0,1
 392 673 392 673 392 656 c 0,2,3
 392 612 392 612 334 612 c 2,4,-1
 124 612 l 1,5,6
 117 628 117 628 117 648 c 0,7,8
 117 669 117 669 130.5 681.5 c 128,-1,9
 144 694 144 694 168 694 c 2,10,-1
 384 694 l 1,0,1
436 82 m 2,11,12
 436 33 436 33 467 16 c 1,13,14
 450 -15 450 -15 408 -15 c 0,15,16
 379 -15 379 -15 359.5 1.5 c 128,-1,17
 340 18 340 18 337 46 c 1,18,19
 300 -22 300 -22 199 -22 c 0,20,21
 130 -22 130 -22 83.5 20 c 128,-1,22
 37 62 37 62 37 129 c 0,23,24
 37 291 37 291 326 291 c 1,25,-1
 326 378 l 2,26,27
 326 428 326 428 311 452.5 c 128,-1,28
 296 477 296 477 254 477 c 0,29,30
 219 477 219 477 196 458.5 c 128,-1,31
 173 440 173 440 173 407 c 0,32,33
 173 387 173 387 181 362 c 1,34,35
 168 351 168 351 141 351 c 0,36,37
 105 351 105 351 84 369 c 128,-1,38
 63 387 63 387 63 421 c 0,39,40
 63 469 63 469 117 499.5 c 128,-1,41
 171 530 171 530 261 530 c 0,42,43
 358 530 358 530 397 486.5 c 128,-1,44
 436 443 436 443 436 342 c 2,45,-1
 436 82 l 2,11,12
326 241 m 1,46,47
 157 241 157 241 157 133 c 0,48,49
 157 93 157 93 178.5 69 c 128,-1,50
 200 45 200 45 238 45 c 0,51,52
 282 45 282 45 304 78.5 c 128,-1,53
 326 112 326 112 326 162 c 2,54,-1
 326 241 l 1,46,47
EndSplineSet
Validated: 1
EndChar

StartChar: aogonek
Encoding: 261 261 160
Width: 500
Flags: MW
LayerCount: 2
UndoRedoHistory
Layer: 0
Undoes
EndUndoes
Redoes
EndRedoes
EndUndoRedoHistory
UndoRedoHistory
Layer: 1
Undoes
EndUndoes
Redoes
EndRedoes
EndUndoRedoHistory
Fore
SplineSet
436 82 m 2,0,1
 436 33 436 33 467 16 c 1,2,3
 457 -4 457 -4 435 -11 c 1,4,5
 379 -66 379 -66 379 -130 c 0,6,7
 379 -160 379 -160 391.5 -174 c 128,-1,8
 404 -188 404 -188 435 -188 c 0,9,10
 464 -188 464 -188 482 -167 c 1,11,12
 493 -177 493 -177 493 -192 c 0,13,14
 493 -220 493 -220 469 -233 c 128,-1,15
 445 -246 445 -246 411 -246 c 0,16,17
 361 -246 361 -246 333 -219 c 128,-1,18
 305 -192 305 -192 305 -143 c 0,19,20
 305 -68 305 -68 375 -8 c 1,21,22
 341 6 341 6 337 46 c 1,23,24
 300 -22 300 -22 199 -22 c 0,25,26
 130 -22 130 -22 83.5 20 c 128,-1,27
 37 62 37 62 37 129 c 0,28,29
 37 291 37 291 326 291 c 1,30,-1
 326 378 l 2,31,32
 326 428 326 428 311 452.5 c 128,-1,33
 296 477 296 477 254 477 c 0,34,35
 219 477 219 477 196 458.5 c 128,-1,36
 173 440 173 440 173 407 c 0,37,38
 173 387 173 387 181 362 c 1,39,40
 168 351 168 351 141 351 c 0,41,42
 105 351 105 351 84 369 c 128,-1,43
 63 387 63 387 63 421 c 0,44,45
 63 469 63 469 117 499.5 c 128,-1,46
 171 530 171 530 261 530 c 0,47,48
 358 530 358 530 397 486.5 c 128,-1,49
 436 443 436 443 436 342 c 2,50,-1
 436 82 l 2,0,1
326 241 m 1,51,52
 157 241 157 241 157 133 c 0,53,54
 157 93 157 93 178.5 69 c 128,-1,55
 200 45 200 45 238 45 c 0,56,57
 282 45 282 45 304 78.5 c 128,-1,58
 326 112 326 112 326 162 c 2,59,-1
 326 241 l 1,51,52
EndSplineSet
Validated: 1
EndChar

